<?xml version="1.0" encoding="utf-8"?>
<!-- Generator: Adobe Illustrator 26.3.1, SVG Export Plug-In . SVG Version: 6.00 Build 0)  -->
<svg version="1.1" id="Laag_1" xmlns="http://www.w3.org/2000/svg" xmlns:xlink="http://www.w3.org/1999/xlink" x="0px" y="0px"
	 viewBox="0 0 1261.4 592.4" style="enable-background:new 0 0 1261.4 592.4;" xml:space="preserve">
<style type="text/css">
	.st0{fill:none;stroke:#FF0000;stroke-width:0.2835;stroke-linecap:round;stroke-miterlimit:11.3386;}
	.st1{fill:none;stroke:#FF0000;stroke-width:0.2835;stroke-miterlimit:11.3386;}
	.st2{font-family:'MyriadPro-Regular';}
	.st3{font-size:12px;}
	.st4{fill:#C56C71;}
	.st5{fill:#F5AFE2;}
	.st6{fill:#C56C72;}
	.st7{fill:#CE7D82;}
	.st8{fill:#D2868C;}
	.st9{fill:#F0BCE4;}
	.st10{fill:#E7C2C4;}
	.st11{fill:#F0CDE9;}
	.st12{fill:#F5B6E4;}
	.st13{fill:#CF8085;}
	.st14{fill:#CE7F84;}
	.st15{fill:#CD7F85;}
	.st16{fill:#D58287;}
	.st17{fill:#D1878E;}
	.st18{fill:#DC8C91;}
	.st19{fill:#E7ABAF;}
	.st20{fill:#E5ADB1;}
	.st21{fill:#E0969B;}
	.st22{fill:#F9F1F1;}
	.st23{fill:#EED8D9;}
	.st24{fill:#F0BBE4;}
	.st25{fill:#FEE1F8;}
	.st26{fill:#F1BCE5;}
	.st27{fill:#FEE4FA;}
	.st28{fill:#FDE1F8;}
	.st29{fill:#FDD1F3;}
	.st30{fill:#E39CAD;}
	.st31{fill:#D0858D;}
	.st32{fill:#D38A90;}
	.st33{fill:#F5D1EB;}
	.st34{fill:#D58388;}
	.st35{fill:#E7A2A5;}
	.st36{fill:#F5BFC1;}
	.st37{fill:#F9C3C4;}
	.st38{fill:#DB8B90;}
	.st39{fill:#E79DC0;}
	.st40{fill:#D68B90;}
	.st41{fill:#EDAFB2;}
	.st42{fill:#F8C3C4;}
	.st43{fill:#D4858A;}
	.st44{fill:#E29FA8;}
	.st45{fill:#EDA9AB;}
	.st46{fill:#E39B9E;}
	.st47{fill:#F9C4C5;}
	.st48{fill:#FAC6EB;}
	.st49{fill:#F9C2C3;}
	.st50{fill:#E3A5AC;}
	.st51{fill:#E4ABAF;}
	.st52{fill:#E2A1A5;}
	.st53{fill:#E59D9F;}
	.st54{fill:#FDE3F9;}
	.st55{fill:#FEE3F9;}
	.st56{fill:#FEE5FA;}
	.st57{fill:#F5B0E3;}
	.st58{fill:#F8B3E5;}
	.st59{fill:#E47F9B;}
	.st60{fill:#E47E9B;}
	.st61{fill:#010101;}
	.st62{fill:#D06C8D;}
	.st63{fill:#CBB4D4;}
	.st64{fill:#CCB5D5;}
</style>
<g id="Laag_1_00000132789905195320894250000004035809202076472478_">
	<g id="svgGroup">
		<path id="front_outsideCutPath" vector-effect="non-scaling-stroke" class="st0" d="M0,413.9v38.3h11.3v34H0v34h11.3v34H0v34v4.3
			h51v-11.3h34v11.3h34v-11.3h34v11.3h34v-11.3h34v11.3h34v-11.3h34v11.3h34v-11.3h34v11.3h34v-11.3h34v11.3h34h17v-38.3h-11.3v-34
			H476v-34h-11.3v-34H476v-34v-4.3h-51v11.3h-34v-11.3h-34v11.3h-34v-11.3h-34v11.3h-34v-11.3h-34v11.3h-34v-11.3h-34v11.3h-34
			v-11.3H85v11.3H51v-11.3H17L0,413.9L0,413.9z"/>
		<path id="left_outsideCutPath" vector-effect="non-scaling-stroke" class="st0" d="M496.1,413.9v38.3h-11.3v34h11.3v34h-11.3v34
			h11.3v34v4.3h15.6v-11.3h34v11.3h34v-11.3h34v11.3h34v-11.3h34v11.3h34v-11.3h34v11.3h15.6v-38.3h11.3v-34h-11.3v-34h11.3v-34
			h-11.3v-34v-4.3h-15.6v11.3h-34v-11.3h-34v11.3h-34v-11.3h-34v11.3h-34v-11.3h-34v11.3h-34v-11.3L496.1,413.9L496.1,413.9z"/>
		<path id="top_outsideCutPath" vector-effect="non-scaling-stroke" class="st0" d="M796.5,311.8v15.6h-11.3v34h11.3v34h-11.3v34
			h11.3v34h-11.3v34h11.3v34h-11.3v34h11.3V581h39.7v11.3h34V581h34v11.3h34V581h34v11.3h34V581h34v11.3h34V581h34v11.3h34V581h34
			v11.3h34V581h34h5.7v-15.6h11.3v-34h-11.3v-34h11.3v-34h-11.3v-34h11.3v-34h-11.3v-34h11.3v-34h-11.3v-15.6h-39.7v-11.3h-34v11.3
			h-34v-11.3h-34v11.3h-34v-11.3h-34v11.3h-34v-11.3h-34v11.3h-34v-11.3h-34v11.3h-34v-11.3h-34v11.3h-34L796.5,311.8L796.5,311.8z"
			/>
		<path id="back_outsideCutPath" vector-effect="non-scaling-stroke" class="st0" d="M0,226.8V265h11.3v34H0v34h11.3v34H0v34v4.3h51
			V394h34v11.3h34V394h34v11.3h34V394h34v11.3h34V394h34v11.3h34V394h34v11.3h34V394h34v11.3h34h17V367h-11.3v-34H476v-34h-11.3v-34
			H476v-34v-4.3h-51V238h-34v-11.3h-34V238h-34v-11.3h-34V238h-34v-11.3h-34V238h-34v-11.3h-34V238h-34v-11.3H85V238H51v-11.3H17H0
			V226.8z"/>
		<path id="right_outsideCutPath" vector-effect="non-scaling-stroke" class="st0" d="M496.1,226.8V265h-11.3v34h11.3v34h-11.3v34
			h11.3v34v4.3h15.6V394h34v11.3h34V394h34v11.3h34V394h34v11.3h34V394h34v11.3h15.6V367h11.3v-34h-11.3v-34h11.3v-34h-11.3v-34
			v-4.3h-15.6V238h-34v-11.3h-34V238h-34v-11.3h-34V238h-34v-11.3h-34V238h-34v-11.3h-15.6V226.8z"/>
		<path id="bottom_outsideCutPath" vector-effect="non-scaling-stroke" class="st0" d="M796.5,11.3v15.6h-11.3v34h11.3v34h-11.3v34
			h11.3v34h-11.3v34h11.3v34h-11.3v34h11.3v15.6h39.7V292h34v-11.3h34V292h34v-11.3h34V292h34v-11.3h34V292h34v-11.3h34V292h34
			v-11.3h34V292h34v-11.3h34h5.7V265h11.3v-34h-11.3v-34h11.3v-34h-11.3v-34h11.3V95h-11.3V61h11.3V27h-11.3V11.3h-39.7V0h-34v11.3
			h-34V0h-34v11.3h-34V0h-34v11.3h-34V0h-34v11.3h-34V0h-34v11.3h-34V0h-34v11.3h-34H796.5z"/>
	</g>
</g>
<g id="Laag_2_00000145022321310810369160000017561904705444384191_">
	<rect x="885" y="109.2" class="st1" width="76.5" height="76.5"/>
	<rect x="1025.5" y="38.3" class="st1" width="195.6" height="215.4"/>
	<text transform="matrix(1 0 0 1 165.4299 316.1318)"><tspan x="0" y="0" class="st2 st3">Informatica artifact 2023</tspan><tspan x="-44.9" y="14.4" class="st2 st3">https://github.com/AceKiron/artifact-2023</tspan></text>
</g>
<g>
	<path class="st4" d="M277.9,463.9c0.9,0.9,0.9,1.3,0.1,2.3c-0.4,0.5-0.9,0.9-1.4,1.3c0.7,0.8,0.6,1-0.2,1.6
		c-0.8,0.6-1.7,0.8-2.4,1.5c-0.3,0.3-0.4,0.4-0.1,0.8c0.8,0.9,1.1,2,0.9,3.2c-0.2,1.3-1.2,2-2.5,1.8c-0.5-0.1-1-0.1-1.4,0.3
		c-0.3,0.3-0.7,0.3-1.1,0.3c-0.4,0-0.6,0-0.5,0.5c0.3,1.3-0.1,2.1-1,2.6c-1,0.6-1.8,0-2.5-0.6c-1.6,1.8-1.9,1.8-4.3,0.2
		c-0.2,0.2-0.1,0.4-0.1,0.6c-0.2,1.8-1.4,2.9-2.9,3.8c-0.6,0.4-1.4,0.1-1.9-0.7c-0.2-0.2-0.3-0.5-0.6-0.4c-0.2,0.1-0.5,0.2-0.7-0.1
		c-0.1-0.3,0.1-0.5,0.3-0.6c0.4-0.4,0.9-0.4,1.4-0.2c0.5,0.1,0.8,0.7,1.4,0.3c0.6-0.4,1.1-1,1.2-1.7c0.1-0.3,0.1-0.6,0.2-0.9
		c0.6-0.7,1.4-0.9,2.2-1.1c0.4-0.1,0.8,0,1,0.4c0.3,0.4,0.6,0.5,0.9,0.1c0.7-0.7,1.4-1.2,2.5-0.9c0.5,0.1,0.7-0.1,0.8-0.6
		c0.1-0.4,0.1-0.7,0.1-1.1c0.1-0.8,0.5-1.2,1.3-1.3c0.5,0,1.1,0,1.6-0.1c0.5,0,1,0.1,1.4,0.1c0.6,0,1.1-0.2,1.4-0.7
		c0.3-0.6,0.1-1.1-0.2-1.6c-0.3-0.3-0.6-0.6-0.9-0.9c-0.7-0.6-0.8-1.4-0.2-2.1c0.5-0.6,1.2-1.2,2-1.4c0.6-0.1,1-0.4,1.1-1
		c0.1-0.4,0.4-0.6,0.7-0.8c0.5-0.3,0.9-0.7,1.3-1.1c0.2-0.3,0.4-0.6,0.1-0.9c-0.7-0.7-0.5-1.4-0.1-2.1c0.1-0.2,0.2-0.4,0.3-0.5
		c0.3-0.5,0.3-0.8-0.3-1.2c-0.7-0.4-0.7-0.7-0.3-1.4c0.4-0.6,0.7-1.1,0.5-1.8c0-0.1-0.1-0.2-0.2-0.3c-0.2-0.3-0.4-0.4-0.7-0.3
		c-0.3,0.1-0.1,0.4-0.1,0.6c0,0.1,0,0.1,0,0.2c-0.3,1.2-0.7,1.4-1.9,1.2c-0.2,0-0.4-0.1-0.7-0.1c-0.6,0-0.8,0.2-0.8,0.8
		c0,1.5-0.4,2-1.8,2.3c-0.5,0.1-0.7,0.2-0.4,0.7c0.3,0.7,0,1.3,0,2c0,0.3-0.2,0.5-0.4,0.6c-0.5,0.1-0.7-0.3-1-0.6
		c-0.3-0.3-0.5-0.4-0.6,0.1c-0.1,0.6-0.7,0.7-1.2,0.8c-0.6,0.1-0.9,0.3-0.7,0.9c0.2,0.8-0.2,1.5-0.3,2.2c-0.1,0.5-0.7,0.6-1.1,0.3
		c-0.3-0.2-0.6-0.5-0.8-0.8c-0.6-0.6-1.4-0.7-2.1-0.3c-0.8,0.5-1,1.2-0.7,2c0.2,0.4,0.2,0.9,0.1,1.3c-0.1,0.1-0.1,0.2-0.2,0.2
		c-0.7,0.2-1.3,0-1.6-0.6c-0.2-0.4-0.4-0.4-0.8-0.3c-1,0.4-2,0.8-2.8,1.5c-0.3,0.2-0.6,0.4-1,0.2c-0.3-0.2-0.3-0.6-0.2-0.9
		c0.1-0.3,0.1-0.6,0.1-0.8c0-0.6,0.2-1,0.9-1.1c0.3,0,0.5-0.2,0.6-0.4c0.3-0.4,0.8-0.6,1.2-0.7c0.2-0.1,0.3-0.2,0.3-0.5
		c0-0.1-0.1-0.3-0.1-0.4c-0.2-1.5,0.6-2.2,2.1-1.8c0.4,0.1,0.7,0.3,1.1,0.4c0.5,0.1,0.9,0.1,1.3-0.3c0.3-0.4,0.1-0.7-0.1-1.1
		c-0.6-1.1-0.1-1.8,1.2-1.8c0.4,0,0.5-0.1,0.5-0.5c-0.1-1.7,0.4-2.4,2.1-2.8c1-0.2,1.1-0.5,0.8-1.5c-0.1-0.2-0.1-0.4-0.2-0.7
		c-0.2-1.6,0.6-2.3,2.1-1.7c0.1,0,0,0,0.1,0c0.3,0.2,0.6,0.1,0.9-0.1c0.1-0.1,0.2-0.2,0.1-0.4c-0.2-0.3-0.4-0.6-0.8-0.6
		c-0.6,0-1.1-0.1-1.4-0.7c-0.2-0.2-0.3-0.5-0.3-0.8c-0.1-0.4,0-0.7,0.3-1c0.1,0,0.1-0.1,0.2-0.1c1.1,0.1,1.1-0.7,1.2-1.4
		c0.1-0.7,0.2-1.4,0.2-2c0.1-0.1-0.1-0.1,0,0c0,0,0,0,0,0.1c-0.4,0.5-0.7,0.1-0.9-0.2c-0.2-0.4-0.3-0.8-0.3-1.2c0-0.3,0-0.7-0.5-0.6
		c-0.4,0-0.5,0.4-0.5,0.7c0,0.5-0.1,1,0,1.4c0.1,0.5-0.2,0.9-0.6,1.1c-0.4,0.2-0.8,0-1.1-0.3c-0.4-0.5-1-0.7-1.5-0.9
		c-0.5-0.2-0.8,0-0.8,0.5c0,0.3,0,0.6,0,0.9c-0.1,0.8-0.6,1.2-1.4,0.8c-0.5-0.3-1.1-0.4-1.7-0.5c-0.3-0.1-0.5,0.1-0.4,0.4
		c0.1,0.3,0.1,0.6,0.2,1c0.1,0.7-0.4,1.5-0.9,1.9c-0.3,0.2-0.6,0.1-0.9-0.1c-0.3-0.2-0.5-0.4-0.9-0.5c-0.1,1.9-1.6,2.7-2.7,3.8
		c-0.6,0.6-1.1,1.2-1.3,2.1c-0.2,0.9-0.8,1.6-1.1,2.4c-0.1,0.3-0.4,0.4-0.7,0.5c-0.7,0.1-1.2,0.5-1.5,1.1c-0.1,0.2-0.3,0.2-0.5,0.2
		c-0.8-0.4-1.4-1.1-1.9-1.7c-0.4-0.5,0.1-0.6,0.4-0.8c0.2-0.1,0.4-0.2,0.6-0.2c0.9,0,1.3-0.5,1.5-1.3c0.1-0.5,0.3-1.1,0.7-1.5
		c0.2-0.3,0.2-0.6,0.3-1c0.1-1,0.2-1.3,1.2-1.5c0.3-0.1,0.5-0.2,0.6-0.5c0.7-1.5,1.2-3.1,2.2-4.5c0.1-0.1,0.2-0.3,0.1-0.4
		c-0.4-0.4-0.6-1.1-1-1.5c-0.4-0.3-1.1-0.4-1.7-0.3c-0.2,0-0.4,0-0.6,0c-1.6-0.2-2.6,0.4-3.3,1.8c-0.2,0.4-0.5,0.5-1,0.3
		c-1.9-0.7-1.9-0.7-2.8,1.2c0,0.1-0.1,0.2-0.1,0.3c-0.7,1.4-0.7,1.4-2.1,1.1c-1.3-0.4-2.2,0-2.8,1.1c0,0.1-0.1,0.1-0.2,0.1
		c-0.3,0-0.6,0-0.9-0.2c-0.1-0.5-0.1-0.9,0-1.4c0.4-1.6,1.7-2.3,3.4-1.8c0.5,0.1,0.7,0.1,0.8-0.4c0.5-1.9,1.6-2.6,3.5-2.6
		c0.3,0,0.5,0.1,0.6-0.3c0.3-1.2,0.9-1.6,2.1-1.6c0.2,0,0.3,0,0.5,0c0.7,0.1,0.9-0.1,0.9-0.8c0-1.2,2.1-2.6,3.3-2.3
		c0.5,0.1,0.9,0.5,1,1c0.1,0.5,0.4,0.9,0.8,1.2c0.8,0.7,0.7,1.7,0.5,2.6c-0.1,0.6-0.1,0.9,0.5,1.3c0.8,0.4,0.9,1.2,0.5,2
		c-0.2,0.4-0.5,0.7-0.7,1.1c0.9,0,1.5,0.4,2.3,0.9c0-0.7-0.3-1.2-0.4-1.8c-0.2-1.1,0.3-1.7,1.4-1.6c0.6,0.1,1.2,0.3,1.8,0.4
		c0.2,0,0.4,0.2,0.5-0.2c0.3-2,1.2-2.5,3-1.6c0.8,0.4,0.9,0.2,1.1-0.5c0.4-1.8,2.3-2.5,3.5-1c0.1,0.1,0.2,0.2,0.2,0.2
		c1.1,0.1,1.2,0.9,1.2,1.7c0.1,1.8,0,3.5-0.5,5.2c-0.1,0.3,0,0.5,0.2,0.7c0.4,0.5,0.8,0.9,1.1,1.5c0.2,0.5,0.1,1-0.3,1.3
		c-0.8,0.6-1.6,1-2.6,0.7c-0.5-0.2-0.5,0.1-0.4,0.4c0.1,0.2,0.2,0.5,0.3,0.7c0.4,0.7,0.3,1.2-0.3,1.7c-0.5,0.4-1.1,0.8-1.7,0.9
		c-0.7,0.1-1.1,0.4-1,1.2c0.1,0.3,0,0.7,0,1.1c1.1-0.8,2.1-0.3,3.2,0.2c-0.1-0.5-0.1-0.9-0.1-1.3c-0.2-1.4,0.7-2.2,2-2
		c0.8,0.2,1-0.1,0.9-0.8c0-0.5,0-1,0.1-1.5c0.2-0.8,0.8-1.2,1.7-1c0.1,0,0.2,0,0.3,0.1c0.9,0.3,0.8,0.4,0.9-0.7c0-0.3,0-0.6,0.1-0.8
		c0.2-0.5,0.6-0.8,1.1-0.6c0.4,0.2,0.9,0.2,1.3,0.3c1.3,0.3,2.2,2.2,1.6,3.5c-0.2,0.5-0.4,0.9,0.1,1.4c0.4,0.5,0.2,1.1,0,1.7
		c-0.2,0.4-0.4,0.9-0.7,1.2C278,463.5,277.8,463.6,277.9,463.9z"/>
	<path class="st5" d="M289.5,534.2c2.9-0.2,5.7-0.4,8.6-0.7c2.5-0.3,5-0.6,7.4-1.2c0.4-0.1,1-0.3,1.4,0.1c0.3,0.4-0.2,0.8-0.3,1.1
		c-0.3,0.7-0.8,1.4-1.5,1.9c-0.2-0.3,0-0.5,0.1-0.7c0.2-0.3,0.4-0.6,0.6-0.9c0.2-0.3,0.5-0.6,0.3-0.9c-0.3-0.3-0.7,0-1.2,0.1
		c0.7,0.6,0.5,1.1,0,1.5c-0.8,0.8-1.7,1.4-2.6,1.9c-0.8,0.4-1.5,0.9-2,1.4c1.3-0.6,2.7-1.4,4-2.4c0.2-0.2,0.5-0.3,0.8-0.1
		c-0.5,1.2-1.7,1.6-2.8,2.1c-4.1,2.2-8.4,4-12.9,5.1c-4.1,1-8.3,1.8-12.5,2.6c-0.7,0.1-1.4,0.3-2.1,0.2c0-0.6,0.4-0.6,0.8-0.7
		c3.6-0.6,7.3-1.4,10.9-2.2c-3,0.4-5.9,1.1-8.7,1.6c-1.8,0.3-3.6,0.5-5.4,0.6c-0.8,0-1.6,0.1-2.4,0.2c-2.3,0.4-4.6,0.2-6.9-0.4
		c-0.7-0.2-1.5-0.3-2.2-0.4c1.7,0.7,3.4,1.1,5.2,1.2c0.9,0.1,1.8-0.1,2.7,0.2c0.2,0.1,0.4,0,0.5-0.1c0.8-0.4,1.7-0.3,2.5-0.4
		c0.4-0.1,0.7,0.1,0.9,0.5c-0.9,0.1-1.9,0.4-2.8,0.4c-1.1,0.1-2.2,0-3.2,0.1c-1.4,0.1-2.8-0.4-4.1-0.8c-3.7-1.2-7.3-2.6-10.8-4
		c0.2-0.6,0.6-0.4,0.9-0.3c0.7,0.3,1.4,0.6,2,0.9c0.3,0.1,0.6,0.3,1,0.3c-0.3-0.4-0.7-0.6-1-0.7c-0.7-0.2-1.3-0.5-2-0.7
		c-0.8-0.3-1-0.7-0.9-1.7c0.3-0.1,0.6,0,0.9,0.2c0.9,0.3,1.9,0.7,2.8,0.8c0.3,0,0.6,0.1,0.8,0.3c1.6,1.5,3.7,2.1,5.7,2.8
		c2,0.7,4.1,1.2,6.3,1c4.8-0.1,9.5-0.6,14.1-1.7c3-0.5,5.9-1.3,8.9-2c3.6-0.9,6.9-2.6,10.1-4.2c1-0.5,1.8-1.1,2.6-1.8
		c-1.8,0.8-3.8,0.4-5.6,0.6c-1.3,0.1-2.6,0.5-3.9,0.6c-1.8,0.2-3.7,0.2-5.5,0.3c-2.4,0.1-4.7-0.3-7.1-0.5c-2.2-0.2-4.4-0.5-6.6-0.8
		c-0.5-0.1-1-0.1-1.4,0c-1.3,0.3-2.4-0.1-3.6-0.5c-0.9-0.3-1.7-0.7-2.4-1.2c-0.7-0.4-1.2-0.9-1.5-1.7c-0.1-0.4-0.4-0.8-0.7-1.2
		c-0.6-0.7-0.8-1.7-1.2-2.5c-0.2-0.6,0.2-0.9,0.6-1.1c0.2-0.2,0.5-0.4,0.8-0.5c2.7-1.6,5.4-3.1,7.8-5.1c0.7-0.5,1.3-1.2,1.8-1.8
		c1-1.1,0.7-2.1-0.6-2.7c-1-0.5-2.2-0.6-3.2-0.2c-1.4,0.6-2.9,0.9-4.4,1.3c-1.2,0.4-2.5,0.2-3.7,0.1c-2-0.2-3.9-0.8-5.8-1.1
		c-0.6-0.1-1.2-0.3-1.7-0.8c-0.2-0.4-0.3-0.9,0-1.4c0.2-0.2,0.5-0.3,0.8-0.3c1.6,0.1,3.2,0.2,4.7,0.6c1.3,0.3,2.7,0.4,4,0.3
		c0.2,0,0.4,0,0.5-0.2c-0.4-0.6-1-1.2-1.7-1.5c-0.9-0.8-1.8-1.6-2.6-2.5c-0.4-0.6-0.9-1.1-1.4-1.6c-1.5-1.4-2.9-2.9-4.1-4.5
		c-0.5-0.6-1.1-1-1.7-1.5c-0.8-0.8-1.1-1.8-1.7-2.7c-1.2-1.4-1.8-3.2-2.9-4.7c-0.6-0.9-0.8-2-0.8-3.1c0-0.2,0-0.3,0-0.5
		c0-0.5,0.1-1.1-0.1-1.6c-0.1-0.6-0.3-0.6-0.7-0.2c-1,1.1-2.3,1.9-3.5,2.7c-0.8,0.5-1.7,0.9-2.6,1.4c-0.2,0.1-0.4,0.2-0.6,0.2
		c-0.4,0-0.5-0.2-0.3-0.5c0.2-0.4,0.6-0.7,0.8-1.2c0.2-0.4,0.6-0.6,1-0.8c1-0.4,1.8-1.1,2.7-1.6c1.9-0.9,3.5-2.3,4.2-4.4
		c0.3-0.8,0.7-1.5,0.8-2.3c0.3-0.8,0.7-1.6,1.1-2.3c0.3-0.4,0.7-0.7,1.1-1.1c0.3-0.2,0.5-0.5,0.9-0.2c0.2,0.4,0,0.8-0.1,1.1
		c-0.2,0.5-0.5,1-0.5,1.5c-0.1,0.4-0.1,0.8-0.5,1.1c-1,1.6-2.2,3.1-3.1,4.7c-0.1,0.8,0.1,1.5,0.3,2.3c0.3,1.2,0.9,2.2,1.3,3.4
		c0.2,0.6,0.5,1.1,0.7,1.7c0.5,0.6,0.8,1.4,1.2,2.1c0.1,0.9,0.7,1.6,1.2,2.3c1.8,2.8,3.8,5.5,6.3,7.8c2.1,2,4.2,4,6.3,6
		c0.2,0.2,0.5,0.3,0.8,0.2c1.2-0.2,2.3-0.8,3.5-0.9c1.9-0.2,5.2,0.4,6.2,2.8c0.5,1.2,0.4,2.3-0.1,3.3c-1.6,2.9-3.9,4.9-6.9,6.2
		c-1.3,0.5-2.6,0.9-4,1.2c-0.7,0.2-0.8,0.5-0.4,1c0.8,1.2,1.8,2,3.1,2.6c1.1,0.4,2.1,1,3.1,1.5c2,0.9,4.2,1.2,6.4,1.4
		c2.1,0.3,4.2,0.5,6.3,0.8C286.6,534.3,288,534.3,289.5,534.2z"/>
	<path class="st6" d="M171.1,480.9c-0.7-0.4-1.3-0.9-1.7-1.7c-0.2-0.4-0.4-0.7-0.8-0.9c-1.1-0.7-2-1.7-2.8-2.7
		c-0.8-1-0.7-1.8,0.1-2.7c0.1-0.1,0.1-0.2,0.1-0.4c0-1.7,1.4-2.6,2.9-2c0.5,0.2,0.9,0.4,1.3,0.8c0.3,0.3,0.6,0.3,0.9,0.1
		c0.5-0.3,1-0.5,1.6-0.8c0.6-0.3,1.2-0.1,1.9,0c-0.9-0.7-1.8-1.5-2.7-2.2c-1.6-1.3-3-2.7-4.2-4.4c-0.2-0.4-0.7-0.6-1-1
		c-1-1.1-0.9-2.3,0.2-3.2c1.1-0.9,2.3-1.2,3.7-0.9c0.6,0.1,1,0,1.3-0.6c0.3-0.6,0.8-1,1.4-1.4c1-0.6,1.9-0.8,2.8,0
		c0.2,0.1,0.3,0.2,0.6,0.2c1.4-0.2,2.5,0.3,3.7,0.9c0.3,0.1,0.5,0.3,0.8,0.4c0.5,0.3,1,0.4,1.5-0.1c0.6-0.6,1.4-0.5,2.2,0
		c0.3,0.2,0.6,0.2,1,0.2c1.1-0.1,2.1,0.2,2.9,1c0.3,0.3,0.6,0.6,1.1,0.5c0,0,0.1,0,0.2,0c1.4,0.7,3,0.9,4.1,2
		c0.3,0.3,0.5,0.2,0.9,0.2c1.6-0.4,2.7,0.1,3.4,1.4c0.1,0.7-0.3,1-0.8,1.3c-0.4,0-0.5-0.3-0.7-0.5c-0.4-0.4-0.9-0.6-1.4-0.6
		c-0.3,0-0.6,0.1-0.8,0.4c-0.6,0.9-1.4,1.2-2.5,0.8c-1-0.4-2-0.8-3.1-0.8c-0.9-0.1-1.6-0.6-2.4-1c-0.9-0.6-1.9-1-2.8-1.7
		c-0.6-0.4-1.3-0.4-2-0.5c-1.5-0.3-2.8-0.7-4-1.8c-0.1,0.7-0.4,1.2-1,1.4c-0.5,0.2-1.1,0.5-1.7,0.3c-1-0.2-1.9,0.2-2.8,0.6
		c-0.6,0.3-1.2,0.4-1.8,0.2c-0.6-0.2-1.2,0-1.5-0.1c0.6,0.3,1,1.4,0.6,2.2c-0.2,0.4-0.1,0.7,0.2,0.9c0.6,0.4,1.1,0.9,1.6,1.4
		c0.4,0.4,0.8,0.5,1.4,0.5c1.2-0.1,2.3,0.1,3.3,0.8c1.3,0.8,2.5,1.9,4.2,2.1c1.2,0.2,2.3,0.7,3.3,1.4c0.4,0.3,0.9,0.5,1.4,0.4
		c0.4-0.1,0.9-0.1,1.3,0.1c1.1,0.6,2.3,0.7,3.4,1c1.3,0.4,2.2,1.4,2.2,2.8c0,0.2,0,0.3-0.1,0.5c-0.1,0.1-0.2,0.2-0.4,0.2
		c-2.2-0.1-4.3,0.2-6.5-0.2c-0.1,0-0.3,0-0.4-0.1c-1-0.9-2.4-0.9-3.5-1.6c-0.6-0.3-1.3-0.4-2-0.3c-1.7,0.1-3.5,0.2-5.2-0.1
		c-0.5-0.1-0.8,0-1.2,0.3c-1,0.9-1.3,0.9-2.4,0.3c-0.5-0.3-0.9-0.3-1.3,0.2c-0.3,0.3-0.6,0.6-1.1,0.7c-0.2,0-0.3,0.2-0.2,0.4
		c0.3,0.8,0.7,1.5,1.6,1.8c0.6,0.2,0.9,0.5,1,1.1c0.1,0.7,0.5,1.2,0.9,1.7C171.2,480.5,171.6,480.7,171.1,480.9z"/>
	<path class="st5" d="M251.6,539.2c0.2,1.6,1.6,1.6,2.7,2c0.5,0.2,1.1,0.4,1.5,0.9c0.1,0.1,0.3,0.2,0.1,0.4c-0.1,0.1-0.2,0-0.4,0
		c-1-0.3-1.9-0.8-2.8-1.2c-0.4-0.2-0.8-0.4-1.2,0c-1.1,0.3-2.2,0.6-3.3,1c-0.8,0.2-1.5,0.3-2.3,0.3c-3.2,0.3-6.4,0.2-9.7-0.2
		c-1.9-0.3-3.8-0.6-5.7-1c-1.1-0.2-2-0.8-3-1.3c-2.6-1.5-5-3.3-6.9-5.6c-1-1.2-2-2.4-3-3.6c-1.1-1.4-1.9-2.9-3-4.3
		c-1.6-1.9-2.6-4-3.4-6.3c-0.6-1.8-0.9-3.7-1.3-5.5c-0.3-1.2-0.6-2.3-0.7-3.5c-0.1-1.8-0.1-3.6,0.1-5.4c0.1-1.1,0.4-2.1,0.5-3.2
		c0.1-0.4,0-0.6-0.5-0.7c-3.3-0.7-6.6-1.7-9.4-3.7c-0.4-0.3-0.6-0.8-1.1-1c-0.3-0.7-1-0.9-1.4-1.4c-0.2-0.2-0.4-0.3-0.5-0.5
		c-0.1-0.2-0.3-0.4-0.5-0.6c-0.2-0.3-0.5-0.5-0.7-0.9c-1.1-1.4-1.8-3-2.6-4.7c-0.2-0.4-0.3-0.8-0.6-1.1c-0.1-0.2-0.2-0.4-0.3-0.6
		c-0.1-0.2-0.2-0.5-0.2-0.8c0.3-1.1,0-2.1-0.9-2.8c-0.1-0.1-0.2-0.2-0.2-0.4c0-0.1,0-0.2,0.1-0.3c0.6,0,1.1-0.2,1.6-0.6
		c0.4-0.4,0.8-0.3,1.1,0.4c0.3,0.8,0.4,1.6,0.7,2.4c0.6,1.9,1.6,3.6,2.1,5.5c0.4,1.4,1.7,2.3,2.7,3.4c1.2,1.3,2.8,2.1,4.3,3.1
		c2,1.3,4.3,1.7,6.7,1.9c2.5,0.3,5,0.5,7.5,0.9c0.8,0.1,1.5,0,2.3-0.1c1.9-0.4,3.7-1.1,5.6-1.3c1.1-0.1,2.2-0.3,3.2-0.6
		c0.4-0.2,0.9-0.2,1.4-0.3c0.5-0.1,1-0.2,1.5-0.4c1.1,0,1.9-0.6,2.8-1.1c0.1-0.1,0.1-0.1,0.2-0.1c0.3-0.2,0.6-0.5,1-0.4
		c0.1,0,0.3,0,0.4,0c0.4,0,0.8,0,0.9,0.5c0.1,0.5-0.4,0.6-0.7,0.7c-2.3,0.7-4.5,1.6-6.8,2.2c-2.9,0.9-5.9,1.3-8.7,2.3
		c-1.9,0.7-3.7,0.5-5.6,0.7c-0.1,0-0.2,0.1-0.2,0.1c-0.6,0.2-1.3,0.2-1.9,0.1c-0.3-0.1-0.6-0.1-1,0c-0.1,0-0.2,0.1-0.3,0.1
		c-0.3,0-0.4,0.3-0.4,0.5c-0.1,0.6-0.2,1.1-0.2,1.7c-0.3,1.9-0.5,3.9-0.1,5.8c0.6,3.1,1,6.3,2.6,9.1c0.4,0.7,0.6,1.4,1,2.1
		c1.2,2.7,2.2,5.6,4.3,7.9c1.1,1.1,2.1,2.3,3.1,3.5c0.7,0.8,1.6,1.4,2.5,2.1c0.6,0.5,1.4,0.8,2.1,1.1c1.2,0.5,2.1,1.2,3.2,1.8
		c0.3,0.1,0.6,0.2,0.9,0.3c2.7,0.9,5.6,1.1,8.3,1.5c1.3,0.2,2.7,0.1,4.1,0c0.3,0,0.6,0,0.8-0.2c0.9-0.7,1.9-0.5,2.7-0.2
		c1.4,0.5,2.6,0.4,3.8-0.3C250.8,539.1,251.2,538.9,251.6,539.2z"/>
	<path class="st4" d="M192.3,486.9c0,0.3,0.2,0.5,0.2,0.8c-0.2,1-1,1.7-2,1.3c-1.5-0.6-3.1-0.4-4.6-0.5c-0.2,0-0.4,0-0.5,0
		c-1.5-0.8-3.1,0.1-4.6-0.5c-0.2-0.1-0.4,0-0.6,0.1c-0.8,0.6-1.8,0.5-2.7,0.5c-0.5,0-1.1,0.1-1.6,0c-0.8-0.1-1.4,0.1-1.9,0.8
		c-0.2,0.4-0.6,0.4-1,0.2c-0.1,0-0.2-0.1-0.3-0.2c-0.4-0.2-0.8-0.5-1.2,0c-0.3,0.3-0.2,1,0.3,1.4c0.6,0.5,1,1.2,1.6,1.7
		c0.2,0.1,0.4,0.3,0.4,0.5c0.1,0.7,0.5,0.9,1.1,0.8c0.4,0,0.9,0.1,1.3,0.2c0.3,0.1,0.6,0.3,0.7,0.8c0,0.3-0.2,0.6,0.2,0.8
		c0.4,0.2,0.9,0.3,1.4,0.1c0.2-0.1,0.4-0.3,0.7-0.4c0.8-0.3,1.4,0,1.6,0.7c0.1,0.2,0.1,0.5,0.3,0.7c0.1,0.2,0.3,0.5,0.5,0.5
		c0.3,0,0.2-0.3,0.3-0.5c0.3-0.7,1.1-0.9,1.8-0.5c0.3,0.1,0.5,0.4,0.7,0.5c0.6,0.4,1.2,0.4,1.8,0c0.9-0.6,1.4-0.7,2.3,0
		c0.8,0.6,1.4,0.7,2.4,0.4c1.6-0.4,3-1.2,4.7-1c0.5,0.1,1-0.3,1.5-0.4c0.2,0,0.5-0.1,0.7,0c0.5,0.4,1.1,0.8,1.5,1.3
		c0.4,0.4-0.1,0.2-0.2,0.3c-0.3-0.1-0.4,0.1-0.5,0.3c-0.2,1-0.7,1.9-1.8,2.3c-0.2,0.1-0.3,0.2-0.3,0.3c-0.6,1.4-2.2,1.8-3.7,0.9
		c-0.6-0.4-1.1-0.6-1.9-0.2c-0.9,0.5-1.9,0.1-2.8-0.5c-0.6-0.4-1.1-0.6-1.8-0.3c-1,0.4-1.9,0-2.8-0.5c-0.3-0.2-0.6-0.2-1-0.2
		c-1.3,0.2-2.2-0.6-2.9-1.6c-0.3-0.4-0.6-0.5-1.1-0.5c-1.2,0.1-2.2-0.5-3.1-1.4c-0.2-0.3-0.5-0.4-0.8-0.5c-0.9-0.2-1.7-0.5-2.5-1.1
		c-0.4-0.3-0.9-0.7-0.7-1.3c0.1-0.3-0.2-0.5-0.4-0.7c-0.7-0.8-1.6-1.5-2-2.5c-0.5-0.9-0.6-1.8,0.2-2.6c0.8-0.8,1.7-1.2,2.8-0.8
		c0.4,0.1,0.7,0.2,1-0.2c0.5-0.6,1.2-1,2-0.6c0.2,0.1,0.3,0,0.6,0c-0.7-0.7-1.5-1.2-1.8-2.1c0.1-0.6,0.4-0.5,0.8-0.3
		c0.3,0.2,0.5,0.4,0.7,0.7c0.4,0.5,0.9,0.8,1.6,0.9c0.4,0.1,0.7,0,1-0.4c0.7-1,1.8-1.1,2.7-0.2c0.7,0.8,0.7,0.8,1.7,0.2
		c0.9-0.5,1.8-0.5,2.7-0.3c1.1,0.2,2.3,0.2,3.4,0.6c0.2,0.1,0.4,0.1,0.6,0c0.9-0.3,1.4,0.1,1.8,0.9c0.2,0.4,0.5,0.8,1.1,0.9
		c0.1,0,0.2,0,0.3,0.1C192.2,486.7,192.2,486.8,192.3,486.9z"/>
	<path class="st5" d="M197.6,464.9c0.3-0.4,0.6-0.7,0.8-1.2c1.1-1.1,2.1-2.4,3.2-3.5c1.3-1.2,2.7-2.3,4.3-3.1
		c2.3-1.2,4.7-2.3,7.1-3.2c2.1-0.8,4.3-1.4,6.6-1.6c2-0.2,3.9-0.5,5.9-0.7c0.8-0.1,1.5,0.1,2.2,0.3c3.1,0.7,6.2,1.5,9.3,2.3
		c0.5,0.1,1,0.3,1.3-0.3c0.3,0,0.6,0,0.9,0.2c0.4,0.1,0.5,0.5,0.9,0.6c0.6,0.4,1.2,0.6,1.8,0.9c0.2,0.2,0.5,0.3,0.4,0.6
		c-1.4,1.4-1.4,1.4-3.1,0.6c-1.3-0.7-2.7-1.2-4.2-1.2c-0.3,0-0.6,0-0.8-0.1c-1.5-0.7-3.1-0.7-4.7-0.4c-0.7-0.1-1.4-0.1-2.1-0.4
		c-0.7-0.2-1.4-0.2-2.1,0c-0.7,0.2-1.4,0.2-2.2,0.2c-1.3-0.1-2.6,0.1-3.9,0.2c-0.3,0-0.5,0.1-0.8,0c-0.9-0.3-1.6,0.1-2.3,0.4
		c-1.2,0.6-2.5,1-3.6,1.6c-2.4,1.3-5,2-7.3,3.5c-0.2,0.1-0.4,0.2-0.6,0.4c-1.7,2-4,3.4-5.4,5.6c-0.4,0.6-0.8,1.1-1.5,1.3
		c-0.2,0-0.3,0.2-0.5,0.4c-1.8,2.1-3.2,4.5-3.4,7.4c-0.2,1.7-0.5,3.4-0.6,5c-0.1,0.7-0.5,1-1.2,0.7c-0.3-0.2-0.7-0.3-0.9-0.6
		c0-0.1-0.1-0.3,0-0.4c0.5-1.1,0.3-2.2,0.4-3.3c0-0.2,0-0.5,0.2-0.7c0.1-0.1,0.1-0.2,0.2-0.3c0-0.1,0-0.3,0-0.4
		c0.1-0.4,0-0.9,0.1-1.4c0.3-1.6,0.8-3.1,1.5-4.6c0.7-1.4,1.6-2.6,3.1-3.2c0.4-0.1,0.7-0.4,0.7-0.9
		C197.3,465.2,197.4,465,197.6,464.9z"/>
	<path class="st7" d="M191.8,475.9c0,0.1,0,0.2,0,0.3c-0.6,0.1-1.2,0.4-1.7,0.8c-0.6,0.5-1.3,0.4-1.9,0.1c-0.6-0.3-1.1-0.3-1.7,0
		c-0.7,0.4-1.4,0.3-1.9-0.3c-0.9-1.1-2.2-1.3-3.4-1.7c-0.7-0.2-1.5-0.4-2.2-0.6c-0.5-0.2-1-0.2-1.4,0.2c-0.6,0.5-1.3,0.4-1.9-0.1
		c-0.3-0.3-0.5-0.3-0.8,0c-0.5,0.3-1,0.5-1.5,0.5c-0.5,0-0.9,0.3-1.2,0.5c-0.4,0.3-0.5,0.7-0.3,1.3c0.5,1.2,1,2.2,2.2,2.8
		c0.6,0.3,1,0.9,1.1,1.6c0.1,0.8,1.8,2.2,2.6,2.2c0.3,0,0.5-0.2,0.8-0.3c1.1-0.8,2.2-0.9,3.3-0.1c0.3,0,0.5,0,0.7-0.1
		c0.4-0.1,0.8-0.1,1.1,0c1,0.5,2.1,0.6,3.2,0.7c0.1,0,0.2,0,0.2,0c0.8,0.2,1.5-0.3,2.3-0.3c0.3,0,0.4,0.3,0.6,0.4
		c0.1,0.1,0.2,0.2,0.2,0.2c0.5,0.8,1.2,1.6,1.5,2.5c-0.5,0.2-0.7-0.2-1-0.5c-0.2-0.2-0.4-0.5-0.5-0.7c-0.2-0.6-0.6-0.7-1.2-0.5
		c-0.4,0.1-0.7,0.1-1.1,0c-1.4-0.3-2.9-0.6-4.4-0.7c-0.7,0-1.2,0.2-1.7,0.6c-0.7,0.5-1,0.5-1.4-0.2c-0.4-0.6-0.9-0.7-1.5-0.8
		c-0.5,0-0.9,0.2-1.1,0.8c-0.2,0.5-0.5,0.6-1,0.5c-0.9-0.2-1.5-0.6-2-1.3c-0.2-0.3-0.5-1.1-1.1-0.3c-0.1-0.1-0.3-0.2-0.3-0.4
		c0-1.1-0.8-1.4-1.6-1.7c-0.3-0.1-0.5-0.3-0.7-0.5c0.1-0.1,0.1-0.2,0-0.2c-0.7-0.7-1.1-1.5-1.2-2.5c0-0.2-0.1-0.3-0.3-0.4
		c-1.5-0.3-1.9-1.5-2.5-2.8c0.7,0.2,1.2-0.1,1.6-0.6c0.5-0.6,1-0.6,1.6-0.2c0.9,0.6,1.3,0.6,2.1-0.2c0.4-0.4,0.7-0.5,1.3-0.4
		c1.8,0.3,3.7,0.3,5.5,0c0.6-0.1,1.2,0,1.6,0.3c1.2,0.7,2.6,0.8,3.8,1.7c0.5,0.3,1.5,0.3,2.2,0.3c1.2,0,2.4,0.2,3.6-0.1
		C191,475.6,191.4,476.1,191.8,475.9z"/>
	<path class="st5" d="M272.6,545.6c-1.1-0.5-2.1-0.2-3.2,0.1c-0.4,0.1-0.7,0.3-1,0c-0.3-0.2-0.7-0.1-1-0.1c-2.3,0.1-4.6-0.4-6.7-1.2
		c-0.1-0.1-0.3-0.1-0.4-0.2c-0.1,0-0.1-0.1-0.2-0.3c1.2,0,2.3,0.2,3.4,0.5c2.1,0.5,4.3,0.7,6.5,0.3c1.4-0.2,2.8-0.3,4.2-0.3
		c1.7,0,3.2-0.4,4.8-0.7c2.3-0.4,4.5-0.9,6.8-1.3c0.4-0.1,0.8,0,1.2,0.2c-2.4,0.6-4.7,1.1-7,1.6c-1.6,0.3-3.1,0.8-4.7,0.8
		c-0.3,0-0.4,0.2-0.6,0.5C274,545.7,273.3,545.5,272.6,545.6z"/>
	<path class="st8" d="M253,483.8c0.1-0.3,0.2-0.7,0.3-1c0.1-0.3,0.4-0.4,0.6-0.6c0.8-0.6,1.4-1.4,1.2-2.5c-0.1-0.6,0.5-1.4,1.2-1.5
		c0.6-0.2,1,0.2,1.3,0.7c0.3,0.7,0.9,0.9,1.6,0.8c0.2,0,0.4-0.1,0.7,0c0,0,0.1,0.1,0.1,0.1c0,1.2-0.5,2.2-1.5,2.8
		c-0.3,0.2-0.5,0.2-0.8,0c-0.9-0.6-1.4-0.7-1.9-0.2c-0.1,0.1-0.4,0.2-0.3,0.5c0.1,0.2,0.4,0.1,0.5,0.1c-0.7,0.2-1.4,0.4-1.9,1
		C253.8,484.4,253.4,484.1,253,483.8z"/>
	<path class="st9" d="M289.5,534.2c-0.5,0.3-1.1,0.1-1.6,0.1c-0.9,0-1.9,0.2-2.8-0.1C286.6,534.2,288,534.2,289.5,534.2z"/>
	<path class="st10" d="M277.9,463.9c-0.3-0.1-0.2-0.3,0-0.5c0.3-0.4,0.6-0.9,1-1.3C278.8,462.8,278.4,463.4,277.9,463.9z"/>
	<path class="st11" d="M253.4,498c-0.7-0.5-0.8-1.4-1.2-2.1C252.9,496.4,253.3,497.1,253.4,498z"/>
	<path class="st12" d="M250.2,490.8c-0.3-0.7-0.6-1.5-0.3-2.3C250,489.3,250.1,490,250.2,490.8z"/>
	<path class="st12" d="M229.6,454.7c1,0.2,2-0.5,3.1,0c1.3,0.6,2.6,0.6,4,0.8c1.2,0.2,2.3,0.8,3.4,1.4c0.7,0.4,1,0.4,1.6-0.3
		c0.2-0.2,0.4-0.5,0.7-0.5c0.3-0.1,0.5,0.1,0.6,0.2c1.3,1.2,2.9,2.1,4.2,3.3c0.3,0.3,0.6,0.7,0.8,1.1c0,0.2,0,0.3-0.1,0.4
		c-0.5,0-0.7,0.1-0.2,0.6c0.6,0.5,1.1,1.1,1.6,1.6c0.4,0.1,0.6,0.5,0.8,0.8c0.9,1,1.7,2.1,2.4,3.3c0.3,0.5,0.5,1.1,0.8,1.6
		c0.3,0.9,0.5,1.8,0.5,2.8c0,1.3-0.1,2.6,0.4,3.9c0.1,0.8,0.2,1.6,0.3,2.5c0.1,0.6,0,1.3-0.3,1.8c0,0-0.1,0.1-0.1,0.1
		c-0.9,0.1-1.2,1-1.8,1.4c-0.3-0.5,0.1-0.9,0.2-1.4c0.1-0.4,0.2-0.8-0.5-0.7c-0.5,0.1-0.7-0.2-0.8-0.6c-0.1-0.3-0.1-0.6,0-0.8
		c0.2-1.2,0.1-2.4,0.2-3.5c0.2-1,0.5-1.9,0.3-2.9c0-0.2,0-0.4,0.1-0.7c0.2-0.8-0.3-1.3-1.2-1.2c-0.5,0.1-1,0.1-1.3-0.4
		c-1-2.4-2.3-4.6-4.1-6.4c-0.8-0.8-1.9-1.3-2.7-2c-0.5-0.4-1-0.9-1.4-1.4c-0.8-1-1.8-1.6-3-1.9c-1.2-0.3-2.3-0.7-3.4-1.1
		c-1.4-0.6-2.9-0.5-4.3-1.1C230,455.1,229.6,455.2,229.6,454.7z"/>
	<path class="st13" d="M267.9,454.1c0.3,0.4,0.7,0.7,1.4,0.5c0.4-0.1,1.3,0.8,1.2,1.2c-0.1,0.3-1.1,0.6-1.5,0.4
		c-0.5-0.3-1.1-0.5-1.6-0.1c-0.5,0.4-0.5,1-0.4,1.5c0,0.3,0.1,0.7,0.3,0.9c0.5,0.7,0.1,1-0.5,1.2c-0.2,0.1-0.5,0.2-0.7,0.2
		c-1.4,0.2-2.2,1.3-1.8,2.6c0.2,0.8-0.1,0.8-0.7,0.6c-0.5-0.2-0.9,0.1-1.2,0.5c-0.3,0.3-0.1,0.6,0.1,0.9c0.2,0.4,0.7,0.9,0.2,1.4
		c-0.5,0.5-1.2,0.6-1.8,0.2c-0.4-0.2-0.9-0.4-1.4-0.4c-0.9,0-1.2,0.3-1.2,1.2c0,0.3,0,0.7,0.1,1c0.2,0.5,0.1,0.7-0.4,0.6
		c-0.8,0.2-1.6,0.3-2.4,0.7c-0.4,0.2-0.7,0.5-0.5,1c0.2,0.6,0,1.1-0.1,1.6c-0.2,0.8,0.1,1.1,0.9,1c0.6-0.1,1.2-0.2,1.8-0.5
		c1.2-0.6,2.4-1,3.8-0.8c0.1,0,0.1,0.1,0.1,0.2c0,0.2-0.1,0.3-0.2,0.4c-1.7,0.4-3.4,1-4.9,1.8c-0.8,0.4-1.3,0.1-1.9-0.5
		c-0.5-0.5-0.7-1.1-0.3-1.7c0.2-0.4,0.2-0.7,0.1-1.1c-0.1-0.4-0.2-0.8-0.3-1.3c-0.1-0.8,0.1-1.2,0.9-1.4c1-0.2,1.6-0.7,2-1.6
		c0.5-1.1,1.5-1.8,2.2-2.8c0.2-0.3,0.5-0.3,0.8-0.2c0.2,0.1,0.5,0.1,0.6-0.2c0.3-0.9,1-1.4,1.7-2c0.2-0.2,0.4-0.4,0.5-0.6
		c0.2-0.6,0.3-1.2,0.5-1.7c0.2-0.5,0.6-0.9,1.2-1c0.6-0.1,0.9-0.3,1-0.9c0.1-0.4,0.2-0.7,0.5-1C266.8,455.6,267.1,454.7,267.9,454.1
		z"/>
	<path class="st14" d="M249.6,463.1c0.3-0.7,0.9-1.1,1.6-1.2c0.2,0,0.4-0.1,0.5-0.3c0.4-0.8,0.8-1.5,1-2.3c0.2-1,0.6-1.8,1.5-2.3
		c0.7-0.4,1.1-1.3,1.7-1.8c0.9-0.6,0.9-1.3,0.6-2.2c0.6,0.1,1,0.3,1.3,0.6c0.4,0.4,0.7,0.3,1.1-0.1c0.7-0.7,0.6-1.4,0.4-2.2
		c-0.3-1-0.2-1,0.8-0.8c0.6,0.1,1.1,0.2,1.6,0.5c0.5,0.3,1,0,1-0.6c0-0.5,0-1,0.1-1.5c0.1-0.4,0.3-0.5,0.6-0.4
		c0.7,0.3,1.5,0.3,2,1.1c0.2,0.3,0.5,0.6,0.9,0.3c0.3-0.2,0.6-0.4,0.5-1c-0.1-0.6-0.1-1.2,0-1.8c0.1-0.3,0.3-0.6,0.8-0.6
		c0.4,0,0.6,0.4,0.6,0.8c0,0.4,0.1,0.7,0.2,1c0.1,0.3,0.2,0.6,0.5,0.7c0.4,0.1,0.3-0.4,0.5-0.5c0.1,1.3-0.3,2.5-0.3,3.7
		c0,0.3-0.2,0.4-0.5,0.3c-0.3-0.1-0.6,0-0.9,0.1c-0.3-0.3-0.3-0.8-0.4-1.2c-0.1-0.5-0.3-0.6-0.7-0.2c-0.5,0.6-1.1,0.7-1.8,0.7
		c-0.7,0-1.5,0.1-2,0.8c-0.5,0.6-1.1,0.8-1.9,0.7c-0.8,0.9-1.7,1.4-2.8,1.7c-0.7,0.2-1.3,0.8-1.9,1.3c-0.8,0.8-1.5,1.7-2.5,2.3
		c-0.3,0.2-0.5,0.6-0.6,1c0,0.7-0.4,1.4-0.7,2C252.2,462.6,251,463.7,249.6,463.1z"/>
	<path class="st15" d="M277.3,457.6c0.4,0.8,0,1.4-0.5,2c-0.4,0.6-0.3,0.9,0.3,1.2c0.7,0.3,0.8,0.7,0.3,1.3c-0.2,0.3-0.4,0.7-0.6,1
		c-0.3,0.5-0.3,1,0.2,1.4c0.5,0.4,0.4,0.8,0,1.2c-0.4,0.5-0.9,0.9-1.4,1.2c-0.4,0.2-0.6,0.5-0.6,0.9c0,0.5-0.3,0.7-0.6,0.8
		c-0.9,0.2-1.7,0.6-2.4,1.4c-0.6,0.8-0.6,1.4,0.2,2c0.4,0.3,0.7,0.6,1,1c0.8,1.4,0,2.3-1.4,2.5c-0.5,0.1-1.1,0.1-1.5-0.2
		c0-0.5,0.4-0.5,0.8-0.6c0.3-0.1,0.6,0,0.9-0.1c0.3,0,0.6,0.1,0.7-0.3c0.1-0.3-0.2-0.5-0.4-0.6c-0.6-0.5-1.1-1.1-1.7-1.6
		c-0.5-0.3-0.4-0.9-0.2-1.4c0.3-0.7,0.9-1.1,1.2-1.7c0.1-0.1,0.1-0.2,0.2-0.3c0.1-0.1,0.1-0.1,0.2-0.1c0.5-0.4,1.1-0.8,1.8-1
		c0.7-0.2,1-0.5,0.8-1.2c-0.1-0.2,0-0.4,0-0.6c0.1-0.2,0.2-0.4,0.3-0.6c0.1-1,0.5-1.9,1.1-2.8c0.3-0.5,0-1.1-0.7-1.5
		c-0.5-0.3-0.8,0.1-1,0.4c-0.2,0.3-0.3,0.7-0.5,1c-0.4,0.9-0.8,1.8-2,1.8c-0.5,0-0.6,0.7-1.1,0.7c0-0.3,0-0.5,0.1-0.8
		c0.1-0.5,0.2-0.9-0.2-1.4c-0.3-0.4-0.3-0.7,0.3-0.7c0.6,0,1-0.2,1.5-0.5c0.6-0.4,0.6-0.9,0.5-1.5c-0.1-0.7,0.2-1.2,1-1.1
		c0.2,0,0.4,0.1,0.7,0.1c1.2,0.3,1.4,0.2,1.8-1.1C276.5,457.5,276.9,457.6,277.3,457.6z"/>
	<path class="st8" d="M271.7,469c-0.2,0.6-0.9,1-1.1,1.6c-0.4,0.9-0.3,1.3,0.5,1.7c0.7,0.4,1,1.2,1.7,1.5c0.2,0.1,0.3,0.5,0.2,0.7
		c-0.1,0.3-0.4,0.2-0.7,0.2c-0.7,0-1.4-0.1-2,0.5c-0.5,0.3-1,0.1-1.5,0.1c-0.9,0-1.2,0.3-1.2,1.2c0,0.2,0,0.3,0,0.5
		c-0.1,1.3-0.2,1.5-1.3,1.2c-1.1-0.2-1.6,0.4-2.2,1c-0.5,0.5-0.8,0.5-1-0.1c-0.3-0.5-0.6-0.5-1.1-0.4c-0.7,0.2-1.3,0.6-1.9,0.9
		c0,0,0,0,0,0c-0.8-1.1-0.8-1.7,0.2-2.7c0.1-0.1,0.1-0.1,0.2-0.1c0.5-0.2,0.9-0.2,1.4,0c0.9,0.5,1.6,0.4,2.3-0.3
		c0.2-0.2,0.4-0.3,0.7-0.5c0.3-0.1,0.7,0.1,1,0c0.3,0,0.4-0.2,0.5-0.5c0.3-1.7,1.3-2.6,3-2.7c0.3,0,0.6,0,0.8-0.2
		c0.2-0.1,0.2-0.3,0-0.4c-0.8-0.9-0.8-1.2,0-2.1C270.4,469.7,270.8,469,271.7,469z"/>
	<path class="st16" d="M240.1,454.8c-0.4-0.1-0.6-0.4-0.8-0.7c0.3-0.9,0.8-1.5,1.7-1.6c0.6-0.1,1.3,0.2,1.9,0.4
		c0.4,0.1,0.6,0.1,0.8-0.2c0.3-0.5,0.7-1,0.8-1.6c0.4-1.4,1.2-1.7,2.5-1.1c0.6,0.3,1,0.5,1.3-0.4c0.2-0.9,2.1-1.8,3.1-1.6
		c0.3,0.1,0.6,0.1,0.9,0.1c0,0.1,0,0.1,0,0.2c-0.7,0.3-1.2,1.1-2,1.1c-0.2,0.1-0.3,0.2-0.3,0.4c0,0.7-0.6,1-1,1.5
		c-0.9,1-2.2,1.5-3,2.6c-0.6,1.4-2.4,2.2-3.9,1.6C241.3,455,240.7,454.8,240.1,454.8z"/>
	<path class="st17" d="M252.2,448c0,0,0-0.1,0-0.1c0.5-0.3,0.9,0.1,1.4,0.1c0.7,0,0.7,0.5,0.8,1c0,0.1,0.1,0.2,0.2,0.3
		c0.8,0.4,0.5,0.8,0.1,1.4c-0.8,1.2-1.3,2.6-1.9,4c-0.2,0.5-0.3,0.8-1,0.8c-0.7,0-0.9,0.6-0.9,1.2c0,0.6-0.1,1.1-0.5,1.6
		c-0.3,0.4-0.3,0.9-0.5,1.4c-0.2,0.7-0.6,1.2-1.5,1.1c-0.2,0-0.5,0.2-0.7,0.3c0-0.1,0-0.3,0-0.4c-0.2-0.3,0-0.5,0.1-0.7
		c0.4-1.3,0.9-2.5,1.5-3.7c0.3-0.6,0.9-1.1,1.2-1.8c0.3-0.8,0.5-1.6,1-2.2c0.1-0.1,0.1-0.2,0.1-0.4c0-0.9,0.3-1.6,0.7-2.3
		C252.7,449,252.5,448.5,252.2,448z"/>
	<path class="st18" d="M249.6,463.1c0.8-0.1,1.5,0,2.2-0.6c0.8-0.7,1.1-1.6,1.3-2.5c0.2-0.8,0.4-1.4,1.1-1.8c0.5-0.4,1-0.8,1.4-1.3
		c1-1.1,2.1-2.1,3.6-2.5c0.9-0.2,1.3-0.9,1.9-1.5c0.3,0.3,0.2,0.7,0.2,1.1c-0.2,1-0.7,1.6-1.6,2.2c-1.1,0.8-2.4,1.1-3.6,1.8
		c-0.4,0.2-0.5,0.4-0.3,0.9c0.6,1.2,0.3,2-0.9,2.4c-0.3,0.1-0.5,0.3-0.6,0.6c-0.2,0.5-0.3,1-0.5,1.4c-0.3,0.8-0.8,1.1-1.7,1
		c-0.3,0-0.5-0.1-0.7,0c-0.6,0.3-1.1,0.1-1.5-0.3c-0.2-0.3-0.4-0.6-0.6-0.9C249.3,463.3,249.5,463.3,249.6,463.1z"/>
	<path class="st19" d="M267.9,454.1c-0.4,0.7-0.9,1.5-1.5,2c-0.3,0.3-0.5,0.6-0.6,1c-0.1,0.6-0.5,1-1,1c-0.9,0.1-1.1,0.6-1.4,1.3
		c-0.2,0.4-0.1,0.9-0.4,1.4c-0.4,0.5-1.2,0.6-1.7,1c-0.4,0.2-0.7,0.4-1,0.8c-0.4,0.5-0.9,0.7-1.5,0.5c-0.7-0.2-1.2,0-1.5,0.6
		c-0.3,0.5-0.6,1.1-0.8,1.7c-0.3,0.9-0.8,1.6-1.9,1.7c-0.9,0.1-1.2,0.7-0.9,1.6c0.4,1.3,0.5,2.6,0.5,3.9c0,0.7,0.3,1.3,0.7,1.8
		c0.4,0.5,1.2,0.5,1.9-0.2c0.5-0.5,1.1-0.7,1.8-0.7c0.3,0,0.6,0,0.9,0.2c0.8,0.4,1.4,0.2,1.7-0.6c0.1-0.3,0.1-0.7,0.3-0.9
		c0.1-0.1,0.1-0.2,0.2-0.3c0.6-0.5,1.3-1,2-1.4c0.1-0.1,0.3-0.1,0.4,0.1c0,0.2-0.1,0.4-0.3,0.5c-0.7,0.8-1.4,1.6-1.6,2.7
		c-0.1,0.4-0.4,0.8-0.8,1c-0.8,0.4-1.6,0.8-2.5,1c-0.5,0.1-0.9,0.1-1.3-0.2c-0.1-0.1-0.3-0.2-0.5-0.2c-0.8,0.3-1.7,0-2.5,0.4
		c-0.3,0.1-0.5,0.1-0.7-0.2c-0.3-0.6-0.3-1.3-0.3-2c0-0.6-0.3-1.2-0.2-1.7c0.2-1.1-0.2-2.1-0.5-3c-0.4-1.4,0.4-3,1.8-3.4
		c0.8-0.3,1.2-0.8,1.4-1.6c0.3-1.5,0.6-1.9,2.2-1.8c0.9,0,1.6-0.2,2.4-0.6c0.1,0,0.1-0.1,0.2-0.1c0.4-0.3,0.8-0.6,1.3-0.7
		c0.4-0.1,0.5-0.4,0.5-0.8c0.1-1.3,0.5-1.8,1.8-2c0.5-0.1,0.7-0.3,0.8-0.8c0.1-0.9,0.5-1.6,1.2-2.2c0.3-0.2,0.5-0.5,0.6-0.8
		c0.1-0.2,0.2-0.5,0.5-0.4C267.7,453.7,267.8,453.9,267.9,454.1z"/>
	<path class="st15" d="M261.6,471.5c0-0.6,0-1.1-0.3-1.7c-0.4-0.6,0.7-2,1.6-2.1c0.7-0.1,1.3,0,1.8,0.7c0.2,0.2,0.4,0.4,0.6,0.6
		c0.2,0.2,0.4,0.3,0.7,0.2c0.2-0.1,0.4-0.3,0.4-0.6c-0.1-0.8,0.6-1.6,0.1-2.4c-0.2-0.3,0.3-0.5,0.6-0.6c0.3,0,0.7-0.1,1-0.2
		c0.2-0.1,0.4-0.2,0.5-0.5c0-0.2-0.3-0.5,0.1-0.6c0.3-0.1,0.7,0.1,0.9,0.4c0.2,0.3,0.3,0.6,0.7,0.6c0.2,0.3-0.1,0.5-0.2,0.8
		c-0.2,0.4-0.5,0.8-0.9,1c-0.4-0.1-0.6,0-0.9,0.4c-0.8,1.2-1.7,2.3-3.3,2.5c-0.6,0.1-1.3,0.6-1.9,1
		C262.6,471.2,262.3,471.7,261.6,471.5z"/>
	<path class="st20" d="M267.6,453.5c-0.6,1.3-2.3,2.1-2.2,3.9c0,0.3-0.3,0.5-0.7,0.6c-1.4,0.1-1.9,0.6-1.8,1.9
		c0,0.6-0.2,0.9-0.7,0.9c-0.5,0-0.8,0.6-1.3,0.6c-0.1-0.3,0.1-0.5,0.3-0.7c1.1-1.3,2-2.7,3-4c0.6-0.7,1-1.6,1-2.6
		c0-1.2-0.7-1.6-1.8-0.9c-0.5,0.3-1,0.6-1.6,0.5c-0.5-0.1-0.3,0.6-0.7,0.6c0-0.4,0-0.8,0-1.2c0.8,0.3,1.4-0.1,1.9-0.6
		c0.6-0.7,1.4-0.8,2.3-0.8c0.6,0,1.1,0,1.4-0.6c0.1-0.2,0.3-0.5,0.6-0.4c0.3,0.1,0.4,0.4,0.4,0.7c0,0.4,0.1,0.8,0.1,1.2
		C267.6,452.9,267.6,453.2,267.6,453.5z"/>
	<path class="st15" d="M261.5,471.8c-1.5,0.1-3,0.4-4.3,1.3c-0.5,0.3-1.2,0.3-1.8,0.2c-0.5,0-0.9-0.4-0.7-1c0.2-0.7,0.6-1.4,0.1-2.2
		c-0.1-0.2,0.1-0.5,0.3-0.6c0.9-0.4,1.8-1,2.9-0.7c-0.5,0.2-1,0.5-1.3,0.9c-0.1,0.1-0.2,0.3-0.4,0.2c-0.9-0.1-0.9,0.5-0.9,1.1
		c0,0.2-0.1,0.5-0.1,0.7c0,0.3-0.1,0.5,0.2,0.7c0.3,0.2,0.5,0,0.7-0.2c0.9-1,2.3-1.2,3.3-1.9c0.4-0.2,0.3,0.2,0.4,0.3
		c0.3,0.8,0.8,1,1.6,0.9C261.5,471.7,261.5,471.7,261.5,471.8C261.5,471.8,261.5,471.8,261.5,471.8z"/>
	<path class="st8" d="M269.9,466c0.1-0.3,0.2-0.5,0.3-0.8c0.2-0.1,0.3-0.2,0.3-0.5c0.4-0.5,0.9-0.9,1.7-1c0.6-0.1,0.9-0.8,1.1-1.3
		c0.1-0.3,0.2-0.6,0.4-0.8c0.2-0.5,0.5-1.2,1.2-1.2c0.6,0,0.9,0.7,1.3,1.1c0.2,0.2,0.2,0.6,0,0.8c-0.7,0.9-1,1.9-1.2,2.9
		c-0.7-1.5-0.7-1.5-2.3-1c-0.8,0.2-1.5,0.7-2,1.4C270.4,465.9,270.3,466.2,269.9,466z"/>
	<path class="st21" d="M261.5,471.8c0-0.1,0-0.1,0-0.2c0-0.1,0.1-0.1,0.1-0.2c1-0.2,1.6-0.9,2.5-1.4c0.4-0.2,0.8-0.4,1.2-0.4
		c0.5,0,0.9-0.4,1.3-0.7c0.6-0.6,1.4-1.1,1.6-2.1c0-0.3,0.2-0.3,0.4-0.1c0.1,0.1,0.3,0.2,0.5,0.2c0.1,0.2-0.1,0.3-0.2,0.4
		c-0.3,0.2-0.5,0.5-0.8,0.8c-0.2,0.1-0.3,0.3-0.5,0.5c-0.9,1.2-2.2,1.6-3.5,2c0,0-0.1,0-0.1,0c-0.9,0.3-1.5,1.2-2.4,1.4
		C261.5,471.9,261.5,471.8,261.5,471.8z"/>
	<path class="st8" d="M277.3,457.6c-0.4,0.3-0.8,0.1-1.2,0.2c0-0.3-0.4-0.8,0-1C276.6,456.7,277.3,456.9,277.3,457.6z"/>
	<path class="st22" d="M264,464.7c0.7-0.2,1-0.1,0.7,0.7c-0.1,0.3,0.2,0.9-0.2,0.9c-0.6,0-0.1-0.6-0.3-0.9
		C264.1,465.2,264.1,464.9,264,464.7z"/>
	<path class="st22" d="M260.1,468.7c-0.3-0.1-0.3-0.4-0.3-0.6c-0.1-0.3-0.4-0.6-0.1-0.8c0.2-0.1,0.5,0.2,0.7,0.3
		c0.4,0.3,0,0.5-0.1,0.7C260.2,468.4,260.1,468.5,260.1,468.7z"/>
	<path class="st23" d="M254,454.9c0.1-0.3,0.1-0.7,0.4-0.8c0.1,0,0.2,0.1,0.2,0.1C254.6,454.6,254.2,454.7,254,454.9z"/>
	<path class="st11" d="M265.8,525.8c-0.2,0.2-0.4,0.3-0.6,0.5c-1.2,0.6-2.5,1-3.7,1.7c-0.1,0.1-0.3,0.1-0.4,0.2
		c-1.3,0.4-1.7,1.7-0.8,2.7c0.5,0.5,0.9,1,1.1,1.7c0.2,0.7,0.8,1.1,1.4,1.4c0.9,0.4,1.6,1,2.2,1.7c1.2,1.2,2.6,2.1,4.3,2.4
		c0.5,0.1,1,0.2,1.5,0.4c0.8,0.3,1.6,0.3,2.4,0c0.5-0.2,1.1-0.2,1.6,0c1.3,0.3,2.5,0.6,3.8,0.7c1.3,0,2.7-0.3,4-0.3
		c0.1,0,0.3-0.1,0.4-0.1c1-0.8,2.3-0.8,3.5-0.9c1.1-0.1,2-0.3,2.8-1.1c0.5-0.6,1.3-0.7,2-0.9c1.5-0.3,3.1-0.3,4.7-0.6
		c1.3-0.2,2.7-0.5,4.1-0.2c0.4,0.1,0.8,0,1,0.4c-0.2,0.6-0.8,0.6-1.3,0.6c-1.7,0.1-3.4,0.3-5.1,0.5c-0.8,0.1-1.4,0.4-2.1,0.7
		c-2.1,1.2-4.4,2-6.9,2.2c-3.1,0.2-6.1,0.6-9.2,0.7c-0.3,0-0.6,0-0.9-0.1c-0.7-0.1-1.5-0.1-2.1,0.3c-1.2,0.6-2.4,0.3-3.6,0.1
		c-2.4-0.3-4.7-0.8-7.1-1.4c-0.9-0.2-1.7-0.4-2.6-0.3c-0.3,0-0.6,0-0.6,0.3c-0.1,0.3,0.2,0.4,0.4,0.6c0.9,0.9,2.1,1.4,3.3,1.7
		c2.3,0.7,4.6,1.5,7.1,1.7c1.9,0.1,3.7-0.2,5.5-0.5c0.5-0.1,1-0.2,1.5-0.2c1.4,0,2.7,0,4.1-0.2c0.3,0,0.7-0.1,0.9,0.3
		c-1.3,0.6-2.8,0.6-4.2,0.9c-2.4,0.5-4.8,0.6-7.2,0.8c-1,0.1-2,0.1-2.9,0.1c-0.4-0.1-0.8-0.3-1.2-0.7c-0.5-0.5-1.1-0.6-1.8-0.8
		c-0.8-0.2-1.7-0.3-2.5-0.5c-0.9-0.2-1.8-0.5-2.5-1c-2.2-1.5-4.6-2.4-7.2-3c-1.6-0.4-3-1.2-4.5-1.5c-0.3-0.1-0.6-0.2-0.5-0.7
		c0.4-0.5,0.9-0.8,1.3-1.2c0.8-0.6,1.4-1.4,1.9-2.2c0.8-1.4,0.6-3.1-0.5-4.3c-1.4-1.6-3.3-2.3-5.3-2.5c-3.2-0.4-6.4,0.1-9.5,1.4
		c1.3,0.2,2.5,0.4,3.8,0.2c1.1-0.1,2.2-0.2,3.3-0.2c1,0,2,0,3-0.1c0.6-0.1,1.3-0.1,1.8,0.3c0.3,0.2,0.6,0.4,0.5,0.8
		c-0.3,0.2-0.6,0.1-0.9,0c-0.5-0.1-0.9-0.2-1.4-0.3c-0.2,0-0.5-0.1-0.7,0.1c-0.9,0.8-1.8,0.4-2.7,0.3c-0.7-0.1-1.4-0.1-2.1,0.1
		c-0.8,0.2-1,0.6-0.7,1.3c0.2,0.4,0.2,0.8,0.3,1.2c0,1,0.4,1.2,1.4,1.1c0.2,0,0.4-0.1,0.5,0c0.2,0,0.5,0,0.5,0.3
		c0,0.3-0.2,0.4-0.4,0.5c-0.7,0.3-1.4,0.4-2,0.6c-0.8,0.2-1.5,0.5-1.9,1.3c-0.2,0.3-0.5,0.6-0.8,0.8c-0.4,0.3-0.7,0.6-0.1,1
		c0.1,0.1,0.2,0.2,0.2,0.3c-0.2,0.2-0.5,0.1-0.7,0.2c0.2,0.8,0,1.1-0.6,0.8c-2.2-0.8-4.5-1.2-6.7-2.2c-1.3-0.6-2.6-1.2-4-1.6
		c-0.8-0.2-1-0.7-0.6-1.4c0.7-1.1,0.4-2-0.5-2.8c-1.2-1.1-2.2-2.4-3.3-3.5c-1.3-1.2-2.4-2.5-3.6-3.8c-1.2-1.2-1.8-2.8-2.4-4.4
		c-0.3-0.7-0.7-1.3-1.2-1.8c-0.6-0.6-1-1.3-0.9-2.2c0-0.4,0-0.8-0.1-1.1c-0.3-2.2-0.2-4.4,0.5-6.6c0.4-1.2,1-1.5,2.2-1.3
		c0.8,0.2,1.6,0.1,2.4-0.2c1.6-0.7,3.3-1.1,5.1-1.3c0.1,0,0.2,0,0.3,0c0.3,0,0.7-0.1,0.8,0.3c0.1,0.3-0.4,0.4-0.6,0.5
		c0,0-0.1,0-0.1,0.1c-0.3,0.2-0.9,0.2-0.8,0.6c0.1,0.4,0.7,0.2,1,0.2c1.8-0.1,3.5-0.7,5.1-1.3c4.1-1.5,8.2-3,12.3-4.6
		c2-0.8,4.1-1.6,5.8-3c0.4-0.3,0.9-0.3,1.4-0.4c1-0.2,1.2-0.6,0.8-1.6c-0.2-0.4-0.3-0.7-0.4-1.1c-0.1-0.7,0.4-1.1,1-1
		c0.1,1.3,0.3,2.7,1.3,3.7c0.3,0.2,0.3,0.6,0.4,0.9c0.5,1.2,1.4,2.1,1.9,3.2c0.1,0.4-0.1,0.6-0.5,0.4c-0.1,0-0.1-0.1-0.2-0.1
		c-1.1-0.5-1.1-0.5-1.6,0.7c-0.1,0.2-0.1,0.4-0.4,0.4c-0.2,0-0.4-0.2-0.5-0.3c-0.1-0.1-0.1-0.3-0.3-0.4c-0.2,0.4,0.2,0.9-0.4,1.1
		c-0.1-0.1-0.1-0.1-0.2-0.2c-0.7-0.9-1.8-0.9-2.2,0.1c-0.5,1.2-1.4,1.7-2.5,2.1c-0.2,0.1-0.5,0.2-0.7,0.3c-0.7,0.4-0.9,0.9-0.6,1.7
		c0.1,0.3,0.3,0.5,0.2,0.8c-0.3,0.2-0.5-0.1-0.7-0.3c-0.7-0.5-1.3-1.2-2.1-1.7c1.2,1.4,2.6,2.5,4,3.7c0.5,0.4,1.1,0.8,1,1.6
		c0,0.4,0.2,0.3,0.4,0.2c0.4-0.1,0.7-0.2,1.1-0.2c0.5,0.1,0.7,0.3,0.6,0.8c-0.1,0.9,0.2,1.5,1,2c0.9,0.4,1.8,0.9,2.6,1.4
		c0.6,0.4,1.3,0.9,1.5,1.8c0.1,0.5,0.5,0.6,0.9,0.5c0.5-0.1,0.7-0.5,1-0.8c0.4-0.4,0.8-0.8,1.5-0.4c1.3,0.8,2.9,0.8,4.3,1.2
		c1.6,0.4,3.3,0.6,5,0.7c0.6,0,1.3-0.2,1.9-0.3c0.2,0.2,0.3,0.4,0.4,0.6c0.3,0.5,0.7,0.8,1.4,0.8c0.2,0,0.4,0,0.6,0
		c0.6,0.1,0.7,0.4,0.3,0.9c-0.5,0.5-1.2,0.8-1.9,1.1c-1.3,0.6-2.8,1-4.2,1.5c-0.4,0.1-0.7,0.2-1,0.4c-0.6,0.4-0.7,0.8-0.4,1.6
		c0.3,0.9,0.9,1.3,1.8,1.5C264.7,525.5,265.3,525.5,265.8,525.8z"/>
	<path class="st24" d="M247.8,536.3c0,0.4,0.3,0.4,0.6,0.5c2.7,0.8,5.5,1.7,8.2,2.6c0.9,0.3,1.7,0.8,2.5,1.3
		c1.3,0.9,2.7,1.5,4.3,1.7c1.7,0.2,3.4,0.6,4.6,2c-3.1,0.2-6-0.9-8.8-2c-1.2-0.5-2.3-0.9-3.2-1.9c-0.1-0.1-0.3-0.2-0.5-0.2
		c-1.4,0-2.7-0.7-4-1.1c-0.6,0-1.1,0.3-1.6,0.5c-1,0.5-2,0.6-3,0.1c-0.7-0.3-1.5-0.1-2.2-0.3c-0.1,0-0.2,0-0.2,0
		c-0.8,0.9-1.9,0.6-2.9,0.7c-2.4,0.2-4.7-0.4-7-0.7c-1.4-0.2-2.8-0.5-4.2-1c-0.2-0.3-0.5-0.3-0.8-0.3c-0.2-0.1-0.5-0.1-0.6-0.2
		c-1.4-1-2.9-1.6-4.5-2.3c-0.2-0.1-0.3-0.2-0.4-0.3c0.1-0.1,0-0.2,0-0.3c-1.6-1.7-3.1-3.4-4.6-5.1c-0.2-0.2-0.5-0.6-0.8-0.1
		c-1.3-1.3-2.2-2.9-3-4.5c-0.5-1-0.9-2.1-1.3-3.1c-1.1-2.8-2.7-5.4-3.1-8.4c-0.3-1.9-0.8-3.7-0.8-5.6c0-1.2,0.2-2.4,0.3-3.5
		c0.3-0.3,0.4-0.8,0.4-1.2c0.1-0.4,0-0.8,0.3-1.2c0.1,0,0.2,0,0.3,0c0.5,0,0.7,0.4,0.8,0.8c0.1,0.7,0.6,1,1.3,1
		c1.7,0.1,3.4,0,5.1-0.4c0.9-0.2,1.7-0.5,2.3-1.1c0.4-0.4,0.8-0.6,1.3-0.5c1.7,0.3,3.3-0.2,4.9-0.6c2.2-0.6,4.3-1.3,6.3-2.4
		c0.5-0.3,0.8-0.6,1-1.1c0.2-0.7,0.9-0.8,1.5-0.9c3.8-0.2,7.2-1.8,10.4-3.6c0.7-0.4,1.1-1,1.6-1.5c0.3-0.3,0.5-0.5,0.9-0.2
		c0,0.2,0,0.3,0,0.5c-0.8,0.2-1,0.5-0.8,1.2c0.1,0.4,0.3,0.7,0.5,1.1c0.3,0.6,0.1,1.4-0.6,1.4c-1.1,0.1-1.9,0.7-2.8,1.3
		c-1.9,1.2-4,2-6.1,2.8c-4.4,1.6-8.8,3.3-13.2,4.9c-1.2,0.4-2.5,0.6-3.7,0.5c-0.3,0-0.6,0-0.7-0.3c-0.1-0.4,0.3-0.4,0.5-0.6
		c0.5-0.2,1-0.4,1.6-0.7c-1-0.2-1.9,0-2.7,0.1c-1.4,0.3-2.8,0.6-4,1.3c-0.7,0.3-1.3,0.1-2,0c-0.9-0.2-1.5,0.1-1.8,1
		c-0.4,1.1-0.5,2.2-0.6,3.3c-0.3,1.7,0.3,3.4,0.2,5c0,0.5,0.2,0.9,0.5,1.1c1.2,1,1.6,2.4,2.2,3.7c0.5,1.1,1.1,2.2,1.9,3
		c2.3,2.4,4.5,4.7,6.7,7.1c1,1,1.4,1.2,0.4,2.9c-0.3,0.6-0.3,1,0.4,1.1c1.5,0.4,2.9,1.2,4.3,1.7c1.6,0.6,3.1,1.2,4.8,1.5
		c0.7,0.1,1.3,0.5,1.9,0.7c0.1,0,0.3,0.1,0.4-0.1c0.1-0.1-0.1-0.2-0.1-0.3c-0.1-0.2-0.5-0.3-0.3-0.5c0.2-0.2,0.4,0,0.6,0
		c0.1,0,0.3,0,0.5,0c0.6-0.2,1.3,0.1,1.9,0.1c2.8,0.2,5.3-0.7,7.5-2.3c0.3-0.2,0.5-0.5,0.9-0.4c0.2,0.5-0.2,0.7-0.5,0.9
		c-1.9,1.5-3.9,2.5-6.4,2.5c-0.5,0-0.9,0-1.4,0c-0.2,0-0.6,0-0.7,0.2c-0.1,0.3,0.2,0.4,0.4,0.5c1.6,1,3.2,0.8,4.8-0.1
		c1.1-0.6,2.2-1.1,3.2-1.8C247.3,536.4,247.5,536.2,247.8,536.3z"/>
	<path class="st25" d="M235.5,496c-0.3,0.2-0.5,0.4-0.9,0.5c-0.4,0.3-0.9,0.3-1.3,0.6c-0.1,0.1-0.3,0.1-0.4,0.2
		c-0.5,0-0.9,0.2-1.4,0.3c-0.3,0-0.6,0.1-0.8,0c-0.4-0.1-1-0.1-1.2-0.6c-0.2-0.5,0.2-0.8,0.5-1.2c0.5-0.6,1.1-1,2-1.3
		c-1-0.3-1.8-0.5-2.7-0.7c-0.6-0.1-1.1-0.4-1.5-0.8c-0.6-0.6-1.3-0.7-2.1-0.9c-0.2,0-0.4-0.1-0.6-0.1c-0.4-0.1-0.8-0.2-0.9-0.6
		c0-0.4,0.4-0.6,0.7-0.7c0.8-0.4,1.6-0.8,2.4-1c2.9-0.7,5.5-2.2,7.9-3.9c0.8-0.6,1.7-1.1,2.5-1.8c0.2-0.2,0.6-0.4,0.9-0.2
		c0.2,0.1,0.3,0.3,0.4,0.5c1,1.5,3,1.9,4.5,0.8c1.1-0.8,1.8-1.9,1.8-3.3c0-0.6,0-1.1,0-1.7c0-0.2,0-0.5,0-0.7c0.2-1,1.1-1.3,2-0.8
		c0.7,0.5,1,1.1,1,1.9c0.1,1.6-0.2,3.1-0.8,4.6c-0.3,0.7-0.5,1.4-0.2,2.2c0.2,0.5,0.1,1.1-0.4,1.5c-1.2,1.1-2.2,2.5-3.7,3.4
		c-0.3,0.3-0.7,0.4-0.9,0.8c-0.2,0.2-0.4,0.4-0.7,0.5c-1.7,0.8-3.4,1.8-5.2,2.5C236.2,495.9,235.9,496.1,235.5,496z"/>
	<path class="st9" d="M301.1,535.4c-2.2-0.6-4.4,0-6.7,0.2c-1.3,0.2-2.7,0.2-4,0.7c-0.5,0.2-0.8,0.4-1.2,0.8
		c-0.6,0.7-1.5,0.8-2.4,0.9c-1.3,0.1-2.7,0-3.9,1c0,0-0.1,0.1-0.1,0.1c-1.4-0.1-2.8,0.3-4.2,0.2c-1.5,0-2.9-0.4-4.4-0.8
		c-0.2,0-0.4-0.1-0.6,0c-1.4,0.8-2.7,0.1-4.1-0.2c-2.2-0.4-3.9-1.7-5.4-3.3c-0.4-0.4-1-0.6-1.5-0.9c-0.8-0.4-1.5-0.9-1.7-1.8
		c-0.1-0.6-0.7-1.1-1.1-1.5c-0.5-0.5-0.6-1-0.3-1.7c0.3-0.6,0.6-1.1,1.5-1.3c0.9-0.2,1.8-0.8,2.8-1.2c0.4-0.2,0.9-0.3,1.3-0.3
		c-0.7,0.4-0.7,0.7-0.5,1.5c0.5,1.4,1.5,2.4,2,3.8c0.4,0.9,1.5,1.2,2.4,1.7c0.6,0.3,1.2,0.5,1.8,0.7c0.9,0.3,1.7,0.5,2.7,0.3
		c1.4-0.2,2.8,0.2,4.2,0.3c1.6,0.2,3.3,0.3,4.9,0.6c2.3,0.4,4.6,0.5,6.9,0.4c2.7-0.1,5.5-0.2,8.2-0.8c0.8-0.2,1.7-0.1,2.5-0.1
		c1.2,0.1,2.3-0.1,3.4-0.6c0.2-0.1,0.5-0.3,0.8-0.1c-1,1-2,1.8-3.3,2.3c-0.1-0.5,0.6-0.5,0.6-1C301.5,535.2,301.3,535.6,301.1,535.4
		z"/>
	<path class="st26" d="M249.2,501.9c0.3-0.5,0-1,0.2-1.6c0.5,0.2,0.4,0.9,0.9,1.2c0.3-0.3,0.2-0.7,0.4-1.1c0.2-0.5,0.5-0.7,1-0.4
		c0.2,0.1,0.5,0.2,0.7,0.4c0.3,0.2,0.4,0,0.5-0.3c0.6,0.8,0.9,1.8,1.7,2.6c0.9,1.1,1.9,2,2.6,3.2c0.2,0.3,0.4,0.6,0.5,0.9
		c0.3,0.9,0.9,1.6,1.8,1.8c0.9,0.3,1.5,1,2.2,1.6c0.7,0.9,1.6,1.7,2.4,2.4c-1,0.2-1.9,0.3-2.9,0c-0.4-0.1-0.8-0.3-1.2-0.3
		c-1.6-0.2-2.9-0.9-4.1-2c-0.3-0.3-0.4-0.1-0.5,0.2c-0.1,0.3-0.1,0.5-0.1,0.8c-0.1,0.8-0.2,1.7-0.5,2.4c-0.1,0.2-0.2,0.3-0.1,0.5
		c0.2,0.1,0.3,0,0.5-0.1c0.2-0.1,0.4-0.3,0.7-0.1c0,0.4,0,0.8,0,1.2c-0.7-0.2-1.2,0.2-1.6,0.8c-0.3,0.5-0.7,0.6-1.1,0.7
		c-0.5,0.1-0.9-0.1-0.9-0.6c-0.1-0.9-0.8-1.4-1.5-1.8c-1-0.5-1.9-1.2-3-1.6c-0.5-0.2-1-1.4-0.8-1.9c0.3-0.6,0-0.7-0.5-0.7
		c-0.4,0-0.8,0.1-1.2,0.3c-0.2,0.1-0.4,0.1-0.5,0c-0.2-0.2-0.1-0.3,0-0.5c0.3-0.4-0.1-0.7-0.3-0.9c-0.9-0.8-1.8-1.6-2.7-2.3
		c-0.7-0.6-1.3-1.3-2-1.9c-0.1-0.1-0.3-0.3-0.1-0.5c0.2-0.2,0.4,0,0.5,0.1c0.9,0.7,1.7,1.5,2.6,2.2c0.6,0,0.9,0.5,1.3,0.8
		c1.6,1.1,1.9,1.1,3.1-0.4c0.8-1,1.1-2.2,1.3-3.4C248.9,503.2,248.9,502.5,249.2,501.9z"/>
	<path class="st27" d="M301.1,535.4c0.1-0.1,0.2-0.1,0.3-0.2c0.2-0.1,0.5-0.4,0.6-0.2c0.2,0.3-0.1,0.5-0.3,0.8
		c-0.2,0.2-0.5,0.2-0.5,0.5c-2.2,1.3-4.4,2.2-6.8,3.2c-3.4,1.4-7,1.9-10.5,2.9c-0.5,0.1-1.1,0.1-1.6,0.2c-0.7-0.4-1.4,0.1-2.1,0
		c-0.5,0-1,0.1-1.4,0.1c-1.7-0.1-3.3,0.2-4.9,0.5c-2.2,0.4-4.5,0.3-6.6-0.3c-2.1-0.6-4.2-1-6.1-2c-0.7-0.3-1.2-0.8-1.8-1.3
		c-0.4-0.3-0.4-0.7,0.2-0.9c1-0.3,2-0.2,2.9,0.1c2.5,0.7,5.1,1.2,7.7,1.6c1.2,0.2,2.5,0.5,3.6-0.4c0.3-0.2,0.6-0.2,1-0.2
		c1.4,0.2,2.9,0,4.3,0c2-0.1,4-0.4,5.9-0.6c0.8-0.1,1.6,0,2.4-0.2c1.9-0.4,3.8-1.1,5.4-2.2c0.9-0.6,2.1-0.5,3.1-0.7
		c1.3-0.1,2.6-0.4,4-0.3C300.4,535.8,300.8,535.7,301.1,535.4z"/>
	<path class="st12" d="M235.5,496c2-0.8,4-1.9,5.9-2.8c0.3-0.1,0.6-0.3,0.9-0.4c-0.1,0.6-0.7,0.9-1,1.5c0.5,0.1,0.9-0.2,1.3-0.4
		c1.2-0.7,2.4-1.4,3.6-2.1c0.8-0.5,1.4-1.2,2-1.8c0.2-0.2,0.4-0.5,0.7-0.4c0.4,0.1,0.2,0.5,0.3,0.7c0.2,0.5,0.1,1.1,0.1,1.7
		c-0.3,0-0.5,0-0.7,0.3c-1.6,2-4,2.9-6.3,3.8c-0.9,0.3-1.9,0.6-2.9,1c-0.9,0.4-1.8,0.5-2.7,0.4c-0.5,0-0.9,0.1-1.3,0.3
		c-0.2,0.1-0.4,0.2-0.4,0.3c0.1,1.1-0.9,1.4-1.6,1.7c-2.5,1.2-5.1,2.2-7.9,2.6c-1,0.2-1.9,0.4-2.9,0.1c-0.3-0.1-0.6-0.1-0.8,0.2
		c-1,1.2-2.4,1.4-3.9,1.6c-1.4,0.2-2.7,0.2-4.1,0.2c-0.9,0-1.2-0.3-1.4-1.2c-0.1-0.4-0.3-0.6-0.6-0.8c0.3-0.3,0.6-0.2,0.9-0.1
		c0.7,0.2,1.4,0.1,2.1,0c0.3,0.7,0.9,0.4,1.5,0.4c-0.5-0.3-1.1,0-1.5-0.4c0.5-0.3,1-0.1,1.5-0.1c1.3,0,2.6-0.1,3.9-0.5
		c1.9-0.7,4-0.9,5.9-1.5c2.6-0.7,5.2-1.4,7.7-2.4c0.7-0.3,1.5-0.5,2.2-0.8c0.3-0.1,0.7-0.1,0.6-0.5c-0.1-0.3-0.5-0.2-0.7-0.2
		C235.9,496.1,235.6,496.2,235.5,496z"/>
	<path class="st28" d="M265.8,525.8c-1,0-1.9-0.3-2.9-0.6c-0.3-0.1-0.5-0.2-0.4-0.6c0-0.2-0.1-0.3-0.2-0.5c-0.5-0.9-0.4-1.6,0.6-2
		c1.1-0.5,2.2-0.8,3.3-1.2c1-0.3,2-0.7,2.9-1.2c0.2-0.1,0.3-0.1,0.5-0.3c0.2-0.2,0.5-0.3,0.5-0.6c-0.1-0.3-0.4-0.2-0.7-0.3
		c-1.3,0-1.8-0.5-2-1.7c1.6-0.5,3.3-1,4.9-1.5c1-0.3,2.1,0,3,0.5c1.3,0.8,1.4,1.9,0.3,3c-1.3,1.4-2.7,2.6-4.3,3.6
		c-1.6,1-3.3,2-4.9,3C266.1,525.7,265.9,525.7,265.8,525.8z"/>
	<path class="st29" d="M243.2,492c1-1,2-2,3-2.9c0.9-0.8,1.1-1.1,0.7-2.3c-0.2-0.5,0-1.1,0.2-1.5c0.7-1.6,1-3.2,1-5
		c0-1-0.7-1.5-1.4-1.9c-0.4-0.2-1.1,0.5-1.2,1c0,0.2,0,0.4,0,0.6c-0.5-0.2-0.3-0.6-0.3-0.9c0.2-0.9,0.4-1.7,0.5-2.6
		c0.1-0.9,0.5-1.6,1.1-2.2c0.8-0.7,1.6-0.8,2.5-0.2c0.3,0.2,0.5,0.2,0.6-0.2c0.1-0.3,0.1-0.5,0.2-0.8c0.1-0.4,0.4-0.7,0.9-0.6
		c0.5,0.1,0.6,0.5,0.6,0.9c0,0.2,0,0.5-0.1,0.7c0,1.3,0,2.7-0.1,4c-0.1,0.9,0,0.9,0.9,0.8c0.5-0.1,0.7,0.2,0.5,0.7
		c-0.2,0.6-0.4,1.1-0.5,1.7c-0.3,0.8-0.8,1.5-1.1,2.3c-0.4,0.8-0.7,1.7-1.3,2.4c-0.6,0.8-1.3,1.5-2,2.1c-0.6,0.5-1.1,1-1.4,1.7
		c-0.1,0.2-0.3,0.4-0.5,0.6C245,490.9,244.3,491.7,243.2,492z"/>
	<path class="st11" d="M256,514.1c-0.3,0-0.5,0.2-0.7,0.4c-0.2,0.3-0.5,0.2-0.8,0c-0.3-0.3,0-0.4,0.1-0.6c0.4-0.8,0.5-1.6,0.6-2.5
		c0-0.4,0.1-0.7,0.1-1c0.1-0.7,0.4-0.6,0.8-0.2c1.8,1.8,4.2,2.1,6.5,2.5c0.5,0.1,1-0.2,1.6,0c0.9,0.3,1.3,1,2,1.6
		c0.1,0.1,0.3,0.2,0.2,0.4c-0.1,0.2-0.3,0.2-0.5,0.2c-1.6,0-3.3,0-4.9-0.4c-1.5-0.3-3-0.3-4.6-0.5C256.4,513.9,256.2,514,256,514.1z
		"/>
	<path class="st30" d="M260.3,477c-0.9,0.8-0.8,1.8-0.3,2.7c-0.5,0.1-1,0.3-1.6,0c-0.4-0.2-0.8-0.4-0.9-0.9c-0.1-0.5-0.5-0.7-1-0.6
		c-0.5,0.1-1.3,0.9-1.2,1.2c0.3,1.5-0.5,2.4-1.7,3.1c-0.1,0.1-0.2,0.1-0.3,0.2c-0.1-0.6,0.2-1.1,0.5-1.5c0.2-0.4,0.3-0.8,0.3-1.2
		c0,0,0,0,0,0c0.4-1.4,1.5-2.3,2.7-3c0.4-0.2,0.8-0.3,1.2-0.1c0.6,0.2,1.1,0.3,1.7,0C259.9,476.8,260.1,476.8,260.3,477z"/>
	<path class="st12" d="M246,490.5c0.5-1,1-1.9,1.9-2.6c1.3-1,2.2-2.3,2.9-3.7c0.1-0.2,0.2-0.4,0.4-0.5c-0.6,2.9-2,5.3-4.8,6.7
		C246.2,490.4,246.1,490.5,246,490.5z"/>
	<path class="st5" d="M305,535.4c-0.7,0-1,0.5-1.5,0.8c-1.2,0.9-2.6,1.4-3.9,2.2c0.7-0.9,1.6-1.6,2.6-2.1c0.9-0.5,1.8-1.2,2.5-1.9
		c0.6-0.6,0.6-0.8-0.3-1.2c0.4-0.4,0.9-0.4,1.4-0.5c0.7-0.1,0.5,0.1,0.4,0.5c-0.2,0.6-0.7,1-0.9,1.5
		C305.2,534.9,305,535.1,305,535.4C305,535.4,305,535.4,305,535.4z"/>
	<path class="st12" d="M261.8,510.3c-0.1,0-0.3-0.1-0.3-0.1c-0.6-0.8-1.5-1.1-2.3-1.5c-0.7-0.3-1.1-0.8-1.3-1.4
		c-0.6-1.4-1.5-2.5-2.5-3.6c-0.3-0.3-0.6-0.6-0.7-1.1c1.2,0.8,2.1,1.9,3,3.1c0.8,1,1.8,1.9,2.7,2.8
		C260.9,509.1,261.4,509.6,261.8,510.3z"/>
	<path class="st5" d="M297.8,539.2c-0.2,0-0.5-0.1-0.4-0.3c0.1-0.4,0.5-0.4,0.8-0.5c0.2-0.1,0.4,0.1,0.3,0.3
		C298.4,539,298,539.1,297.8,539.2z"/>
	<path class="st5" d="M294.4,540.5c-0.4,0.2-0.8,0.3-1.2,0.5C293.5,540.6,293.9,540.5,294.4,540.5z"/>
	<path class="st31" d="M197.6,464.9c-0.1,0.2-0.1,0.3-0.2,0.5c-0.2,0.6-0.5,0.8-1.1,0.8c-0.8,0-1.4,0.4-2,0.9
		c-0.9,0.8-1.9,0.8-2.7-0.1c-0.3-0.3-0.6-0.5-1.1-0.5c-0.8,0-1.5-0.3-2-0.9c-0.1-0.1-0.3-0.3-0.5-0.4c-1.4-0.4-2.8-1.1-4.2-1.5
		c-2.5-0.8-5.2-1.1-7.7-2c-0.4-0.2-0.8-0.4-1.3-0.3c-1.4,0.4-2.7,1.2-4.1,1.6c-0.4,0.1-0.4,0.4-0.1,0.7c0.8,0.9,1.8,1.5,2.6,2.2
		c0.3,0.3,0.7,0.1,1.1-0.1c0.8-0.4,2,0.4,2.1,1.3c0,0.2,0,0.4-0.3,0.4c-1.1-0.6-2.3-0.9-3.6-0.6c-0.4,0.1-0.7-0.2-0.9-0.4
		c-0.6-0.7-1.4-1.3-2.1-1.9c-0.2-0.1-0.5-0.3-0.1-0.6c0.7-0.5,0.3-1.2,0.1-1.8c-0.1-0.6-0.6-0.6-1.1-0.6c-0.1,0-0.1,0-0.2-0.1
		c0.1-0.3,0.4-0.2,0.6-0.2c0.5,0.1,1.1,0,1.5,0.2c1.3,0.5,2.3-0.2,3.4-0.6c0.3-0.1,0.7-0.2,1-0.1c0.8,0.2,1.5,0,2.1-0.2
		c0.5-0.2,1-0.5,0.7-1.2c0-0.1,0-0.2,0-0.3c0.1-0.1,0.3,0,0.4,0.1c0.4,0.3,0.8,0.7,1.3,0.9c1.1,0.7,2.4,0.7,3.5,1
		c0.5,0.1,0.9,0.2,1.4,0.5c1.3,0.8,2.6,1.6,3.9,2.2c0.4,0.2,0.8,0.3,1.2,0.3c0.9-0.1,1.7,0.3,2.5,0.7c1.3,0.5,1.9,0.4,2.6-0.7
		c0.4-0.6,1.1-0.4,1.7-0.3C196.8,464,197.1,464.7,197.6,464.9z"/>
	<path class="st32" d="M176.2,467.7c0.4-0.6-0.1-1-0.5-1.3c-0.3-0.3-0.8-0.6-1.1-0.3c-0.7,0.6-1.2,0.3-1.8-0.2
		c-0.7-0.7-1.6-1.2-2.3-2c-0.4-0.4-0.4-0.9,0.1-1c1.4-0.4,2.8-1.2,4.2-1.7c-0.1,0.6-0.3,1.2-0.5,1.7c-0.2,0.7-1.4,1-2.2,0.8
		c-0.2-0.1-0.5-0.4-0.7,0c-0.2,0.3,0.1,0.6,0.4,0.8c0.8,0.5,1.6,0.8,2.5,0.6c0.9-0.1,1.6,0.1,2.2,0.7c1.1,1.2,2.4,1.7,4,1.9
		c1.3,0.1,2.6,0.4,3.5,1.4c0.4,0.4,1,0.7,1.6,1c0.5,0.2,1,0.2,1.6,0c1-0.3,2.1,0,2.8,0.9c0.3,0.5,0.7,0.8,1.2,1.2
		c0.7,0.5,1.1,1.1,1,2c0,0.5-0.1,0.9-0.3,1.4c-0.1-1.4-0.9-2.2-2.2-2.6c-1.1-0.3-2.3-0.4-3.3-1c-0.4-0.3-0.9-0.2-1.3-0.1
		c-0.4,0.1-0.8,0-1.1-0.2c-1.4-1.1-3-1.6-4.7-1.8c-0.1,0-0.3,0-0.4-0.1C178,468.8,176.9,468.6,176.2,467.7z"/>
	<path class="st33" d="M246.9,474.4c-1.2,1.4-1,3.1-1.5,4.7c-0.5-0.4-1-1-1.2-1.6c0.6-1,0.8-2,0.7-3.2c-0.1-0.8-0.3-1.5-0.9-2.1
		c-0.1-0.1-0.2-0.4-0.5-0.3c-0.2,0.1-0.2,0.3-0.3,0.5c-0.2,1.2-0.5,2.4-0.8,3.6c0,0.2-0.1,0.4-0.2,0.5c-0.7,0.2-1.3,0.3-2,0.6
		c-0.1,0.1-0.3,0-0.4-0.1c-0.1-0.3,0.1-0.6,0.2-1c0.3-1,0.2-2.1-0.3-3c-0.7-1.6-2.4-1.8-3.5-0.4c-1.1,1.4-1.1,3.3,0.1,4.4
		c0.4,0.4,0.9,0.6,1.5,0.7c0.3,0,0.6,0,0.9,0.1c0.3,0.2,0.1,0.4-0.1,0.6c-1,1.4-0.9,2.9-0.2,4.4c0.1,0.3,0.4,0.6,0.2,1
		c-0.3,0-0.6,0.1-0.8,0.3c-2.1,1.7-4.3,3.2-6.8,4.4c-1.1,0.5-2.2,1-3.3,1.2c-1,0.2-2,0.7-2.9,1.2c-0.1,0.1-0.4,0.1-0.3,0.4
		c0,0.2,0.3,0.3,0.4,0.4c0.2,0.1,0.4,0.1,0.7,0.1c1,0.2,2,0.5,2.7,1.3c0.6,0.6,1.5,0.5,2.3,0.8c0.6,0.2,1.2,0.3,1.8,0.6
		c-0.9,0.4-1.7,0.9-2.3,1.6c-0.2,0.3-0.6,0.5-0.5,0.9c0.1,0.4,0.5,0.3,0.8,0.4c0.6,0.2,1.1,0,1.6-0.1c0.3-0.1,0.5-0.2,0.8-0.1
		c-0.2,0.6-0.7,0.6-1.2,0.6c-0.4,0.4-1,0.4-1.5,0.5c-0.9,0-1.8,0-2.7,0.1c-1-0.1-2,0.1-3,0.3c-0.9,0.2-1.8-0.2-2.6-0.3
		c-0.9-0.1-1.8-0.1-2.7-0.3c-0.8-0.1-1.5-0.3-2.2-0.6c-0.8-0.4-1.6-0.5-2.5-0.4c-2.1,0.2-4.3,0-6.3-0.4c-1.2-0.2-2.2-1.1-3.1-1.8
		c-0.7-0.5-1.4-1-2-1.5c-1.7-1.5-2.9-3.3-2.9-5.7c0-0.8-0.2-1.6-0.5-2.3c-0.8-1.7-0.4-3.4,0.3-5.1c0.2-0.5,0.6-0.7,1.2-0.6
		c0.8,0.1,1.1-0.1,1.2-1c0.2-1.1-0.1-2.2,0.1-3.3c0.1-0.3,0-0.6,0-0.8c-0.3-1.9,0.6-3.5,1.4-5c0.4-0.9,1.1-1.5,2-1.7
		c0.9-0.3,1.6-0.8,2-1.6c0.6-1,1.5-1.6,2.5-2.2c0.8-0.4,1.1-1,1.1-1.9c0-1,0.4-1.4,1.5-1.4c1.1,0,2.2-0.3,3.3-0.4
		c0.6,0,1.1-0.4,1.2-1.1c0.2-0.8,0.7-1.1,1.4-1.3c0.2,0,0.4-0.1,0.6-0.1c1.7,0,3.1-0.9,4.7-1c3-0.1,5.9,0.3,8.9,0.9
		c1,0.2,1.5,1,2.1,1.6c0.2,0.2,0.1,0.4,0,0.7c-0.2,0.5,0.1,0.8,0.4,1.1c0.7,0.6,1.7,0.9,2.6,1.1c0.8,0.2,1.4,0.6,2,1.2
		c0.8,0.7,1.7,1.5,2.6,2c1.5,0.9,2.2,2.1,2.1,3.9c-0.1,1.3,0.4,2.6,0.8,3.8C245.9,473.7,246.4,474,246.9,474.4z"/>
	<path class="st24" d="M224.1,457c-1.1,0-2,0.6-3.1,0.8c-0.7,0.1-1.4,0.2-2.1,0.3c-0.7,0.1-1.4,0.3-1.5,1.2
		c-0.1,0.7-0.8,1.2-1.6,1.2c-1.2,0-2.3,0.4-3.5,0.3c-0.6,0-1,0.4-0.9,1.1c0.1,1.1-0.3,1.7-1.3,2.3c-1.1,0.6-2,1.4-2.6,2.5
		c-0.3,0.6-0.9,1-1.6,1.2c-1.3,0.3-2.1,1.3-2.5,2.5c0,0,0,0.1,0,0.1c-1.1,1.6-0.8,3.4-0.9,5.1c-0.1,1.1,0.2,2.2-0.1,3.3
		c-0.3,0.8-0.5,1.1-1.3,0.9c-0.7-0.2-1.1,0.1-1.2,0.7c-0.5,1.7-1,3.5,0.1,5.2c0.3,0.4,0.3,1,0.3,1.5c-0.1,2.8,1.2,4.9,3.5,6.4
		c0.9,0.6,1.7,1.2,2.5,1.9c1.2,1,2.6,1.1,4,1.2c1.6,0.1,3.2,0.3,4.8,0c0.5-0.1,1.2,0.1,1.7,0.4c1.1,0.6,2.3,0.7,3.5,0.8
		c1.1,0.1,2.3,0.2,3.4,0.4c0.3,0.1,0.6,0.1,0.9,0c1-0.2,1.9-0.5,2.9-0.3c0.5-0.1,1,0,1.4,0.3c-1.1,0.5-2.3,0.6-3.4,0.7
		c-1.8,0.1-3.4,0.8-5.1,1.2c-1.1,0.3-2.2,0.3-3.3,0.1c-1.9-0.2-3.8-0.6-5.7-0.7c-4.5-0.2-8.5-1.8-11.9-4.9c-1.7-1.5-3.2-3.2-3.7-5.6
		c-0.3-1.3-1.3-2.4-1.5-3.8c-0.2-0.7-0.2-1.3,0.4-1.9c0.4-0.4,0.3-1,0.4-1.5c0.3-1.2,0.5-2.4,0.2-3.6c-0.1-0.7-0.1-1.4,0.1-2
		c0.4-1.4,0.9-2.7,1.3-4c0.1-0.2,0.1-0.3,0.3-0.4c1.1-0.7,1.4-1.9,1.9-3c0.8-1.6,1.8-3.2,2.7-4.8c0.5-1,1.6-1.5,2.3-2.4
		c1.6-1.9,3.8-2.6,6-3.6c1.9-0.9,3.8-1.7,5.7-2.5c0.5-0.2,1-0.4,1.5-0.5c2-0.3,4-0.5,6-0.7c0.8,0,1.5,0,2.3-0.2
		c0.7-0.1,1.4-0.1,2.1,0c0.7,0.1,1.4,0.2,2.1,0.3c0.9,0.4,1.8,0.6,2.7,0.7c1,0.1,1.9,0.4,2.8,0.8c1,0.4,2,0.7,3.1,1
		c1.2,0.3,2.3,0.9,3,2c0.7,0.9,1.5,1.6,2.4,2.1c1.7,1,2.9,2.5,4,4.2c0.7,1.1,1.4,2.3,1.8,3.5c-1.3-0.2-1.7,0-2.3,1.2
		c-0.2,0.4-0.5,0.7-1,0.6c-0.5-0.1-0.5-0.5-0.6-0.9c0-0.3,0-0.5,0-0.8c-0.1-1.4-0.5-2.5-1.9-3.2c-1.7-0.9-3-2.3-4.5-3.4
		c-0.4-0.3-0.8-0.6-1.2-0.8c-1-0.5-1.5-1.3-1.3-2.4c0.1-1-0.3-1.7-1.1-2.3c-1.2-0.8-2.5-1-3.9-1.1c-0.3,0-0.6,0.2-0.7,0.5
		c-0.4,0.8-1.1,0.9-1.9,0.8C227.3,456.9,225.7,456.8,224.1,457z"/>
	<path class="st34" d="M197.6,495.8c-1.2,0.4-2.4,0.8-3.7,0.6c-0.3,0-0.5,0.1-0.7,0.2c-1.1,0.6-2.3,0.5-3.4,1
		c-0.5,0.2-0.9-0.2-1.4-0.5c-0.4-0.3-0.8-0.8-1.4-0.7c-0.3,0-0.5,0.1-0.7,0.3c-0.8,0.7-1.6,0.7-2.3,0c-0.3-0.3-0.6-0.6-1.1-0.6
		c-0.6,0-1,0.3-1,0.9c0,0.7-0.2,0.6-0.6,0.3c-0.4-0.3-0.7-0.7-0.8-1.2c-0.2-0.9-0.9-1.3-1.7-0.7c-0.6,0.5-1.2,0.4-1.8,0.2
		c-0.4-0.1-0.9-0.2-0.5-0.9c0.3-0.5-0.3-0.7-0.6-0.8c-0.5-0.1-1-0.3-1.6-0.2c-0.5,0.1-0.7-0.1-0.7-0.6c0-0.3,0-0.6-0.3-0.7
		c-0.7-0.4-1-1.3-1.8-1.7c-0.2-0.1-0.3-0.3-0.4-0.5c-0.2-0.5-0.3-0.9,0.1-1.3c0.4-0.4,0.9-0.2,1.3,0c0.9,0.5,0.9,0.6,1.4-0.3
		c0.3-0.5,0.6-0.6,1.2-0.5c1.2,0.1,2.4,0,3.6,0c0.2,0,0.4,0,0.5-0.2c0.7-0.6,1.5-0.4,2.3-0.2c0.1,0,0.1,0.1,0.2,0.1
		c0.7,0.1,1.5-0.3,2.1-0.2c0.7,0.1,1.3,0.5,2.1,0.5c1.5,0.1,2.9-0.2,4.4,0.5c0.8,0.4,1.4-0.1,2-1.1c0.1,0.2,0.2,0.3,0.3,0.5
		c0.1,0.3,0.2,0.6,0.4,0.8c0.4,0.8,0.4,1.5-0.1,2c-0.5,0.5-1.1,0.5-1.9,0c-0.2-0.1-0.3-0.3-0.5-0.5c-0.3-0.4-0.6-0.4-1.1-0.2
		c-0.9,0.3-1.8,0.2-2.7,0.2c-0.7,0-1.5,0.1-2.1-0.4c-0.1-0.1-0.4-0.1-0.5,0c-0.8,0.3-1.8,0.2-2.6,0.4c-0.6,0.1-1.1,0-1.6-0.1
		c-0.5-0.1-1-0.2-1.5,0c-1.1,0.4-2.2,0.7-3.3,1.2c-0.1,0-0.1,0.1-0.2,0.1c-0.3,0.2-0.6,0.4-0.5,0.7c0.1,0.3,0.5,0.1,0.7,0.2
		c0.6,0,1.2,0.2,1.5,0.7c0.5,0.9,1.3,1.1,2.1,0.9c0.8-0.1,1.5-0.1,2,0.6c0.2,0.3,0.5,0.3,0.8,0.3c0.4,0,0.8,0,1.1,0.1
		c2.1,0.8,4.3,0.6,6.4,1c0.6,0.1,1.3,0.1,1.9-0.1c0.1,0,0.1-0.1,0.2-0.1c1.8,0,3.4-0.6,5.1-0.8c0.2,0,0.5-0.1,0.7,0.1
		C197.3,495.5,197.5,495.7,197.6,495.8z"/>
	<path class="st12" d="M223,454.6c-0.6,0.3-1.2,0.2-1.8,0.3c-2.8,0.3-5.5,0.7-8,2c-2.5,1.3-5.4,1.9-7.5,3.6
		c-1.8,1.5-3.7,3.1-4.8,5.3c-0.9,1.8-1.9,3.6-2.8,5.4c-0.1,0.1-0.1,0.3-0.3,0.4c-1,0.5-1.1,1.5-1.4,2.4c0,0.1,0,0.2,0,0.2
		c-0.9,1.7-0.9,3.5-0.7,5.4c0.1,1.2-0.3,2.4-0.5,3.6c0,0.2-0.1,0.4-0.2,0.5c-0.6,0.5-0.7,1.1-0.6,1.8c-0.2-0.7-0.5-1.5-0.7-2.2
		c-0.3-0.8-0.5-0.8-1-0.2c-0.4,0.5-0.9,0.6-1.5,0.3c-0.5-0.8-0.5-1.9,0.2-2.6c0.3,0.1,0.6,0.2,0.8,0.3c0.7,0.3,0.9,0.2,1-0.6
		c0.2-2.1,0.5-4.2,0.8-6.3c0.3-2.1,1.4-3.8,2.7-5.4c0.5-0.6,0.9-1.2,1.7-1.4c0.3-0.1,0.5-0.6,0.8-0.9c1-1.4,2.1-2.7,3.6-3.7
		c0.2-0.2,0.5-0.4,0.7-0.6c1.2-1.7,3-2.5,4.8-3.3c2.6-1.1,5.2-2.3,7.8-3.5c0.5-0.2,0.9-0.4,1.4-0.6c0.3-0.1,0.6-0.1,0.9,0
		c0.9,0.3,1.8-0.1,2.7-0.1C221.6,454.7,222.3,454.6,223,454.6z"/>
	<path class="st35" d="M175.1,492.8c-0.1,0-0.1,0-0.2,0c-0.3-0.1-0.8,0.2-0.9-0.2c-0.1-0.4,0.2-0.9,0.6-1.1c1.5-0.6,3-1.3,4.5-1.5
		c0.4-0.1,0.8,0.2,1.2,0.2c1.2,0.2,2.3-0.1,3.4-0.3c0.4-0.1,0.8-0.2,1.2,0.1c0.6,0.5,1.4,0.2,2,0.3c0.6,0,1.2,0,1.9-0.1
		c0.1,0,0.2,0,0.3,0c0.9-0.7,1.3,0.1,1.8,0.6c-0.1,0.1-0.3,0.1-0.4,0c-0.6-0.6-1.3-0.3-2-0.1c-1.1,0.4-2.1,0.1-3.2-0.1
		c-0.9-0.2-1.7-0.1-2.5,0.1c-0.7,0.2-0.7,1.1-0.9,1.7c-0.1,0.5,0.3,0.7,0.7,0.9c0.5,0.3,1,0.5,1.5,0.4c1.4-0.1,2.7-0.1,4-0.6
		c0.9-0.3,1.9-0.4,2.8-0.1c1.2,0.3,2.3,0.6,3.6,0.6c0.4,0,0.8,0.1,1.1,0.3c0.3,0.2,0.6,0.4,0.8,0.8c-0.4,0.3-0.8,0.2-1.1,0
		c-1.1-0.4-2.1-0.1-3,0.4c-0.9,0.4-1.7,0.7-2.7,0.7c-0.2,0-0.4,0-0.5,0.1c-0.8,0.3-1.6,0.2-2.3-0.3c-0.1-0.1-0.3-0.2-0.5-0.2
		c-1.4,0-2.7-0.5-4-0.5c-0.7,0-1.2-0.2-1.7-0.6c-0.2-0.2-0.5-0.4-0.7-0.6c-0.5-0.4-1.1-0.5-1.7-0.1c-0.4,0.3-0.8,0.3-1.1-0.2
		C176.5,492,176.5,492,175.1,492.8z"/>
	<path class="st36" d="M195.9,494c-1.8-0.1-3.5-0.3-5.2-0.8c-0.7-0.2-1.4-0.1-2.1,0.2c-1.3,0.5-2.7,0.5-4.1,0.6
		c-0.8,0.1-1.5-0.3-2.2-0.6c-0.5-0.3-0.7-0.8-0.4-1.3c0.1-0.1,0.2-0.3,0.2-0.4c0.1-1.1,0.9-1.2,1.8-1.3c0.7,0,1.4,0.2,1.9,0.2
		c0.9,0,1.9,0.5,2.9-0.1c0.7-0.4,1.6-0.3,2.3,0.4c0.6,0.3,1.3,0.5,1.8-0.1c0.5-0.6,0.5-1.3,0-2c-0.1-0.2-0.1-0.4-0.1-0.6
		c0.6,0.8,0.9,1.8,1.3,2.7C194.6,491.9,195.3,492.9,195.9,494z"/>
	<path class="st37" d="M191.2,480.8c-0.3,0.8-0.4,1.7-0.2,2.6c0,0.1,0,0.2,0,0.3c-0.3,0.3-0.7,0.4-1.1,0.5c-0.2-0.2-0.3-0.3-0.5-0.5
		c-0.7-0.4-1.4-0.5-2,0.2c-0.1,0.1-0.3,0.2-0.4,0.1l0,0c-0.4-0.5-0.8-1-1.5-1.1c-0.3-0.1-0.6-0.3-0.7-0.7c-0.2-0.8-0.6-1.4-1-2.1
		c-0.4-0.9-0.4-1,0.3-1.6c0.1-0.1,0.2-0.2,0.2-0.2c0.2-0.2,0.4-0.2,0.6-0.3c0.2,0,0.5,0,0.6,0.2c0.5,0.5,1.1,0.4,1.7,0.1
		c0.4-0.2,0.8-0.2,1.2,0c0.7,0.3,1.2,0.1,1.7-0.3c0.4-0.4,0.6-1,1.3-1.1C191.8,478.2,191.7,479.5,191.2,480.8z"/>
	<path class="st38" d="M175.1,492.8c0.3-0.5,0.7-0.8,1.3-0.7c0.6,0.1,0.9,0.5,1,1.1c0.1,0.5,0.4,0.8,0.9,0.3
		c0.6-0.5,1.3-0.3,1.9,0.1c0.3,0.2,0.7,0.5,1,0.8c0.3,0.3,0.7,0.4,1.1,0.4c1.9,0.2,3.9,0.2,5.7,1.1c0.1,0.1,0.3,0.1,0.4,0.1
		c1.4-0.5,3-0.2,4.4-1.1c1-0.6,2.1-0.7,3.3-0.2c0.2,0.1,0.4,0.1,0.7,0.1c0.2,0.2,0.3,0.4,0.5,0.6c-1.9,0.2-3.6,0.8-5.5,1
		c-1.5,0.2-2.9-0.1-4.3-0.2c-1.6,0-3-0.4-4.5-0.7c-0.3-0.1-0.6-0.1-1-0.1c-0.6,0-1.1,0-1.5-0.7c-0.2-0.4-0.7-0.5-1.1-0.4
		c-0.4,0.1-0.8,0.1-1.2,0.1c-0.7,0-1.2-0.2-1.5-0.8C176.3,493,175.8,492.7,175.1,492.8z"/>
	<path class="st11" d="M218.8,529.9c0-0.2-0.2-0.4,0-0.5c0.2-0.1,0.4,0,0.6,0.2c0.7,0.6,1.2,1.2,1.8,1.9c1,1.1,2,2.2,2.9,3.2
		c0.2,0.2,0.6,0.4,0.2,0.7C221.9,534,220.6,531.7,218.8,529.9z"/>
	<path class="st39" d="M190,484.1c0.2-0.4,0.7-0.4,1.1-0.5c0.1,0.4,0.6,0.5,0.8,0.7c0.6,0.7,0.6,1.6,0.4,2.5
		c-0.1-0.1-0.1-0.1-0.2-0.2c-0.3-0.3-0.5-0.7-0.7-1.1c-0.3-0.6-0.7-1.1-1.3-1.4C190.1,484.2,190.1,484.2,190,484.1z"/>
	<path class="st11" d="M211.6,502.4c-0.1,0.6-0.1,1.2-0.2,1.9c0,0.3-0.3,0.5-0.6,0.6c-0.1-0.7,0.2-1.3,0.2-1.9
		C211,502.5,211.3,502.3,211.6,502.4z"/>
	<path class="st11" d="M228.8,498.4c-0.5,0.1-0.9-0.3-1.4-0.3c0.9-0.2,1.8-0.2,2.7,0C229.7,498.2,229.3,498.3,228.8,498.4z"/>
	<path class="st12" d="M231.7,497.6c0.4-0.1,0.9-0.2,1.2-0.6c0.1,0,0.2,0,0.3-0.2c0.5-0.1,0.8-0.5,1.4-0.3c-0.7,0.5-1.4,0.8-2.2,1.1
		C232.1,497.8,231.9,497.9,231.7,497.6z"/>
	<path class="st33" d="M234.6,496.6c-0.5,0.1-0.9,0.2-1.4,0.3c0.4-0.3,0.9-0.5,1.4-0.5C234.6,496.5,234.6,496.5,234.6,496.6z"/>
	<path class="st11" d="M229.7,538.3c0.4-0.3,0.7-0.2,0.8,0.3C230.2,538.5,229.9,538.5,229.7,538.3z"/>
	<path class="st40" d="M190.2,484.3c0.5,0,0.8,0.2,1.1,0.6c0.4,0.6,0.7,1.1,0.9,1.8c-0.1,0-0.2,0-0.3,0
		C191.1,486,190.7,485.1,190.2,484.3z"/>
	<path class="st41" d="M192.1,474.1c-0.1-1.1-0.8-1.7-1.7-2.3c-0.6-0.4-0.8-1.2-1.6-1.5c-0.6-0.2-1.1-0.4-1.7-0.1
		c-0.8,0.4-1.5,0.1-2.2-0.3c-0.6-0.3-1.1-0.7-1.7-1.2c-0.9-0.7-2.1-0.9-3.2-1c-1.3-0.1-2.5-0.5-3.5-1.5c-0.7-0.8-1.5-1.3-2.7-1
		c-1.1,0.3-2.5-0.5-2.9-1.3c-0.1-0.2-0.2-0.4,0-0.6c0.2-0.2,0.4-0.2,0.7-0.1c1.3,0.6,2.2,0.2,2.4-1.2c0.1-0.4,0.3-0.6,0.5-0.9
		c0.4-0.3,0.7,0,1,0.2c1.8,0.7,3.6,1,5.5,1.4c1.1,0.2,2.3,0.5,3.2,0.9c1.5,0.7,3.3,0.8,4.5,2.1c0.4,0.4,0.9,0.6,1.5,0.5
		c0.6,0,1,0.2,1.4,0.7c0.5,0.7,1.6,0.8,2.3,0.1c0.7-0.7,1.5-1.1,2.4-1.1c0.5,0,0.6-0.5,0.9-0.6c0.1,0.6-0.4,0.9-0.8,1
		c-1.8,0.7-2.7,2.2-3.4,3.8C192.8,471.5,192.5,472.8,192.1,474.1z"/>
	<path class="st42" d="M245.7,453.5c0.3-0.4,0.7-0.8,1.2-1c1-0.5,1.6-1.5,2.6-2.2c0.2-0.2,0.2-0.4,0.2-0.7c0-0.3,0-0.6,0.4-0.7
		c0.3,0.1,0.5,0.1,0.8,0.1c0.6-0.1,0.9,0.2,0.8,0.8c-0.2,0.8-0.2,1.5-0.7,2.2c-0.5,0.7-0.4,1.7-0.7,2.5c-0.2,0.5-0.5,0.8-0.7,1.2
		c-0.6,1.4-1.9,2.4-2.5,3.9c0,0-0.1,0.1-0.1,0.1c-1.6-1.2-3.1-2.4-4.7-3.6c-0.2-0.1-0.3-0.3-0.5-0.4c0.1-0.3,0.3-0.3,0.6-0.2
		c0.2,0.1,0.3,0.1,0.5,0.1C244.7,455.8,245.4,455.3,245.7,453.5z"/>
	<path class="st43" d="M191.7,476.8c-0.4,0.5-0.9,0.9-1.3,1.4c-0.5,0.6-1,0.6-1.6,0.3c-0.4-0.2-0.8-0.3-1.3,0
		c-0.6,0.3-1.3,0.4-1.8-0.2c-0.1-0.2-0.3-0.2-0.6-0.2c-0.4,0.1-0.6-0.1-0.9-0.3c-0.2-0.2-0.4-0.5-0.7-0.6c-1.6-0.5-3.2-1.3-5-1.2
		c-0.8,0.1-1.6-0.1-2.3-0.3c-0.5-0.1-0.7-0.5-0.7-1c0-0.1,0.1-0.2,0.2-0.3c0.6,0.5,1.2,0.6,1.9,0.1c0.4-0.3,0.8-0.4,1.3-0.2
		c1.4,0.6,2.9,0.7,4.3,1.3c0.6,0.3,1.1,0.5,1.5,1c0.5,0.6,1.2,0.8,1.9,0.3c0.5-0.3,1-0.5,1.6-0.1c0.8,0.5,1.6,0.5,2.3-0.2
		c0.4-0.4,0.8-0.6,1.4-0.4C191.7,476.4,191.6,476.6,191.7,476.8z"/>
	<path class="st44" d="M245.7,453.5c0.3,2.2-1.6,2.7-3.1,2.1c-0.3-0.1-0.5-0.1-0.7,0c-0.6-0.2-1.3-0.5-1.8-0.9
		c0.7-0.4,1.4,0,1.9,0.3c1,0.5,1.8,0.1,2.6-0.3C245.1,454.6,245.5,454.2,245.7,453.5z"/>
	<path class="st12" d="M227.4,454.4c-0.7,0-1.4,0-2.1,0C226,454.2,226.7,454.2,227.4,454.4z"/>
	<path class="st40" d="M175.7,474.7c0,0.6,0.3,0.9,0.9,0.9c2,0.1,4,0.2,5.9,0.9c0.7,0.3,1.4,0.4,1.9,1.1c0.2,0.2,0.4,0.4,0.7,0.4
		c-0.2,0.1-0.3,0.2-0.5,0.3c-0.3,0.2-0.6,0.1-0.9,0c-1.7-0.6-3.4-1-5.1-1.4c-0.5-0.1-1-0.1-1.5-0.1c-0.7,0-1.3-0.2-1.9-0.6
		c-0.8-0.6-2.1-0.3-2.7,0.5c-0.1,0.2-0.1,0.4,0,0.6c0.2,0.4,0.5,0.6,0.9,0.8c1,0.5,2.1,1,3.1,1.5c1.4,0.5,2.8,1,4.2,1.7
		c0.3,0.1,0.5,0.3,0.8,0.4c0.8,0.5,0.8,0.7,0.3,1.5c-1.3-0.9-1.8-0.9-3.1,0c-0.8,0.5-1.3,0.5-2,0c-0.5-0.4-0.9-0.8-1.4-1.2
		c-0.2-0.1-0.3-0.3-0.3-0.6c0-0.9-0.5-1.5-1.3-1.9c-1.4-0.7-1.7-2-2.2-3.3c-0.2-0.5,0.8-1.4,1.6-1.5c0.7,0,1.3-0.2,1.9-0.5
		C175.2,474.6,175.5,474.5,175.7,474.7z"/>
	<path class="st45" d="M181.8,483.3c0.2-1.1,0.2-1.1-0.9-1.6c-1.4-0.7-2.9-1.3-4.5-1.9c-0.1-0.2-0.3-0.4-0.4-0.6
		c-0.3-0.6-0.1-1.1,0.5-1.2c1-0.2,2-0.5,3-0.6c0.7-0.1,1.5,0,2.1,0.3c0.9,0.4,1.9,0.4,2.8,0.7c-0.7,0.4-0.7,1-0.3,1.6
		c0.4,0.6,0.8,1.3,0.9,2c0,0.3,0.4,0.4,0.6,0.6c-0.5,0.6-1.1,0.7-1.8,0.4c-0.4-0.2-0.9-0.3-1.4,0
		C182.3,483.3,182.1,483.4,181.8,483.3z"/>
	<path class="st40" d="M182.5,483.2c0.3-0.5,0.8-0.4,1.1-0.3c0.8,0.3,1.4,0.1,2.1-0.2c0.8,0,1.2,0.5,1.4,1.2c-1.1,0-2.2-0.2-3.3-0.6
		C183.4,483.1,183,483,182.5,483.2z"/>
	<path class="st40" d="M187.1,483.9c0.3,0,0.3-0.3,0.5-0.4c0.6-0.6,1.3-0.6,1.9,0.1C188.7,483.7,188,484.3,187.1,483.9z"/>
	<path class="st46" d="M175.7,474.7c-0.3,0-0.8,0.5-0.8-0.3c0.3-0.2,0.5-0.5,0.8,0C175.7,474.5,175.7,474.6,175.7,474.7z"/>
	<path class="st47" d="M261,454.3c0.2-0.1,0.2-0.3,0.2-0.5c0-0.3,0.1-0.5,0.5-0.4c0.5,0.2,1,0.1,1.4-0.4c0.5-0.5,1.1-0.5,1.7-0.3
		c0.6,0.2,0.5,0.8,0.5,1.3c0.1,1.1-0.5,2-1.1,2.9c-1.1,1.5-2.2,3-3.3,4.4c0,0,0,0,0,0c-0.9,0.4-1.9,0.8-3,0.6
		c-0.6-0.1-1,0.1-1.3,0.5c-0.9,1.2-2,2.2-2.9,3.3c-0.4,0.6-0.8,1.2-1.5,1.5c-0.5-0.7-1.1-1.5-1.6-2.2c-0.3-0.3-0.5-0.7-0.8-1
		c0.5,0.1,1,0.5,1.6,0c0.2-0.1,0.4,0,0.7,0.1c0.9,0.2,1.3-0.1,1.6-0.9c0.1-0.2,0.1-0.5,0.2-0.7c0.3-0.6,0.3-1.4,1.4-1.6
		c0.8-0.1,1.1-1.3,0.6-2c-0.6-0.8-0.5-0.8,0.3-1.2c1.4-0.6,2.8-1.2,4.1-2.1C260.7,455.5,260.8,454.9,261,454.3z"/>
	<path class="st48" d="M224.1,457c0.7-0.3,1.4-0.2,2.1-0.2c1.1,0,2.1,0.1,3.2,0.2c0.6,0,1-0.2,1.2-0.8c0.1-0.4,0.4-0.6,0.9-0.6
		c1.4,0.2,2.9,0.2,4.1,1.2c0.9,0.6,1.4,1.3,1.1,2.5c-0.2,0.9,0.3,1.8,1.2,2.2c1.5,0.8,2.7,1.9,4,3c0.7,0.6,1.4,1.2,2.3,1.6
		c0.9,0.4,1.2,1.1,1.3,2c0.1,0.6,0.2,1.3,0.2,2c0,0.3,0,0.7,0.4,0.7c0.4,0.1,0.7-0.2,0.8-0.5c0.2-0.6,0.6-0.9,1.1-1.2
		c0.6-0.4,1-0.2,1.4,0.1c0.3,0.4,0.6,0.5,1.1,0.3c0.5-0.2,0.9-0.1,1.2,0.3c0.3,0.4,0.5,0.8,0.2,1.2c-0.1,0.2-0.1,0.4-0.1,0.7
		c0.3,0.9,0,1.8-0.3,2.7c-0.1-0.2-0.1-0.5-0.1-0.7c0-0.3,0-0.7-0.5-0.8c-0.5-0.1-0.6,0.2-0.7,0.6c0,0.1-0.1,0.3-0.1,0.4
		c-0.2,1.1-0.2,1.1-1,0.4c-0.6-0.4-1.3-0.4-2.2,0.2c-0.6-0.1-1.5-0.9-1.7-1.7c-0.2-0.7-0.3-1.3-0.5-2c-0.1-0.6-0.2-1.1-0.2-1.7
		c0.2-1.6-0.7-2.7-2-3.4c-0.9-0.5-1.7-1.1-2.3-1.8c-0.9-1-2.1-1.4-3.3-1.7c-0.8-0.2-1.4-0.7-1.9-1.1c-0.3-0.2-0.4-0.6-0.2-0.9
		c0.3-0.5,0.1-0.7-0.3-1c-0.2-0.1-0.4-0.3-0.5-0.5c-0.2-0.3-0.5-0.5-0.9-0.6C230.2,457.4,227.2,456.8,224.1,457z"/>
	<path class="st49" d="M260.3,477c-0.2,0-0.4,0-0.6,0.1c-0.5,0.3-1,0.3-1.6,0c-0.6-0.3-1,0-1.5,0.2c-1.2,0.6-1.8,1.7-2.5,2.7
		c0.4-1.5-0.1-2.9-0.2-4.4c0.1,0,0.3,0.2,0.4,0.1c0.8-0.6,1.9-0.1,2.8-0.5c0.2-0.1,0.4-0.1,0.5,0.1c0.5,0.8,1.1,0.4,1.7,0.2
		c0.6-0.2,1.2-0.5,1.8-0.7c0.3-0.1,0.7-0.4,0.7-0.7c0.3-1.4,1.1-2.5,2.1-3.4c0,0,0,0,0,0c0.7-0.2,1.4-0.5,2.1-0.7
		c0.8-0.2,1.1-1,1.6-1.5c0.1-0.1,0.2-0.3,0.4-0.4c0.2-0.3,0.5-0.6,0.8-0.8c0.8-0.1,1.6-0.1,2.3-0.7c0.3-0.2,0.6-0.2,0.9,0.1
		c0.3,0.2,0.3,0.5,0.2,0.8c-0.1,0.5-0.2,0.9-0.5,1.3c-0.4,0.3-0.8,0.5-1.2,0.6c-0.8,0.3-1.3,0.8-1.3,1.8c0,0.6-0.3,1-0.8,1.4
		c-0.4,0.3-0.8,0.6-1.3,0.8c-0.6,0.4-1.1,0.9-1.3,1.7c-0.3,1.1-0.9,1.2-1.7,0.4c-0.7-0.7-1.5-0.6-2.3,0.2c-0.3,0.4-0.7,0.7-1.1,1
		C260.6,476.7,260.4,476.9,260.3,477L260.3,477z"/>
	<path class="st50" d="M247,459.8c0-0.8,0.3-1.4,1-1.8c0.4-0.2,0.7-0.6,0.7-1.1c0-0.3,0.2-0.7,0.4-0.9c0.9-0.8,1.1-1.9,1.3-3
		c0.1-0.5,0.2-1,0.5-1.3c0.5-0.6,0.3-1.4,0.6-2.1c0.1-0.2-0.2-0.5-0.5-0.4c-0.4,0.1-0.6,0-0.9-0.2c0.5,0,0.9-0.1,1.2-0.5
		c0.2-0.3,0.5-0.4,0.9-0.4c0.5,0.2,0.8,1,0.4,1.5c-0.5,0.7-0.9,1.5-0.8,2.4c0,0.1,0,0.3-0.1,0.3c-0.8,0.7-0.9,1.8-1.3,2.7
		c-0.3,0.6-0.8,0.9-1.1,1.5c-0.6,1.4-1.2,2.8-1.7,4.3C247.4,460.5,247.3,460.1,247,459.8z"/>
	<path class="st20" d="M252.2,467.4c1.6-1.7,2.9-3.5,4.5-5.1c0.3-0.3,0.7-0.5,1.1-0.3c1,0.3,1.8-0.4,2.8-0.5c0.1,0,0.1,0,0.2,0
		c-0.5,0.6-1.2,0.6-1.9,0.7c-0.4,0.1-0.8,0-1.1,0c-0.9,0-1.4,0.5-1.5,1.4c-0.1,1.3-0.5,1.8-1.8,2.1c-0.4,0.1-0.5,0.4-0.8,0.7
		c-0.7,0.7-1.1,1.5-0.8,2.5C252.6,468.4,252.4,467.9,252.2,467.4z"/>
	<path class="st21" d="M261.3,472.2c0.1,0.5,0,1-0.3,1.4c-0.4,0.6-1.1,0.8-1.7,0.4c-0.6-0.4-1.7-0.3-2.2,0.1
		c-0.3,0.3-0.6,0.6-1.1,0.7c-0.9,0.3-1.3,0-1.7-0.7c-0.7-1.1-0.3-2.3-0.5-3.5c-0.1-0.6-0.2-1.2-0.4-1.8c-0.4-1.2,0.1-1.9,1.3-2
		c0.8-0.1,1.2-0.6,1.4-1.3c0.3-0.7,0.5-1.4,1-2c0.5-0.8,0.9-0.9,1.8-0.6c0.4,0.1,0.8,0.1,1-0.2c0.8-1.1,1.9-1.5,3.1-1.9
		c-0.1,0.5-0.4,0.6-0.7,0.9c-0.6,0.5-1.3,1-1.5,1.8c-0.1,0.3-0.3,0.5-0.7,0.3c-0.4-0.2-0.7-0.2-1,0.3c-0.7,1.2-1.9,2-2.5,3.4
		c-0.2,0.6-0.9,0.7-1.4,0.8c-1.1,0.2-1.2,0.4-0.9,1.5c0.1,0.3,0.2,0.7,0.2,1c0.1,0.5,0.1,0.9-0.2,1.3c-0.3,0.5-0.2,0.9,0.2,1.3
		c1,0.9,1.3,0.9,2.6,0.2C258.5,472.9,259.9,472.4,261.3,472.2z"/>
	<path class="st51" d="M271.5,468.7c0.1-0.4,0.3-0.8,0.4-1.3c0.1-0.2,0.2-0.5-0.1-0.7c-0.3-0.2-0.6-0.2-0.9,0.1
		c-0.6,0.6-1.4,0.7-2.2,0.4c0.1-0.1,0.2-0.2,0.3-0.3c0.3-0.3,0.5-0.6,0.8-0.9c0.2,0,0.4-0.1,0.4-0.2c0.2-0.8,0.9-1,1.4-1.4
		c0.7-0.4,1.5-0.7,2.3-0.8c0.5-0.1,0.6,0.6,0.8,1c0.1,0.2,0,0.4,0.1,0.7c-0.1,0.1-0.2,0.3-0.3,0.4c-0.4,1.5-1.9,2-2.7,3.1l0,0
		C271.7,468.8,271.6,468.8,271.5,468.7z"/>
	<path class="st52" d="M271.5,468.7c0.1,0,0.2,0,0.3,0c0,0.1-0.1,0.2-0.1,0.3c-0.9,0.4-1.5,1-2,1.9c-0.4,0.7,0.2,0.9,0.5,1.3
		c0,0.7-0.6,0.8-1.1,0.8c-1.1,0-1.8,0.5-2.5,1.3c-0.3,0.3-0.5,0.7-0.5,1.2c0,0.3-0.1,0.6-0.3,0.8c-0.4,0-0.7-0.1-1.1-0.1
		c-0.3,0.2-0.6,0.1-0.8-0.1c-0.5-0.4-0.9-0.3-1.5-0.1c-0.6,0.2-1.1,0.7-1.8,0.6c0.6-0.5,1-1.1,1.6-1.5c0.8-0.5,1.5-0.4,2.1,0.3
		c0.2,0.2,0.3,0.5,0.6,0.4c0.4-0.1,0.6-0.4,0.6-0.7c0.1-1,0.8-1.6,1.7-2.1c0.4-0.2,0.8-0.6,1.2-0.9c0.4-0.3,0.5-0.7,0.5-1.1
		c-0.1-1,0.5-1.5,1.3-1.8C270.7,469.1,271.1,468.9,271.5,468.7z"/>
	<path class="st8" d="M271.9,468.7c0.5-0.6,0.9-1.3,1.7-1.6c0.3-0.1,0.4-0.4,0.5-0.7c0.1-0.3,0.3-0.5,0.5-0.7c0.4,1.4-0.2,2-1.5,2.3
		C272.6,468.1,272.4,468.7,271.9,468.7z"/>
	<path class="st53" d="M260.6,476.7c0.6-0.3,1.2-0.5,1.8-0.8c0.5-0.3,1-0.4,1.5,0.1c0.2,0.2,0.5,0.3,0.8,0.3
		c-0.3,0.3-0.6,0.5-0.9,0.8c-0.6,0.5-1.2,0.6-1.9,0.2c-0.5-0.3-1.1-0.5-1.6-0.2C260.3,476.8,260.4,476.7,260.6,476.7z"/>
	<path class="st53" d="M265.8,476.3c0-1.3,0.7-2.3,1.8-3c0.4-0.2,0.7-0.4,1.1-0.4c0.6,0,1.1-0.2,1.5-0.8c0.4,0.2,0.3,0.4,0,0.6
		c-0.3,0.2-0.6,0.3-1,0.3c-1.6,0-2.7,0.9-2.9,2.5C266.3,476.1,266.1,476.3,265.8,476.3z"/>
	<path class="st51" d="M268,468c-0.3,0.6-0.8,1-1,1.6c-0.1,0.2-0.3,0.4-0.6,0.5c-0.9,0.1-1.6,0.5-2.5,0.6c0.3-0.3,0.7-0.4,1.1-0.5
		c1.1-0.3,2-0.9,2.6-1.9C267.7,468,267.9,468,268,468z"/>
	<path class="st54" d="M247.7,534.2c-0.7,0.5-1.5,0.9-2.2,1.4c-2.2,1.3-4.6,1.8-7.2,1.4c-0.3-0.1-0.7,0.1-0.9-0.2
		c-1.1-0.8-1.1-0.8,0-1.5c0.3-0.2,0.6-0.4,0.7-0.7c0.3-0.8,0.9-1.1,1.7-1.2c0.7-0.2,1.4-0.3,2-0.5c0.2-0.1,0.5-0.1,0.5-0.4
		c-0.1-0.3-0.4-0.2-0.6-0.2c-0.1,0-0.3,0.1-0.4,0.1c-0.8,0.2-1.4-0.3-1.4-1.1c0-0.5,0-1-0.3-1.5c-0.4-0.7-0.1-1.2,0.7-1.4
		c1.2-0.4,2.4-0.1,3.6,0.1c0.4,0.1,0.8,0.1,1.2-0.3c0.3-0.4,0.8-0.3,1.1-0.2c0.7,0.1,1.4,0.4,2.1,0.6c1.5,0.4,2.5,2.1,1.8,3.4
		C249.4,532.8,248.6,533.6,247.7,534.2z"/>
	<path class="st55" d="M222.9,513.8c-0.3-0.9,0.3-1.1,1-1.4c1.3-0.5,2.7-1.1,4-1.6c0.6-0.2,0.9-0.6,0.9-1.2c0-0.2,0.1-0.3,0.1-0.5
		c0.2-1.6,1.8-1.7,2.8-0.8c0.2,0.2,0.5,0.4,0.7,0.7c0.5,0.7,0.4,1.6,0.5,2.3c0.1,1.2,0.2,2.4-0.1,3.6c-0.5,2.3-1.8,3-4,2.3
		c-0.2-0.1-0.4-0.1-0.6-0.2c-1.8-0.8-3.3-1.8-5-2.9C223.1,514.1,222.9,514,222.9,513.8z"/>
	<path class="st5" d="M247.7,534.2c0.5-0.5,0.9-1,1.4-1.5c1.3-1.3,1.2-2.7-0.3-3.8c-0.2-0.1-0.4-0.3-0.6-0.5
		c-0.2-0.7-0.8-0.9-1.4-0.9c-2.5,0.2-5,0.1-7.5,0.4c-1.3,0.2-2.6,0-4.1-0.4c1.7-0.8,3.3-1.3,5-1.5c2.7-0.4,5.4-0.4,8,0.6
		c1.4,0.5,2.5,1.4,3.2,2.7c0.7,1.3,0.6,2.6-0.2,3.9c-0.8,1.3-2,2.3-3.2,3.2c-1.6,1-3.1,1.9-4.8,2.6c-1.6,0.7-3.1,0.2-4.5-0.8
		c-0.3-0.2-0.3-0.5,0.1-0.6c0.4-0.1,0.7-0.2,1.1-0.1c2.5,0.2,4.7-0.7,6.7-2.1C246.9,535,247.3,534.6,247.7,534.2z"/>
	<path class="st56" d="M249.2,501.9c0,1.6-0.3,3.2-0.9,4.6c-0.4,0.8-1,1.5-1.7,2c-0.4,0.2-0.7,0.2-1.1,0c-0.9-0.4-1.6-1.1-2.4-1.7
		c0-0.2-0.1-0.4-0.2-0.6c-0.6-1-0.4-1.7,0.6-2.2c0.2-0.1,0.5-0.2,0.7-0.3c1-0.4,1.9-0.8,2.3-2c0.2-0.7,0.8-1,1.6-0.9
		C248.7,501,249.2,501.2,249.2,501.9z"/>
	<path class="st57" d="M228,516.8c0.5,0.1,1,0.3,1.5,0.4c1.2,0.3,2.2-0.2,2.7-1.3c0.3-0.6,0.4-1.3,0.5-2c0.1-1.7-0.1-3.3-0.3-5
		c0-0.4-0.4-1,0-1.1c0.5-0.1,0.4,0.6,0.5,0.9c0.6,1.8,0.4,3.7,0.4,5.6c0,0.4,0,0.9,0.3,1.3c0.4-0.3,0.3-1,0.8-1.3
		c0.5,0.5,0.3,1,0.3,1.6c0,0.3-0.1,0.6-0.2,1c-0.2,1-0.5,2-1.5,2.5c-1.2,0.6-2.4,1.2-3.8,1c-0.5-0.1-1.1-0.3-0.8-1.1
		c0.1-0.4-0.1-0.6-0.4-0.7c-0.5-0.2-1.1-0.4-1.6-0.5c-0.2-0.5,0.2-0.7,0.5-0.8C227.3,517,227.6,516.9,228,516.8z"/>
	<path class="st58" d="M228,516.8c-0.2,0.3-0.5,0.4-0.8,0.5c-0.4,0.1-0.8,0.2-0.9,0.8c-2-0.9-3.9-2-5.5-3.5
		c-1.2-1.1-2.2-2.4-2.9-4.2c1.6,1.4,3.3,2.4,4.9,3.4C224.6,514.7,226.2,515.9,228,516.8z"/>
	<path class="st59" d="M244.2,477.6c0.5,0.4,0.9,0.9,1.2,1.5c0,0.3-0.1,0.6,0.1,0.9c-0.1,1.1,0.2,2.2-0.3,3.3
		c-0.9,2.1-3.4,3.2-5.3,2.1c-0.7-0.4-0.9-1-1.3-1.6c-0.4-0.9-0.9-1.7-0.9-2.7c-0.1-1.2,0.3-2.2,1-3.2c0.3-0.5,0.7-0.7,1.2-0.9
		c0.8-0.1,1.5-0.6,2.3-0.5C243.1,476.4,243.7,476.8,244.2,477.6z"/>
	<path class="st11" d="M263.3,529.6c0,0-0.1,0.1-0.2,0.1c-0.3-0.1-0.6-0.2-0.7-0.5c-0.1-0.2,0.1-0.2,0.2-0.3
		C263,528.9,263.2,529.2,263.3,529.6z"/>
	<path class="st24" d="M215,502.2c0.6,0,1.3-0.1,2,0.3c-0.6,0.5-1.3,0.3-1.9,0.2C214.7,502.7,214.9,502.4,215,502.2L215,502.2z"/>
	<path class="st60" d="M212.1,491.9c-1.6,1.9-4.8,2.1-6.5,0.3c-1.7-1.8-1.2-4.8,0.9-6.1c0.7-0.4,1.5-0.5,2.2-0.9
		c0.6-0.1,1,0.2,1.5,0.4c0.1,0.1,0.1,0.1,0.2,0.2c0.9,0.8,1.2,1.8,1.1,3c0,0.6,0.1,1.2-0.1,1.8C211.3,491.3,211.5,491.7,212.1,491.9
		z"/>
	<path class="st61" d="M223.9,483.2c0.4-0.3,0.9-0.5,0.5-1.2c-0.2-0.3,0.1-0.6,0.3-0.8c0.2-0.2,0.6-0.2,0.9-0.1c0,0,0,0,0.1,0
		c0.6,0.4,1.1,1.1,1.9,0.9c1.1-0.4,1.9-1.1,2.5-2.1c0.2-0.3,0.4-0.6,0.6-0.9c0.2-0.2,0.4-0.3,0.7-0.2c0.3,0.1,0.2,0.3,0.2,0.5
		c-0.1,2.4-3.1,4.6-5.3,3.8c-0.3-0.1-0.4,0-0.5,0.2c-0.6,1-1.4,1.4-2.5,1.5c-1.8,0.2-3.6,0.3-5.2-0.9c-0.4-0.3-0.7-0.7-1-1
		c-0.3-0.4-0.3-0.9,0.1-1.3c0.3-0.4,0.7-0.3,1.1-0.2c0.3,0.1,0.6,0.3,0.8,0.5c0.9,0.8,2,1.1,3.2,1.3
		C222.8,483.3,223.3,483.3,223.9,483.2z"/>
	<path d="M210.2,485.6c-0.5,0-1-0.2-1.5-0.4c-1-0.9-1.5-2-1.2-3.4c0.1-0.5,0.1-1.1,0.3-1.6c0.8-1.7,2.9-2,4-0.5
		c0.4,0.5,0.6,1,0.8,1.6c0.1,0.5,0.1,1,0,1.5C212.4,484.1,211.8,485.3,210.2,485.6z"/>
	<path d="M239.9,477c-0.3,0.4-0.7,0.7-1.2,0.9c-1.5,0.1-2.6-0.3-3.2-1.8c-0.7-1.7,0.5-4.2,1.9-4.5c1-0.2,1.9,0.1,2.4,1
		C240.5,474,240.6,475.5,239.9,477z"/>
	<path class="st29" d="M244.2,477.6c-0.6-0.5-1.2-0.9-2-1.1c0.2-1.6,0.6-3.1,1-4.6c0.1-0.4,0.3-0.5,0.7-0.2c1.4,1.3,1.7,4.1,0.6,5.6
		C244.4,477.4,244.3,477.5,244.2,477.6z"/>
	<path class="st62" d="M212.1,491.9c-1.1,0-1,0-0.9-1.1c0.2-1.2,0.2-2.4-0.1-3.6c-0.1-0.5-0.7-0.8-0.7-1.4
		C213.1,486.6,214,489.8,212.1,491.9z"/>
	<path class="st48" d="M242,467.1c0.1-0.2-0.1-0.5,0.3-0.6c0.3,0,0.8,0.8,0.8,1.2c0,0.3-0.1,0.6-0.4,0.5
		C242.1,468.1,242.1,467.5,242,467.1z"/>
	<path class="st24" d="M223.9,483.2c-0.6,0.3-1.1,0.2-1.7,0C222.8,483.2,223.3,483.2,223.9,483.2z"/>
	<path class="st24" d="M212.7,482.7c0-0.5,0-1,0-1.5C212.9,481.7,212.9,482.2,212.7,482.7z"/>
	<path class="st46" d="M184.5,478.5c-1.1,0-2.1-0.2-3.2-0.6c-0.7-0.3-1.5-0.2-2.3-0.1c-0.7,0.1-1.4,0.4-2.1,0.4
		c-0.7,0-0.9,0.4-0.6,1.1c0.1,0.2,0.1,0.4,0.2,0.6c-1.1-0.5-2.1-1.1-3.3-1.6c-0.6-0.2-0.7-0.8-1.1-1.2c-0.2-0.1,0.1-0.3,0.2-0.4
		c0.6-0.5,1.3-0.9,2.1-1c0.3,0,0.6,0.1,0.8,0.3c0.6,0.5,1.3,0.8,2.1,0.7c1.5-0.1,2.8,0.5,4.2,0.7c1.1,0.2,2.1,0.7,3.2,0.9
		C184.6,478.4,184.6,478.4,184.5,478.5z"/>
	<path class="st63" d="M211.5,480.7c-0.1,0.5-0.3,0.9-0.9,0.9c-0.5,0-0.8-0.3-0.8-0.8c0-0.6,0.3-0.9,0.9-0.9
		C211.2,479.9,211.4,480.2,211.5,480.7z"/>
	<path class="st64" d="M239.6,473.3c-0.1,0.5-0.4,0.9-1,0.9c-0.5,0-0.9-0.3-0.8-0.9c0-0.6,0.3-0.9,0.9-0.9
		C239.3,472.4,239.5,472.8,239.6,473.3z"/>
</g>
</svg>
