0
SECTION
2
HEADER
9
$INSUNITS
70
4
0
ENDSEC
0
SECTION
2
TABLES
0
TABLE
2
LTYPE
0
LTYPE
72
65
70
64
2
CONTINUOUS
3
______
73
0
40
0
0
ENDTAB
0
TABLE
2
LAYER
0
ENDTAB
0
ENDSEC
0
SECTION
2
ENTITIES
0
LINE
8
front_outsideCutPath
10
0
20
66
11
0
21
52.5
0
LINE
8
front_outsideCutPath
10
0
20
52.5
11
4
21
52.5
0
LINE
8
front_outsideCutPath
10
4
20
52.5
11
4
21
40.5
0
LINE
8
front_outsideCutPath
10
4
20
40.5
11
0
21
40.5
0
LINE
8
front_outsideCutPath
10
0
20
40.5
11
0
21
28.5
0
LINE
8
front_outsideCutPath
10
0
20
28.5
11
4
21
28.5
0
LINE
8
front_outsideCutPath
10
4
20
28.5
11
4
21
16.5
0
LINE
8
front_outsideCutPath
10
4
20
16.5
11
0
21
16.5
0
LINE
8
front_outsideCutPath
10
0
20
16.5
11
0
21
4.5
0
LINE
8
front_outsideCutPath
10
0
20
4.5
11
0
21
3
0
LINE
8
front_outsideCutPath
10
0
20
3
11
18
21
3
0
LINE
8
front_outsideCutPath
10
18
20
3
11
18
21
7
0
LINE
8
front_outsideCutPath
10
18
20
7
11
30
21
7
0
LINE
8
front_outsideCutPath
10
30
20
7
11
30
21
3
0
LINE
8
front_outsideCutPath
10
30
20
3
11
42
21
3
0
LINE
8
front_outsideCutPath
10
42
20
3
11
42
21
7
0
LINE
8
front_outsideCutPath
10
42
20
7
11
54
21
7
0
LINE
8
front_outsideCutPath
10
54
20
7
11
54
21
3
0
LINE
8
front_outsideCutPath
10
54
20
3
11
66
21
3
0
LINE
8
front_outsideCutPath
10
66
20
3
11
66
21
7
0
LINE
8
front_outsideCutPath
10
66
20
7
11
78
21
7
0
LINE
8
front_outsideCutPath
10
78
20
7
11
78
21
3
0
LINE
8
front_outsideCutPath
10
78
20
3
11
90
21
3
0
LINE
8
front_outsideCutPath
10
90
20
3
11
90
21
7
0
LINE
8
front_outsideCutPath
10
90
20
7
11
102
21
7
0
LINE
8
front_outsideCutPath
10
102
20
7
11
102
21
3
0
LINE
8
front_outsideCutPath
10
102
20
3
11
114
21
3
0
LINE
8
front_outsideCutPath
10
114
20
3
11
114
21
7
0
LINE
8
front_outsideCutPath
10
114
20
7
11
126
21
7
0
LINE
8
front_outsideCutPath
10
126
20
7
11
126
21
3
0
LINE
8
front_outsideCutPath
10
126
20
3
11
138
21
3
0
LINE
8
front_outsideCutPath
10
138
20
3
11
138
21
7
0
LINE
8
front_outsideCutPath
10
138
20
7
11
150
21
7
0
LINE
8
front_outsideCutPath
10
150
20
7
11
150
21
3
0
LINE
8
front_outsideCutPath
10
150
20
3
11
162
21
3
0
LINE
8
front_outsideCutPath
10
162
20
3
11
168
21
3
0
LINE
8
front_outsideCutPath
10
168
20
3
11
168
21
16.5
0
LINE
8
front_outsideCutPath
10
168
20
16.5
11
164
21
16.5
0
LINE
8
front_outsideCutPath
10
164
20
16.5
11
164
21
28.5
0
LINE
8
front_outsideCutPath
10
164
20
28.5
11
168
21
28.5
0
LINE
8
front_outsideCutPath
10
168
20
28.5
11
168
21
40.5
0
LINE
8
front_outsideCutPath
10
168
20
40.5
11
164
21
40.5
0
LINE
8
front_outsideCutPath
10
164
20
40.5
11
164
21
52.5
0
LINE
8
front_outsideCutPath
10
164
20
52.5
11
168
21
52.5
0
LINE
8
front_outsideCutPath
10
168
20
52.5
11
168
21
64.5
0
LINE
8
front_outsideCutPath
10
168
20
64.5
11
168
21
66
0
LINE
8
front_outsideCutPath
10
168
20
66
11
150
21
66
0
LINE
8
front_outsideCutPath
10
150
20
66
11
150
21
62
0
LINE
8
front_outsideCutPath
10
150
20
62
11
138
21
62
0
LINE
8
front_outsideCutPath
10
138
20
62
11
138
21
66
0
LINE
8
front_outsideCutPath
10
138
20
66
11
126
21
66
0
LINE
8
front_outsideCutPath
10
126
20
66
11
126
21
62
0
LINE
8
front_outsideCutPath
10
126
20
62
11
114
21
62
0
LINE
8
front_outsideCutPath
10
114
20
62
11
114
21
66
0
LINE
8
front_outsideCutPath
10
114
20
66
11
102
21
66
0
LINE
8
front_outsideCutPath
10
102
20
66
11
102
21
62
0
LINE
8
front_outsideCutPath
10
102
20
62
11
90
21
62
0
LINE
8
front_outsideCutPath
10
90
20
62
11
90
21
66
0
LINE
8
front_outsideCutPath
10
90
20
66
11
78
21
66
0
LINE
8
front_outsideCutPath
10
78
20
66
11
78
21
62
0
LINE
8
front_outsideCutPath
10
78
20
62
11
66
21
62
0
LINE
8
front_outsideCutPath
10
66
20
62
11
66
21
66
0
LINE
8
front_outsideCutPath
10
66
20
66
11
54
21
66
0
LINE
8
front_outsideCutPath
10
54
20
66
11
54
21
62
0
LINE
8
front_outsideCutPath
10
54
20
62
11
42
21
62
0
LINE
8
front_outsideCutPath
10
42
20
62
11
42
21
66
0
LINE
8
front_outsideCutPath
10
42
20
66
11
30
21
66
0
LINE
8
front_outsideCutPath
10
30
20
66
11
30
21
62
0
LINE
8
front_outsideCutPath
10
30
20
62
11
18
21
62
0
LINE
8
front_outsideCutPath
10
18
20
62
11
18
21
66
0
LINE
8
front_outsideCutPath
10
18
20
66
11
6
21
66
0
LINE
8
front_outsideCutPath
10
6
20
66
11
0
21
66
0
LINE
8
left_outsideCutPath
10
175
20
66
11
175
21
52.5
0
LINE
8
left_outsideCutPath
10
175
20
52.5
11
171
21
52.5
0
LINE
8
left_outsideCutPath
10
171
20
52.5
11
171
21
40.5
0
LINE
8
left_outsideCutPath
10
171
20
40.5
11
175
21
40.5
0
LINE
8
left_outsideCutPath
10
175
20
40.5
11
175
21
28.5
0
LINE
8
left_outsideCutPath
10
175
20
28.5
11
171
21
28.5
0
LINE
8
left_outsideCutPath
10
171
20
28.5
11
171
21
16.5
0
LINE
8
left_outsideCutPath
10
171
20
16.5
11
175
21
16.5
0
LINE
8
left_outsideCutPath
10
175
20
16.5
11
175
21
4.5
0
LINE
8
left_outsideCutPath
10
175
20
4.5
11
175
21
3
0
LINE
8
left_outsideCutPath
10
175
20
3
11
180.5
21
3
0
LINE
8
left_outsideCutPath
10
180.5
20
3
11
180.5
21
7
0
LINE
8
left_outsideCutPath
10
180.5
20
7
11
192.5
21
7
0
LINE
8
left_outsideCutPath
10
192.5
20
7
11
192.5
21
3
0
LINE
8
left_outsideCutPath
10
192.5
20
3
11
204.5
21
3
0
LINE
8
left_outsideCutPath
10
204.5
20
3
11
204.5
21
7
0
LINE
8
left_outsideCutPath
10
204.5
20
7
11
216.5
21
7
0
LINE
8
left_outsideCutPath
10
216.5
20
7
11
216.5
21
3
0
LINE
8
left_outsideCutPath
10
216.5
20
3
11
228.5
21
3
0
LINE
8
left_outsideCutPath
10
228.5
20
3
11
228.5
21
7
0
LINE
8
left_outsideCutPath
10
228.5
20
7
11
240.5
21
7
0
LINE
8
left_outsideCutPath
10
240.5
20
7
11
240.5
21
3
0
LINE
8
left_outsideCutPath
10
240.5
20
3
11
252.5
21
3
0
LINE
8
left_outsideCutPath
10
252.5
20
3
11
252.5
21
7
0
LINE
8
left_outsideCutPath
10
252.5
20
7
11
264.5
21
7
0
LINE
8
left_outsideCutPath
10
264.5
20
7
11
264.5
21
3
0
LINE
8
left_outsideCutPath
10
264.5
20
3
11
270
21
3
0
LINE
8
left_outsideCutPath
10
270
20
3
11
270
21
16.5
0
LINE
8
left_outsideCutPath
10
270
20
16.5
11
274
21
16.5
0
LINE
8
left_outsideCutPath
10
274
20
16.5
11
274
21
28.5
0
LINE
8
left_outsideCutPath
10
274
20
28.5
11
270
21
28.5
0
LINE
8
left_outsideCutPath
10
270
20
28.5
11
270
21
40.5
0
LINE
8
left_outsideCutPath
10
270
20
40.5
11
274
21
40.5
0
LINE
8
left_outsideCutPath
10
274
20
40.5
11
274
21
52.5
0
LINE
8
left_outsideCutPath
10
274
20
52.5
11
270
21
52.5
0
LINE
8
left_outsideCutPath
10
270
20
52.5
11
270
21
64.5
0
LINE
8
left_outsideCutPath
10
270
20
64.5
11
270
21
66
0
LINE
8
left_outsideCutPath
10
270
20
66
11
264.5
21
66
0
LINE
8
left_outsideCutPath
10
264.5
20
66
11
264.5
21
62
0
LINE
8
left_outsideCutPath
10
264.5
20
62
11
252.5
21
62
0
LINE
8
left_outsideCutPath
10
252.5
20
62
11
252.5
21
66
0
LINE
8
left_outsideCutPath
10
252.5
20
66
11
240.5
21
66
0
LINE
8
left_outsideCutPath
10
240.5
20
66
11
240.5
21
62
0
LINE
8
left_outsideCutPath
10
240.5
20
62
11
228.5
21
62
0
LINE
8
left_outsideCutPath
10
228.5
20
62
11
228.5
21
66
0
LINE
8
left_outsideCutPath
10
228.5
20
66
11
216.5
21
66
0
LINE
8
left_outsideCutPath
10
216.5
20
66
11
216.5
21
62
0
LINE
8
left_outsideCutPath
10
216.5
20
62
11
204.5
21
62
0
LINE
8
left_outsideCutPath
10
204.5
20
62
11
204.5
21
66
0
LINE
8
left_outsideCutPath
10
204.5
20
66
11
192.5
21
66
0
LINE
8
left_outsideCutPath
10
192.5
20
66
11
192.5
21
62
0
LINE
8
left_outsideCutPath
10
192.5
20
62
11
180.5
21
62
0
LINE
8
left_outsideCutPath
10
180.5
20
62
11
180.5
21
66
0
LINE
8
left_outsideCutPath
10
180.5
20
66
11
175
21
66
0
LINE
8
top_outsideCutPath
10
281
20
102
11
281
21
96.5
0
LINE
8
top_outsideCutPath
10
281
20
96.5
11
277
21
96.5
0
LINE
8
top_outsideCutPath
10
277
20
96.5
11
277
21
84.5
0
LINE
8
top_outsideCutPath
10
277
20
84.5
11
281
21
84.5
0
LINE
8
top_outsideCutPath
10
281
20
84.5
11
281
21
72.5
0
LINE
8
top_outsideCutPath
10
281
20
72.5
11
277
21
72.5
0
LINE
8
top_outsideCutPath
10
277
20
72.5
11
277
21
60.5
0
LINE
8
top_outsideCutPath
10
277
20
60.5
11
281
21
60.5
0
LINE
8
top_outsideCutPath
10
281
20
60.5
11
281
21
48.5
0
LINE
8
top_outsideCutPath
10
281
20
48.5
11
277
21
48.5
0
LINE
8
top_outsideCutPath
10
277
20
48.5
11
277
21
36.5
0
LINE
8
top_outsideCutPath
10
277
20
36.5
11
281
21
36.5
0
LINE
8
top_outsideCutPath
10
281
20
36.5
11
281
21
24.5
0
LINE
8
top_outsideCutPath
10
281
20
24.5
11
277
21
24.5
0
LINE
8
top_outsideCutPath
10
277
20
24.5
11
277
21
12.5
0
LINE
8
top_outsideCutPath
10
277
20
12.5
11
281
21
12.5
0
LINE
8
top_outsideCutPath
10
281
20
12.5
11
281
21
7
0
LINE
8
top_outsideCutPath
10
281
20
7
11
295
21
7
0
LINE
8
top_outsideCutPath
10
295
20
7
11
295
21
3
0
LINE
8
top_outsideCutPath
10
295
20
3
11
307
21
3
0
LINE
8
top_outsideCutPath
10
307
20
3
11
307
21
7
0
LINE
8
top_outsideCutPath
10
307
20
7
11
319
21
7
0
LINE
8
top_outsideCutPath
10
319
20
7
11
319
21
3
0
LINE
8
top_outsideCutPath
10
319
20
3
11
331
21
3
0
LINE
8
top_outsideCutPath
10
331
20
3
11
331
21
7
0
LINE
8
top_outsideCutPath
10
331
20
7
11
343
21
7
0
LINE
8
top_outsideCutPath
10
343
20
7
11
343
21
3
0
LINE
8
top_outsideCutPath
10
343
20
3
11
355
21
3
0
LINE
8
top_outsideCutPath
10
355
20
3
11
355
21
7
0
LINE
8
top_outsideCutPath
10
355
20
7
11
367
21
7
0
LINE
8
top_outsideCutPath
10
367
20
7
11
367
21
3
0
LINE
8
top_outsideCutPath
10
367
20
3
11
379
21
3
0
LINE
8
top_outsideCutPath
10
379
20
3
11
379
21
7
0
LINE
8
top_outsideCutPath
10
379
20
7
11
391
21
7
0
LINE
8
top_outsideCutPath
10
391
20
7
11
391
21
3
0
LINE
8
top_outsideCutPath
10
391
20
3
11
403
21
3
0
LINE
8
top_outsideCutPath
10
403
20
3
11
403
21
7
0
LINE
8
top_outsideCutPath
10
403
20
7
11
415
21
7
0
LINE
8
top_outsideCutPath
10
415
20
7
11
415
21
3
0
LINE
8
top_outsideCutPath
10
415
20
3
11
427
21
3
0
LINE
8
top_outsideCutPath
10
427
20
3
11
427
21
7
0
LINE
8
top_outsideCutPath
10
427
20
7
11
439
21
7
0
LINE
8
top_outsideCutPath
10
439
20
7
11
441
21
7
0
LINE
8
top_outsideCutPath
10
441
20
7
11
441
21
12.5
0
LINE
8
top_outsideCutPath
10
441
20
12.5
11
445
21
12.5
0
LINE
8
top_outsideCutPath
10
445
20
12.5
11
445
21
24.5
0
LINE
8
top_outsideCutPath
10
445
20
24.5
11
441
21
24.5
0
LINE
8
top_outsideCutPath
10
441
20
24.5
11
441
21
36.5
0
LINE
8
top_outsideCutPath
10
441
20
36.5
11
445
21
36.5
0
LINE
8
top_outsideCutPath
10
445
20
36.5
11
445
21
48.5
0
LINE
8
top_outsideCutPath
10
445
20
48.5
11
441
21
48.5
0
LINE
8
top_outsideCutPath
10
441
20
48.5
11
441
21
60.5
0
LINE
8
top_outsideCutPath
10
441
20
60.5
11
445
21
60.5
0
LINE
8
top_outsideCutPath
10
445
20
60.5
11
445
21
72.5
0
LINE
8
top_outsideCutPath
10
445
20
72.5
11
441
21
72.5
0
LINE
8
top_outsideCutPath
10
441
20
72.5
11
441
21
84.5
0
LINE
8
top_outsideCutPath
10
441
20
84.5
11
445
21
84.5
0
LINE
8
top_outsideCutPath
10
445
20
84.5
11
445
21
96.5
0
LINE
8
top_outsideCutPath
10
445
20
96.5
11
441
21
96.5
0
LINE
8
top_outsideCutPath
10
441
20
96.5
11
441
21
102
0
LINE
8
top_outsideCutPath
10
441
20
102
11
427
21
102
0
LINE
8
top_outsideCutPath
10
427
20
102
11
427
21
106
0
LINE
8
top_outsideCutPath
10
427
20
106
11
415
21
106
0
LINE
8
top_outsideCutPath
10
415
20
106
11
415
21
102
0
LINE
8
top_outsideCutPath
10
415
20
102
11
403
21
102
0
LINE
8
top_outsideCutPath
10
403
20
102
11
403
21
106
0
LINE
8
top_outsideCutPath
10
403
20
106
11
391
21
106
0
LINE
8
top_outsideCutPath
10
391
20
106
11
391
21
102
0
LINE
8
top_outsideCutPath
10
391
20
102
11
379
21
102
0
LINE
8
top_outsideCutPath
10
379
20
102
11
379
21
106
0
LINE
8
top_outsideCutPath
10
379
20
106
11
367
21
106
0
LINE
8
top_outsideCutPath
10
367
20
106
11
367
21
102
0
LINE
8
top_outsideCutPath
10
367
20
102
11
355
21
102
0
LINE
8
top_outsideCutPath
10
355
20
102
11
355
21
106
0
LINE
8
top_outsideCutPath
10
355
20
106
11
343
21
106
0
LINE
8
top_outsideCutPath
10
343
20
106
11
343
21
102
0
LINE
8
top_outsideCutPath
10
343
20
102
11
331
21
102
0
LINE
8
top_outsideCutPath
10
331
20
102
11
331
21
106
0
LINE
8
top_outsideCutPath
10
331
20
106
11
319
21
106
0
LINE
8
top_outsideCutPath
10
319
20
106
11
319
21
102
0
LINE
8
top_outsideCutPath
10
319
20
102
11
307
21
102
0
LINE
8
top_outsideCutPath
10
307
20
102
11
307
21
106
0
LINE
8
top_outsideCutPath
10
307
20
106
11
295
21
106
0
LINE
8
top_outsideCutPath
10
295
20
106
11
295
21
102
0
LINE
8
top_outsideCutPath
10
295
20
102
11
283
21
102
0
LINE
8
top_outsideCutPath
10
283
20
102
11
281
21
102
0
LINE
8
back_outsideCutPath
10
0
20
132
11
0
21
118.5
0
LINE
8
back_outsideCutPath
10
0
20
118.5
11
4
21
118.5
0
LINE
8
back_outsideCutPath
10
4
20
118.5
11
4
21
106.5
0
LINE
8
back_outsideCutPath
10
4
20
106.5
11
0
21
106.5
0
LINE
8
back_outsideCutPath
10
0
20
106.5
11
0
21
94.5
0
LINE
8
back_outsideCutPath
10
0
20
94.5
11
4
21
94.5
0
LINE
8
back_outsideCutPath
10
4
20
94.5
11
4
21
82.5
0
LINE
8
back_outsideCutPath
10
4
20
82.5
11
0
21
82.5
0
LINE
8
back_outsideCutPath
10
0
20
82.5
11
0
21
70.5
0
LINE
8
back_outsideCutPath
10
0
20
70.5
11
0
21
69
0
LINE
8
back_outsideCutPath
10
0
20
69
11
18
21
69
0
LINE
8
back_outsideCutPath
10
18
20
69
11
18
21
73
0
LINE
8
back_outsideCutPath
10
18
20
73
11
30
21
73
0
LINE
8
back_outsideCutPath
10
30
20
73
11
30
21
69
0
LINE
8
back_outsideCutPath
10
30
20
69
11
42
21
69
0
LINE
8
back_outsideCutPath
10
42
20
69
11
42
21
73
0
LINE
8
back_outsideCutPath
10
42
20
73
11
54
21
73
0
LINE
8
back_outsideCutPath
10
54
20
73
11
54
21
69
0
LINE
8
back_outsideCutPath
10
54
20
69
11
66
21
69
0
LINE
8
back_outsideCutPath
10
66
20
69
11
66
21
73
0
LINE
8
back_outsideCutPath
10
66
20
73
11
78
21
73
0
LINE
8
back_outsideCutPath
10
78
20
73
11
78
21
69
0
LINE
8
back_outsideCutPath
10
78
20
69
11
90
21
69
0
LINE
8
back_outsideCutPath
10
90
20
69
11
90
21
73
0
LINE
8
back_outsideCutPath
10
90
20
73
11
102
21
73
0
LINE
8
back_outsideCutPath
10
102
20
73
11
102
21
69
0
LINE
8
back_outsideCutPath
10
102
20
69
11
114
21
69
0
LINE
8
back_outsideCutPath
10
114
20
69
11
114
21
73
0
LINE
8
back_outsideCutPath
10
114
20
73
11
126
21
73
0
LINE
8
back_outsideCutPath
10
126
20
73
11
126
21
69
0
LINE
8
back_outsideCutPath
10
126
20
69
11
138
21
69
0
LINE
8
back_outsideCutPath
10
138
20
69
11
138
21
73
0
LINE
8
back_outsideCutPath
10
138
20
73
11
150
21
73
0
LINE
8
back_outsideCutPath
10
150
20
73
11
150
21
69
0
LINE
8
back_outsideCutPath
10
150
20
69
11
162
21
69
0
LINE
8
back_outsideCutPath
10
162
20
69
11
168
21
69
0
LINE
8
back_outsideCutPath
10
168
20
69
11
168
21
82.5
0
LINE
8
back_outsideCutPath
10
168
20
82.5
11
164
21
82.5
0
LINE
8
back_outsideCutPath
10
164
20
82.5
11
164
21
94.5
0
LINE
8
back_outsideCutPath
10
164
20
94.5
11
168
21
94.5
0
LINE
8
back_outsideCutPath
10
168
20
94.5
11
168
21
106.5
0
LINE
8
back_outsideCutPath
10
168
20
106.5
11
164
21
106.5
0
LINE
8
back_outsideCutPath
10
164
20
106.5
11
164
21
118.5
0
LINE
8
back_outsideCutPath
10
164
20
118.5
11
168
21
118.5
0
LINE
8
back_outsideCutPath
10
168
20
118.5
11
168
21
130.5
0
LINE
8
back_outsideCutPath
10
168
20
130.5
11
168
21
132
0
LINE
8
back_outsideCutPath
10
168
20
132
11
150
21
132
0
LINE
8
back_outsideCutPath
10
150
20
132
11
150
21
128
0
LINE
8
back_outsideCutPath
10
150
20
128
11
138
21
128
0
LINE
8
back_outsideCutPath
10
138
20
128
11
138
21
132
0
LINE
8
back_outsideCutPath
10
138
20
132
11
126
21
132
0
LINE
8
back_outsideCutPath
10
126
20
132
11
126
21
128
0
LINE
8
back_outsideCutPath
10
126
20
128
11
114
21
128
0
LINE
8
back_outsideCutPath
10
114
20
128
11
114
21
132
0
LINE
8
back_outsideCutPath
10
114
20
132
11
102
21
132
0
LINE
8
back_outsideCutPath
10
102
20
132
11
102
21
128
0
LINE
8
back_outsideCutPath
10
102
20
128
11
90
21
128
0
LINE
8
back_outsideCutPath
10
90
20
128
11
90
21
132
0
LINE
8
back_outsideCutPath
10
90
20
132
11
78
21
132
0
LINE
8
back_outsideCutPath
10
78
20
132
11
78
21
128
0
LINE
8
back_outsideCutPath
10
78
20
128
11
66
21
128
0
LINE
8
back_outsideCutPath
10
66
20
128
11
66
21
132
0
LINE
8
back_outsideCutPath
10
66
20
132
11
54
21
132
0
LINE
8
back_outsideCutPath
10
54
20
132
11
54
21
128
0
LINE
8
back_outsideCutPath
10
54
20
128
11
42
21
128
0
LINE
8
back_outsideCutPath
10
42
20
128
11
42
21
132
0
LINE
8
back_outsideCutPath
10
42
20
132
11
30
21
132
0
LINE
8
back_outsideCutPath
10
30
20
132
11
30
21
128
0
LINE
8
back_outsideCutPath
10
30
20
128
11
18
21
128
0
LINE
8
back_outsideCutPath
10
18
20
128
11
18
21
132
0
LINE
8
back_outsideCutPath
10
18
20
132
11
6
21
132
0
LINE
8
back_outsideCutPath
10
6
20
132
11
0
21
132
0
LINE
8
right_outsideCutPath
10
175
20
132
11
175
21
118.5
0
LINE
8
right_outsideCutPath
10
175
20
118.5
11
171
21
118.5
0
LINE
8
right_outsideCutPath
10
171
20
118.5
11
171
21
106.5
0
LINE
8
right_outsideCutPath
10
171
20
106.5
11
175
21
106.5
0
LINE
8
right_outsideCutPath
10
175
20
106.5
11
175
21
94.5
0
LINE
8
right_outsideCutPath
10
175
20
94.5
11
171
21
94.5
0
LINE
8
right_outsideCutPath
10
171
20
94.5
11
171
21
82.5
0
LINE
8
right_outsideCutPath
10
171
20
82.5
11
175
21
82.5
0
LINE
8
right_outsideCutPath
10
175
20
82.5
11
175
21
70.5
0
LINE
8
right_outsideCutPath
10
175
20
70.5
11
175
21
69
0
LINE
8
right_outsideCutPath
10
175
20
69
11
180.5
21
69
0
LINE
8
right_outsideCutPath
10
180.5
20
69
11
180.5
21
73
0
LINE
8
right_outsideCutPath
10
180.5
20
73
11
192.5
21
73
0
LINE
8
right_outsideCutPath
10
192.5
20
73
11
192.5
21
69
0
LINE
8
right_outsideCutPath
10
192.5
20
69
11
204.5
21
69
0
LINE
8
right_outsideCutPath
10
204.5
20
69
11
204.5
21
73
0
LINE
8
right_outsideCutPath
10
204.5
20
73
11
216.5
21
73
0
LINE
8
right_outsideCutPath
10
216.5
20
73
11
216.5
21
69
0
LINE
8
right_outsideCutPath
10
216.5
20
69
11
228.5
21
69
0
LINE
8
right_outsideCutPath
10
228.5
20
69
11
228.5
21
73
0
LINE
8
right_outsideCutPath
10
228.5
20
73
11
240.5
21
73
0
LINE
8
right_outsideCutPath
10
240.5
20
73
11
240.5
21
69
0
LINE
8
right_outsideCutPath
10
240.5
20
69
11
252.5
21
69
0
LINE
8
right_outsideCutPath
10
252.5
20
69
11
252.5
21
73
0
LINE
8
right_outsideCutPath
10
252.5
20
73
11
264.5
21
73
0
LINE
8
right_outsideCutPath
10
264.5
20
73
11
264.5
21
69
0
LINE
8
right_outsideCutPath
10
264.5
20
69
11
270
21
69
0
LINE
8
right_outsideCutPath
10
270
20
69
11
270
21
82.5
0
LINE
8
right_outsideCutPath
10
270
20
82.5
11
274
21
82.5
0
LINE
8
right_outsideCutPath
10
274
20
82.5
11
274
21
94.5
0
LINE
8
right_outsideCutPath
10
274
20
94.5
11
270
21
94.5
0
LINE
8
right_outsideCutPath
10
270
20
94.5
11
270
21
106.5
0
LINE
8
right_outsideCutPath
10
270
20
106.5
11
274
21
106.5
0
LINE
8
right_outsideCutPath
10
274
20
106.5
11
274
21
118.5
0
LINE
8
right_outsideCutPath
10
274
20
118.5
11
270
21
118.5
0
LINE
8
right_outsideCutPath
10
270
20
118.5
11
270
21
130.5
0
LINE
8
right_outsideCutPath
10
270
20
130.5
11
270
21
132
0
LINE
8
right_outsideCutPath
10
270
20
132
11
264.5
21
132
0
LINE
8
right_outsideCutPath
10
264.5
20
132
11
264.5
21
128
0
LINE
8
right_outsideCutPath
10
264.5
20
128
11
252.5
21
128
0
LINE
8
right_outsideCutPath
10
252.5
20
128
11
252.5
21
132
0
LINE
8
right_outsideCutPath
10
252.5
20
132
11
240.5
21
132
0
LINE
8
right_outsideCutPath
10
240.5
20
132
11
240.5
21
128
0
LINE
8
right_outsideCutPath
10
240.5
20
128
11
228.5
21
128
0
LINE
8
right_outsideCutPath
10
228.5
20
128
11
228.5
21
132
0
LINE
8
right_outsideCutPath
10
228.5
20
132
11
216.5
21
132
0
LINE
8
right_outsideCutPath
10
216.5
20
132
11
216.5
21
128
0
LINE
8
right_outsideCutPath
10
216.5
20
128
11
204.5
21
128
0
LINE
8
right_outsideCutPath
10
204.5
20
128
11
204.5
21
132
0
LINE
8
right_outsideCutPath
10
204.5
20
132
11
192.5
21
132
0
LINE
8
right_outsideCutPath
10
192.5
20
132
11
192.5
21
128
0
LINE
8
right_outsideCutPath
10
192.5
20
128
11
180.5
21
128
0
LINE
8
right_outsideCutPath
10
180.5
20
128
11
180.5
21
132
0
LINE
8
right_outsideCutPath
10
180.5
20
132
11
175
21
132
0
LINE
8
bottom_outsideCutPath
10
281
20
208
11
281
21
202.5
0
LINE
8
bottom_outsideCutPath
10
281
20
202.5
11
277
21
202.5
0
LINE
8
bottom_outsideCutPath
10
277
20
202.5
11
277
21
190.5
0
LINE
8
bottom_outsideCutPath
10
277
20
190.5
11
281
21
190.5
0
LINE
8
bottom_outsideCutPath
10
281
20
190.5
11
281
21
178.5
0
LINE
8
bottom_outsideCutPath
10
281
20
178.5
11
277
21
178.5
0
LINE
8
bottom_outsideCutPath
10
277
20
178.5
11
277
21
166.5
0
LINE
8
bottom_outsideCutPath
10
277
20
166.5
11
281
21
166.5
0
LINE
8
bottom_outsideCutPath
10
281
20
166.5
11
281
21
154.5
0
LINE
8
bottom_outsideCutPath
10
281
20
154.5
11
277
21
154.5
0
LINE
8
bottom_outsideCutPath
10
277
20
154.5
11
277
21
142.5
0
LINE
8
bottom_outsideCutPath
10
277
20
142.5
11
281
21
142.5
0
LINE
8
bottom_outsideCutPath
10
281
20
142.5
11
281
21
130.5
0
LINE
8
bottom_outsideCutPath
10
281
20
130.5
11
277
21
130.5
0
LINE
8
bottom_outsideCutPath
10
277
20
130.5
11
277
21
118.5
0
LINE
8
bottom_outsideCutPath
10
277
20
118.5
11
281
21
118.5
0
LINE
8
bottom_outsideCutPath
10
281
20
118.5
11
281
21
113
0
LINE
8
bottom_outsideCutPath
10
281
20
113
11
295
21
113
0
LINE
8
bottom_outsideCutPath
10
295
20
113
11
295
21
109
0
LINE
8
bottom_outsideCutPath
10
295
20
109
11
307
21
109
0
LINE
8
bottom_outsideCutPath
10
307
20
109
11
307
21
113
0
LINE
8
bottom_outsideCutPath
10
307
20
113
11
319
21
113
0
LINE
8
bottom_outsideCutPath
10
319
20
113
11
319
21
109
0
LINE
8
bottom_outsideCutPath
10
319
20
109
11
331
21
109
0
LINE
8
bottom_outsideCutPath
10
331
20
109
11
331
21
113
0
LINE
8
bottom_outsideCutPath
10
331
20
113
11
343
21
113
0
LINE
8
bottom_outsideCutPath
10
343
20
113
11
343
21
109
0
LINE
8
bottom_outsideCutPath
10
343
20
109
11
355
21
109
0
LINE
8
bottom_outsideCutPath
10
355
20
109
11
355
21
113
0
LINE
8
bottom_outsideCutPath
10
355
20
113
11
367
21
113
0
LINE
8
bottom_outsideCutPath
10
367
20
113
11
367
21
109
0
LINE
8
bottom_outsideCutPath
10
367
20
109
11
379
21
109
0
LINE
8
bottom_outsideCutPath
10
379
20
109
11
379
21
113
0
LINE
8
bottom_outsideCutPath
10
379
20
113
11
391
21
113
0
LINE
8
bottom_outsideCutPath
10
391
20
113
11
391
21
109
0
LINE
8
bottom_outsideCutPath
10
391
20
109
11
403
21
109
0
LINE
8
bottom_outsideCutPath
10
403
20
109
11
403
21
113
0
LINE
8
bottom_outsideCutPath
10
403
20
113
11
415
21
113
0
LINE
8
bottom_outsideCutPath
10
415
20
113
11
415
21
109
0
LINE
8
bottom_outsideCutPath
10
415
20
109
11
427
21
109
0
LINE
8
bottom_outsideCutPath
10
427
20
109
11
427
21
113
0
LINE
8
bottom_outsideCutPath
10
427
20
113
11
439
21
113
0
LINE
8
bottom_outsideCutPath
10
439
20
113
11
441
21
113
0
LINE
8
bottom_outsideCutPath
10
441
20
113
11
441
21
118.5
0
LINE
8
bottom_outsideCutPath
10
441
20
118.5
11
445
21
118.5
0
LINE
8
bottom_outsideCutPath
10
445
20
118.5
11
445
21
130.5
0
LINE
8
bottom_outsideCutPath
10
445
20
130.5
11
441
21
130.5
0
LINE
8
bottom_outsideCutPath
10
441
20
130.5
11
441
21
142.5
0
LINE
8
bottom_outsideCutPath
10
441
20
142.5
11
445
21
142.5
0
LINE
8
bottom_outsideCutPath
10
445
20
142.5
11
445
21
154.5
0
LINE
8
bottom_outsideCutPath
10
445
20
154.5
11
441
21
154.5
0
LINE
8
bottom_outsideCutPath
10
441
20
154.5
11
441
21
166.5
0
LINE
8
bottom_outsideCutPath
10
441
20
166.5
11
445
21
166.5
0
LINE
8
bottom_outsideCutPath
10
445
20
166.5
11
445
21
178.5
0
LINE
8
bottom_outsideCutPath
10
445
20
178.5
11
441
21
178.5
0
LINE
8
bottom_outsideCutPath
10
441
20
178.5
11
441
21
190.5
0
LINE
8
bottom_outsideCutPath
10
441
20
190.5
11
445
21
190.5
0
LINE
8
bottom_outsideCutPath
10
445
20
190.5
11
445
21
202.5
0
LINE
8
bottom_outsideCutPath
10
445
20
202.5
11
441
21
202.5
0
LINE
8
bottom_outsideCutPath
10
441
20
202.5
11
441
21
208
0
LINE
8
bottom_outsideCutPath
10
441
20
208
11
427
21
208
0
LINE
8
bottom_outsideCutPath
10
427
20
208
11
427
21
212
0
LINE
8
bottom_outsideCutPath
10
427
20
212
11
415
21
212
0
LINE
8
bottom_outsideCutPath
10
415
20
212
11
415
21
208
0
LINE
8
bottom_outsideCutPath
10
415
20
208
11
403
21
208
0
LINE
8
bottom_outsideCutPath
10
403
20
208
11
403
21
212
0
LINE
8
bottom_outsideCutPath
10
403
20
212
11
391
21
212
0
LINE
8
bottom_outsideCutPath
10
391
20
212
11
391
21
208
0
LINE
8
bottom_outsideCutPath
10
391
20
208
11
379
21
208
0
LINE
8
bottom_outsideCutPath
10
379
20
208
11
379
21
212
0
LINE
8
bottom_outsideCutPath
10
379
20
212
11
367
21
212
0
LINE
8
bottom_outsideCutPath
10
367
20
212
11
367
21
208
0
LINE
8
bottom_outsideCutPath
10
367
20
208
11
355
21
208
0
LINE
8
bottom_outsideCutPath
10
355
20
208
11
355
21
212
0
LINE
8
bottom_outsideCutPath
10
355
20
212
11
343
21
212
0
LINE
8
bottom_outsideCutPath
10
343
20
212
11
343
21
208
0
LINE
8
bottom_outsideCutPath
10
343
20
208
11
331
21
208
0
LINE
8
bottom_outsideCutPath
10
331
20
208
11
331
21
212
0
LINE
8
bottom_outsideCutPath
10
331
20
212
11
319
21
212
0
LINE
8
bottom_outsideCutPath
10
319
20
212
11
319
21
208
0
LINE
8
bottom_outsideCutPath
10
319
20
208
11
307
21
208
0
LINE
8
bottom_outsideCutPath
10
307
20
208
11
307
21
212
0
LINE
8
bottom_outsideCutPath
10
307
20
212
11
295
21
212
0
LINE
8
bottom_outsideCutPath
10
295
20
212
11
295
21
208
0
LINE
8
bottom_outsideCutPath
10
295
20
208
11
283
21
208
0
LINE
8
bottom_outsideCutPath
10
283
20
208
11
281
21
208
0
ENDSEC
0
EOF