<?xml version="1.0" encoding="utf-8"?>
<!-- Generator: Adobe Illustrator 26.3.1, SVG Export Plug-In . SVG Version: 6.00 Build 0)  -->
<svg version="1.1" xmlns="http://www.w3.org/2000/svg" xmlns:xlink="http://www.w3.org/1999/xlink" x="0px" y="0px"
	 viewBox="0 0 1261.4 592.4" style="enable-background:new 0 0 1261.4 592.4;" xml:space="preserve">
<style type="text/css">
	.st0{fill:none;stroke:#FF0000;stroke-width:0.2835;stroke-linecap:round;stroke-miterlimit:11.3386;}
	.st1{fill:none;stroke:#FF0000;stroke-width:0.2835;stroke-miterlimit:11.3386;}
</style>
<g id="Laag_1">
	<g id="svgGroup">
		<path id="front_outsideCutPath" vector-effect="non-scaling-stroke" class="st0" d="M0,413.9v38.3h11.3v34H0v34h11.3v34H0v34v4.3
			h51v-11.3h34v11.3h34v-11.3h34v11.3h34v-11.3h34v11.3h34v-11.3h34v11.3h34v-11.3h34v11.3h34v-11.3h34v11.3h34h17v-38.3h-11.3v-34
			h11.3v-34h-11.3v-34h11.3v-34v-4.3h-51v11.3h-34v-11.3h-34v11.3h-34v-11.3h-34v11.3h-34v-11.3h-34v11.3h-34v-11.3h-34v11.3h-34
			v-11.3H85v11.3H51v-11.3H17H0z"/>
		<path id="left_outsideCutPath" vector-effect="non-scaling-stroke" class="st0" d="M496.1,413.9v38.3h-11.3v34h11.3v34h-11.3v34
			h11.3v34v4.3h15.6v-11.3h34v11.3h34v-11.3h34v11.3h34v-11.3h34v11.3h34v-11.3h34v11.3h15.6v-38.3h11.3v-34h-11.3v-34h11.3v-34
			h-11.3v-34v-4.3h-15.6v11.3h-34v-11.3h-34v11.3h-34v-11.3h-34v11.3h-34v-11.3h-34v11.3h-34v-11.3H496.1z"/>
		<path id="top_outsideCutPath" vector-effect="non-scaling-stroke" class="st0" d="M796.5,311.8v15.6h-11.3v34h11.3v34h-11.3v34
			h11.3v34h-11.3v34h11.3v34h-11.3v34h11.3v15.6h39.7v11.3h34v-11.3h34v11.3h34v-11.3h34v11.3h34v-11.3h34v11.3h34v-11.3h34v11.3h34
			v-11.3h34v11.3h34v-11.3h34h5.7v-15.6h11.3v-34h-11.3v-34h11.3v-34h-11.3v-34h11.3v-34h-11.3v-34h11.3v-34h-11.3v-15.6h-39.7
			v-11.3h-34v11.3h-34v-11.3h-34v11.3h-34v-11.3h-34v11.3h-34v-11.3h-34v11.3h-34v-11.3h-34v11.3h-34v-11.3h-34v11.3h-34H796.5z"/>
		<path id="back_outsideCutPath" vector-effect="non-scaling-stroke" class="st0" d="M0,226.8V265h11.3v34H0v34h11.3v34H0v34v4.3h51
			V394h34v11.3h34V394h34v11.3h34V394h34v11.3h34V394h34v11.3h34V394h34v11.3h34V394h34v11.3h34h17v-38.3h-11.3v-34h11.3v-34h-11.3
			v-34h11.3v-34v-4.3h-51v11.3h-34v-11.3h-34v11.3h-34v-11.3h-34v11.3h-34v-11.3h-34v11.3h-34v-11.3h-34v11.3h-34v-11.3H85v11.3H51
			v-11.3H17H0z"/>
		<path id="right_outsideCutPath" vector-effect="non-scaling-stroke" class="st0" d="M496.1,226.8V265h-11.3v34h11.3v34h-11.3v34
			h11.3v34v4.3h15.6V394h34v11.3h34V394h34v11.3h34V394h34v11.3h34V394h34v11.3h15.6v-38.3h11.3v-34h-11.3v-34h11.3v-34h-11.3v-34
			v-4.3h-15.6v11.3h-34v-11.3h-34v11.3h-34v-11.3h-34v11.3h-34v-11.3h-34v11.3h-34v-11.3H496.1z"/>
		<path id="bottom_outsideCutPath" vector-effect="non-scaling-stroke" class="st0" d="M796.5,11.3v15.6h-11.3v34h11.3v34h-11.3v34
			h11.3v34h-11.3v34h11.3v34h-11.3v34h11.3v15.6h39.7V292h34v-11.3h34V292h34v-11.3h34V292h34v-11.3h34V292h34v-11.3h34V292h34
			v-11.3h34V292h34v-11.3h34h5.7V265h11.3v-34h-11.3v-34h11.3v-34h-11.3v-34h11.3V95h-11.3v-34h11.3v-34h-11.3V11.3h-39.7V0h-34
			v11.3h-34V0h-34v11.3h-34V0h-34v11.3h-34V0h-34v11.3h-34V0h-34v11.3h-34V0h-34v11.3h-34H796.5z"/>
	</g>
</g>
<g id="Laag_2">
	<rect x="885" y="109.2" class="st1" width="76.5" height="76.5"/>
	<rect x="1025.5" y="38.3" class="st1" width="195.6" height="215.4"/>
	
		<image style="overflow:visible;" width="1024" height="1024" xlink:href="de95u79-c7fc74cc-d1c4-4fff-ace3-0ae4c97be852.png"  transform="matrix(0.1523 0 0 0.1523 160.1575 425.1968)">
	</image>
	<g>
		<g>
			<path d="M159.5,312.1h-1v-8.4h1V312.1z"/>
			<path d="M166.5,312.1h-1v-3.4c0-1.3-0.5-1.9-1.4-1.9c-0.5,0-0.9,0.2-1.2,0.5s-0.5,0.8-0.5,1.4v3.4h-1v-6h1v1h0
				c0.5-0.8,1.1-1.1,2-1.1c0.7,0,1.2,0.2,1.5,0.6s0.5,1,0.5,1.8V312.1z"/>
			<path d="M171.3,304.1c-0.2-0.1-0.4-0.2-0.6-0.2c-0.7,0-1,0.4-1,1.3v0.9h1.4v0.8h-1.4v5.2h-1V307h-1v-0.8h1v-1
				c0-0.6,0.2-1.1,0.5-1.5s0.8-0.5,1.4-0.5c0.3,0,0.5,0,0.7,0.1V304.1z"/>
			<path d="M174.6,312.3c-0.9,0-1.6-0.3-2.1-0.8s-0.8-1.3-0.8-2.2c0-1,0.3-1.8,0.8-2.4s1.3-0.8,2.2-0.8c0.9,0,1.6,0.3,2.1,0.8
				s0.8,1.3,0.8,2.3c0,1-0.3,1.7-0.8,2.3S175.5,312.3,174.6,312.3z M174.7,306.8c-0.6,0-1.1,0.2-1.5,0.6s-0.5,1-0.5,1.7
				c0,0.7,0.2,1.3,0.5,1.7s0.8,0.6,1.5,0.6c0.6,0,1.1-0.2,1.4-0.6s0.5-1,0.5-1.7c0-0.8-0.2-1.3-0.5-1.7S175.3,306.8,174.7,306.8z"/>
			<path d="M182.2,307.1c-0.2-0.1-0.4-0.2-0.7-0.2c-0.4,0-0.8,0.2-1,0.6s-0.4,0.9-0.4,1.6v3.1h-1v-6h1v1.2h0c0.1-0.4,0.3-0.8,0.6-1
				s0.6-0.4,0.9-0.4c0.2,0,0.4,0,0.6,0.1V307.1z"/>
			<path d="M191.8,312.1h-1v-3.4c0-0.7-0.1-1.1-0.3-1.4s-0.5-0.4-1-0.4c-0.4,0-0.8,0.2-1,0.6s-0.4,0.8-0.4,1.3v3.4h-1v-3.6
				c0-1.2-0.5-1.8-1.4-1.8c-0.4,0-0.8,0.2-1,0.5s-0.4,0.8-0.4,1.4v3.4h-1v-6h1v0.9h0c0.4-0.7,1-1.1,1.9-1.1c0.4,0,0.8,0.1,1.1,0.3
				s0.5,0.5,0.6,0.9c0.4-0.8,1.1-1.2,2-1.2c1.3,0,2,0.8,2,2.4V312.1z"/>
			<path d="M197.9,312.1h-1v-0.9h0c-0.4,0.7-1,1.1-1.8,1.1c-0.6,0-1.1-0.2-1.4-0.5s-0.5-0.7-0.5-1.3c0-1.1,0.7-1.8,2-2l1.8-0.3
				c0-1-0.4-1.5-1.2-1.5c-0.7,0-1.4,0.2-2,0.7v-1c0.6-0.4,1.3-0.6,2-0.6c1.4,0,2.1,0.7,2.1,2.2V312.1z M197,309.1l-1.4,0.2
				c-0.4,0.1-0.8,0.2-1,0.3s-0.3,0.4-0.3,0.8c0,0.3,0.1,0.5,0.3,0.7s0.5,0.3,0.8,0.3c0.5,0,0.9-0.2,1.2-0.5s0.5-0.8,0.5-1.3V309.1z"
				/>
			<path d="M202.5,312.1c-0.2,0.1-0.5,0.2-0.9,0.2c-1.1,0-1.6-0.6-1.6-1.8V307h-1v-0.8h1v-1.5l1-0.3v1.8h1.5v0.8H201v3.4
				c0,0.4,0.1,0.7,0.2,0.9s0.4,0.3,0.7,0.3c0.2,0,0.5-0.1,0.6-0.2V312.1z"/>
			<path d="M204.3,304.6c-0.2,0-0.3-0.1-0.4-0.2s-0.2-0.3-0.2-0.4s0.1-0.3,0.2-0.4s0.3-0.2,0.4-0.2c0.2,0,0.3,0.1,0.4,0.2
				s0.2,0.3,0.2,0.4c0,0.2-0.1,0.3-0.2,0.4S204.5,304.6,204.3,304.6z M204.8,312.1h-1v-6h1V312.1z"/>
			<path d="M210.8,311.9c-0.5,0.3-1,0.4-1.6,0.4c-0.9,0-1.5-0.3-2.1-0.8s-0.8-1.3-0.8-2.2c0-1,0.3-1.8,0.8-2.4s1.3-0.9,2.3-0.9
				c0.5,0,1,0.1,1.4,0.3v1c-0.4-0.3-0.9-0.5-1.4-0.5c-0.6,0-1.1,0.2-1.5,0.7s-0.6,1-0.6,1.7c0,0.7,0.2,1.3,0.6,1.7s0.9,0.6,1.5,0.6
				c0.5,0,1-0.2,1.5-0.5V311.9z"/>
			<path d="M216.5,312.1h-1v-0.9h0c-0.4,0.7-1,1.1-1.8,1.1c-0.6,0-1.1-0.2-1.4-0.5s-0.5-0.7-0.5-1.3c0-1.1,0.7-1.8,2-2l1.8-0.3
				c0-1-0.4-1.5-1.2-1.5c-0.7,0-1.4,0.2-2,0.7v-1c0.6-0.4,1.3-0.6,2-0.6c1.4,0,2.1,0.7,2.1,2.2V312.1z M215.6,309.1l-1.4,0.2
				c-0.4,0.1-0.8,0.2-1,0.3s-0.3,0.4-0.3,0.8c0,0.3,0.1,0.5,0.3,0.7s0.5,0.3,0.8,0.3c0.5,0,0.9-0.2,1.2-0.5s0.5-0.8,0.5-1.3V309.1z"
				/>
			<path d="M228.3,312.1h-1.1l-0.9-2.4h-3.6l-0.8,2.4h-1.1l3.2-8.4h1L228.3,312.1z M226,308.9l-1.3-3.6c0-0.1-0.1-0.3-0.1-0.6h0
				c0,0.2-0.1,0.4-0.1,0.6l-1.3,3.6H226z"/>
			<path d="M232.5,307.1c-0.2-0.1-0.4-0.2-0.7-0.2c-0.4,0-0.8,0.2-1,0.6s-0.4,0.9-0.4,1.6v3.1h-1v-6h1v1.2h0c0.1-0.4,0.3-0.8,0.6-1
				s0.6-0.4,0.9-0.4c0.2,0,0.4,0,0.6,0.1V307.1z"/>
			<path d="M236.3,312.1c-0.2,0.1-0.5,0.2-0.9,0.2c-1.1,0-1.6-0.6-1.6-1.8V307h-1v-0.8h1v-1.5l1-0.3v1.8h1.5v0.8h-1.5v3.4
				c0,0.4,0.1,0.7,0.2,0.9s0.4,0.3,0.7,0.3c0.2,0,0.5-0.1,0.6-0.2V312.1z"/>
			<path d="M238.1,304.6c-0.2,0-0.3-0.1-0.4-0.2s-0.2-0.3-0.2-0.4s0.1-0.3,0.2-0.4s0.3-0.2,0.4-0.2c0.2,0,0.3,0.1,0.4,0.2
				s0.2,0.3,0.2,0.4c0,0.2-0.1,0.3-0.2,0.4S238.3,304.6,238.1,304.6z M238.6,312.1h-1v-6h1V312.1z"/>
			<path d="M243.5,304.1c-0.2-0.1-0.4-0.2-0.6-0.2c-0.7,0-1,0.4-1,1.3v0.9h1.4v0.8h-1.4v5.2h-1V307h-1v-0.8h1v-1
				c0-0.6,0.2-1.1,0.5-1.5s0.8-0.5,1.4-0.5c0.3,0,0.5,0,0.7,0.1V304.1z"/>
			<path d="M248.6,312.1h-1v-0.9h0c-0.4,0.7-1,1.1-1.8,1.1c-0.6,0-1.1-0.2-1.4-0.5s-0.5-0.7-0.5-1.3c0-1.1,0.7-1.8,2-2l1.8-0.3
				c0-1-0.4-1.5-1.2-1.5c-0.7,0-1.4,0.2-2,0.7v-1c0.6-0.4,1.3-0.6,2-0.6c1.4,0,2.1,0.7,2.1,2.2V312.1z M247.6,309.1l-1.4,0.2
				c-0.4,0.1-0.8,0.2-1,0.3s-0.3,0.4-0.3,0.8c0,0.3,0.1,0.5,0.3,0.7s0.5,0.3,0.8,0.3c0.5,0,0.9-0.2,1.2-0.5s0.5-0.8,0.5-1.3V309.1z"
				/>
			<path d="M254.5,311.9c-0.5,0.3-1,0.4-1.6,0.4c-0.9,0-1.5-0.3-2.1-0.8s-0.8-1.3-0.8-2.2c0-1,0.3-1.8,0.8-2.4s1.3-0.9,2.3-0.9
				c0.5,0,1,0.1,1.4,0.3v1c-0.4-0.3-0.9-0.5-1.4-0.5c-0.6,0-1.1,0.2-1.5,0.7s-0.6,1-0.6,1.7c0,0.7,0.2,1.3,0.6,1.7s0.9,0.6,1.5,0.6
				c0.5,0,1-0.2,1.5-0.5V311.9z"/>
			<path d="M258.7,312.1c-0.2,0.1-0.5,0.2-0.9,0.2c-1.1,0-1.6-0.6-1.6-1.8V307h-1v-0.8h1v-1.5l1-0.3v1.8h1.5v0.8h-1.5v3.4
				c0,0.4,0.1,0.7,0.2,0.9s0.4,0.3,0.7,0.3c0.2,0,0.5-0.1,0.6-0.2V312.1z"/>
			<path d="M266.8,305.9c0-0.3,0-0.5-0.1-0.7s-0.2-0.4-0.3-0.5s-0.3-0.2-0.5-0.3s-0.4-0.1-0.6-0.1c-0.2,0-0.4,0-0.6,0.1
				s-0.4,0.1-0.5,0.2s-0.3,0.2-0.5,0.3s-0.3,0.3-0.4,0.4v-1c0.3-0.3,0.6-0.5,0.9-0.6s0.7-0.2,1.2-0.2c0.3,0,0.7,0,1,0.1
				s0.5,0.2,0.8,0.4s0.4,0.4,0.5,0.7s0.2,0.6,0.2,1c0,0.3,0,0.6-0.1,0.9s-0.2,0.5-0.3,0.8s-0.3,0.5-0.6,0.7s-0.5,0.4-0.8,0.7
				c-0.4,0.3-0.7,0.5-1,0.7s-0.5,0.4-0.6,0.6s-0.3,0.3-0.3,0.5s-0.1,0.4-0.1,0.6h4.2v0.9h-5.2v-0.4c0-0.4,0-0.7,0.1-0.9
				s0.2-0.5,0.4-0.8s0.4-0.5,0.7-0.7s0.6-0.5,1.1-0.8c0.3-0.2,0.6-0.4,0.8-0.6s0.4-0.4,0.5-0.6s0.2-0.4,0.3-0.6
				S266.8,306.2,266.8,305.9z"/>
			<path d="M271.9,312.3c-0.8,0-1.5-0.4-1.9-1.1s-0.7-1.7-0.7-3.1c0-1.5,0.2-2.6,0.7-3.4s1.2-1.1,2.1-1.1c1.8,0,2.6,1.4,2.6,4.3
				c0,1.4-0.2,2.5-0.7,3.3S272.8,312.3,271.9,312.3z M272.1,304.4c-1.2,0-1.8,1.2-1.8,3.7c0,2.3,0.6,3.4,1.8,3.4
				c1.2,0,1.7-1.2,1.7-3.5C273.8,305.6,273.2,304.4,272.1,304.4z"/>
			<path d="M279.8,305.9c0-0.3,0-0.5-0.1-0.7s-0.2-0.4-0.3-0.5s-0.3-0.2-0.5-0.3s-0.4-0.1-0.6-0.1c-0.2,0-0.4,0-0.6,0.1
				s-0.4,0.1-0.5,0.2s-0.3,0.2-0.5,0.3s-0.3,0.3-0.4,0.4v-1c0.3-0.3,0.6-0.5,0.9-0.6s0.7-0.2,1.2-0.2c0.3,0,0.7,0,1,0.1
				s0.5,0.2,0.8,0.4s0.4,0.4,0.5,0.7s0.2,0.6,0.2,1c0,0.3,0,0.6-0.1,0.9s-0.2,0.5-0.3,0.8s-0.3,0.5-0.6,0.7s-0.5,0.4-0.8,0.7
				c-0.4,0.3-0.7,0.5-1,0.7s-0.5,0.4-0.6,0.6s-0.3,0.3-0.3,0.5s-0.1,0.4-0.1,0.6h4.2v0.9h-5.2v-0.4c0-0.4,0-0.7,0.1-0.9
				s0.2-0.5,0.4-0.8s0.4-0.5,0.7-0.7s0.6-0.5,1.1-0.8c0.3-0.2,0.6-0.4,0.8-0.6s0.4-0.4,0.5-0.6s0.2-0.4,0.3-0.6
				S279.8,306.2,279.8,305.9z"/>
			<path d="M286.2,305.9c0-0.3,0-0.5-0.1-0.7s-0.2-0.4-0.3-0.5s-0.3-0.2-0.5-0.3s-0.4-0.1-0.6-0.1c-0.2,0-0.4,0-0.6,0.1
				s-0.4,0.1-0.5,0.2s-0.3,0.2-0.5,0.3s-0.3,0.3-0.4,0.4v-1c0.3-0.3,0.6-0.5,0.9-0.6s0.7-0.2,1.2-0.2c0.3,0,0.7,0,1,0.1
				s0.5,0.2,0.8,0.4s0.4,0.4,0.5,0.7s0.2,0.6,0.2,1c0,0.3,0,0.6-0.1,0.9s-0.2,0.5-0.3,0.8s-0.3,0.5-0.6,0.7s-0.5,0.4-0.8,0.7
				c-0.4,0.3-0.7,0.5-1,0.7s-0.5,0.4-0.6,0.6s-0.3,0.3-0.3,0.5s-0.1,0.4-0.1,0.6h4.2v0.9h-5.2v-0.4c0-0.4,0-0.7,0.1-0.9
				s0.2-0.5,0.4-0.8s0.4-0.5,0.7-0.7s0.6-0.5,1.1-0.8c0.3-0.2,0.6-0.4,0.8-0.6s0.4-0.4,0.5-0.6s0.2-0.4,0.3-0.6
				S286.2,306.2,286.2,305.9z"/>
			<path d="M292.2,309.2H289v-0.8h3.2V309.2z"/>
			<path d="M297.5,305.9c0-0.3,0-0.5-0.1-0.7s-0.2-0.4-0.3-0.5s-0.3-0.2-0.5-0.3s-0.4-0.1-0.6-0.1c-0.2,0-0.4,0-0.6,0.1
				s-0.4,0.1-0.5,0.2s-0.3,0.2-0.5,0.3s-0.3,0.3-0.4,0.4v-1c0.3-0.3,0.6-0.5,0.9-0.6s0.7-0.2,1.2-0.2c0.3,0,0.7,0,1,0.1
				s0.5,0.2,0.8,0.4s0.4,0.4,0.5,0.7s0.2,0.6,0.2,1c0,0.3,0,0.6-0.1,0.9s-0.2,0.5-0.3,0.8s-0.3,0.5-0.6,0.7s-0.5,0.4-0.8,0.7
				c-0.4,0.3-0.7,0.5-1,0.7s-0.5,0.4-0.6,0.6s-0.3,0.3-0.3,0.5s-0.1,0.4-0.1,0.6h4.2v0.9h-5.2v-0.4c0-0.4,0-0.7,0.1-0.9
				s0.2-0.5,0.4-0.8s0.4-0.5,0.7-0.7s0.6-0.5,1.1-0.8c0.3-0.2,0.6-0.4,0.8-0.6s0.4-0.4,0.5-0.6s0.2-0.4,0.3-0.6
				S297.5,306.2,297.5,305.9z"/>
			<path d="M302.6,312.3c-0.8,0-1.5-0.4-1.9-1.1s-0.7-1.7-0.7-3.1c0-1.5,0.2-2.6,0.7-3.4s1.2-1.1,2.1-1.1c1.8,0,2.6,1.4,2.6,4.3
				c0,1.4-0.2,2.5-0.7,3.3S303.5,312.3,302.6,312.3z M302.7,304.4c-1.2,0-1.8,1.2-1.8,3.7c0,2.3,0.6,3.4,1.8,3.4
				c1.2,0,1.7-1.2,1.7-3.5C304.4,305.6,303.9,304.4,302.7,304.4z"/>
			<path d="M310.4,305.9c0-0.3,0-0.5-0.1-0.7s-0.2-0.4-0.3-0.5s-0.3-0.2-0.5-0.3s-0.4-0.1-0.6-0.1c-0.2,0-0.4,0-0.6,0.1
				s-0.4,0.1-0.5,0.2s-0.3,0.2-0.5,0.3s-0.3,0.3-0.4,0.4v-1c0.3-0.3,0.6-0.5,0.9-0.6s0.7-0.2,1.2-0.2c0.3,0,0.7,0,1,0.1
				s0.5,0.2,0.8,0.4s0.4,0.4,0.5,0.7s0.2,0.6,0.2,1c0,0.3,0,0.6-0.1,0.9s-0.2,0.5-0.3,0.8s-0.3,0.5-0.6,0.7s-0.5,0.4-0.8,0.7
				c-0.4,0.3-0.7,0.5-1,0.7s-0.5,0.4-0.6,0.6s-0.3,0.3-0.3,0.5s-0.1,0.4-0.1,0.6h4.2v0.9h-5.2v-0.4c0-0.4,0-0.7,0.1-0.9
				s0.2-0.5,0.4-0.8s0.4-0.5,0.7-0.7s0.6-0.5,1.1-0.8c0.3-0.2,0.6-0.4,0.8-0.6s0.4-0.4,0.5-0.6s0.2-0.4,0.3-0.6
				S310.4,306.2,310.4,305.9z"/>
			<path d="M313.2,311.8v-1c0.6,0.5,1.2,0.7,1.9,0.7c0.6,0,1.1-0.1,1.4-0.4s0.5-0.7,0.5-1.2c0-1.1-0.8-1.6-2.3-1.6H314v-0.8h0.7
				c1.4,0,2.1-0.5,2.1-1.5c0-1-0.5-1.4-1.6-1.4c-0.6,0-1.1,0.2-1.7,0.6v-0.9c0.5-0.3,1.2-0.5,1.9-0.5c0.7,0,1.3,0.2,1.7,0.6
				s0.6,0.9,0.6,1.4c0,1.1-0.6,1.8-1.7,2.1v0c0.6,0.1,1.1,0.3,1.4,0.6s0.5,0.8,0.5,1.4c0,0.8-0.3,1.4-0.8,1.8s-1.3,0.7-2.1,0.7
				C314.3,312.3,313.6,312.1,313.2,311.8z"/>
			<path d="M231.1,326.5h-1.4l-3.2-3.8c-0.1-0.1-0.2-0.2-0.2-0.3h0v4.1h-1v-8.4h1v3.9h0c0.1-0.1,0.1-0.2,0.2-0.3l3.1-3.7h1.2l-3.6,4
				L231.1,326.5z"/>
			<path d="M232.6,319c-0.2,0-0.3-0.1-0.4-0.2s-0.2-0.3-0.2-0.4s0.1-0.3,0.2-0.4s0.3-0.2,0.4-0.2c0.2,0,0.3,0.1,0.4,0.2
				s0.2,0.3,0.2,0.4c0,0.2-0.1,0.3-0.2,0.4S232.8,319,232.6,319z M233.1,326.5h-1v-6h1V326.5z"/>
			<path d="M238.1,321.5c-0.2-0.1-0.4-0.2-0.7-0.2c-0.4,0-0.8,0.2-1,0.6s-0.4,0.9-0.4,1.6v3.1h-1v-6h1v1.2h0c0.1-0.4,0.3-0.8,0.6-1
				s0.6-0.4,0.9-0.4c0.2,0,0.4,0,0.6,0.1V321.5z"/>
			<path d="M241.7,326.7c-0.9,0-1.6-0.3-2.1-0.8s-0.8-1.3-0.8-2.2c0-1,0.3-1.8,0.8-2.4s1.3-0.8,2.2-0.8c0.9,0,1.6,0.3,2.1,0.8
				s0.8,1.3,0.8,2.3c0,1-0.3,1.7-0.8,2.3S242.6,326.7,241.7,326.7z M241.8,321.2c-0.6,0-1.1,0.2-1.5,0.6s-0.5,1-0.5,1.7
				c0,0.7,0.2,1.3,0.5,1.7s0.8,0.6,1.5,0.6c0.6,0,1.1-0.2,1.4-0.6s0.5-1,0.5-1.7c0-0.8-0.2-1.3-0.5-1.7S242.4,321.2,241.8,321.2z"/>
			<path d="M251.2,326.5h-1v-3.4c0-1.3-0.5-1.9-1.4-1.9c-0.5,0-0.9,0.2-1.2,0.5s-0.5,0.8-0.5,1.4v3.4h-1v-6h1v1h0
				c0.5-0.8,1.1-1.1,2-1.1c0.7,0,1.2,0.2,1.5,0.6s0.5,1,0.5,1.8V326.5z"/>
			<path d="M132.4,340.9h-1v-3.5c0-1.2-0.5-1.9-1.4-1.9c-0.5,0-0.9,0.2-1.2,0.5s-0.5,0.8-0.5,1.4v3.4h-1v-8.9h1v3.9h0
				c0.5-0.8,1.1-1.1,2-1.1c1.4,0,2,0.8,2,2.4V340.9z"/>
			<path d="M137,340.9c-0.2,0.1-0.5,0.2-0.9,0.2c-1.1,0-1.6-0.6-1.6-1.8v-3.6h-1v-0.8h1v-1.5l1-0.3v1.8h1.5v0.8h-1.5v3.4
				c0,0.4,0.1,0.7,0.2,0.9s0.4,0.3,0.7,0.3c0.2,0,0.5-0.1,0.6-0.2V340.9z"/>
			<path d="M141,340.9c-0.2,0.1-0.5,0.2-0.9,0.2c-1.1,0-1.6-0.6-1.6-1.8v-3.6h-1v-0.8h1v-1.5l1-0.3v1.8h1.5v0.8h-1.5v3.4
				c0,0.4,0.1,0.7,0.2,0.9s0.4,0.3,0.7,0.3c0.2,0,0.5-0.1,0.6-0.2V340.9z"/>
			<path d="M143.3,340.1L143.3,340.1l0,3.6h-1v-8.8h1v1.1h0c0.5-0.8,1.2-1.2,2.1-1.2c0.8,0,1.4,0.3,1.8,0.8s0.7,1.3,0.7,2.2
				c0,1-0.2,1.8-0.7,2.4s-1.2,0.9-2,0.9C144.3,341.1,143.7,340.7,143.3,340.1z M143.3,337.7v0.8c0,0.5,0.2,0.9,0.5,1.3
				s0.7,0.5,1.2,0.5c0.6,0,1-0.2,1.4-0.7s0.5-1.1,0.5-1.9c0-0.7-0.2-1.2-0.5-1.6s-0.7-0.6-1.3-0.6c-0.6,0-1,0.2-1.3,0.6
				S143.3,337.1,143.3,337.7z"/>
			<path d="M149,340.7v-1c0.5,0.4,1.1,0.6,1.7,0.6c0.8,0,1.3-0.3,1.3-0.8c0-0.2,0-0.3-0.1-0.4s-0.2-0.2-0.3-0.3s-0.3-0.2-0.4-0.2
				s-0.3-0.1-0.5-0.2c-0.3-0.1-0.5-0.2-0.7-0.3s-0.4-0.2-0.5-0.4s-0.2-0.3-0.3-0.5s-0.1-0.4-0.1-0.6c0-0.3,0.1-0.5,0.2-0.7
				s0.3-0.4,0.5-0.5s0.5-0.3,0.7-0.3s0.6-0.1,0.9-0.1c0.5,0,1,0.1,1.4,0.3v1c-0.4-0.3-0.9-0.4-1.5-0.4c-0.2,0-0.3,0-0.5,0.1
				s-0.3,0.1-0.4,0.2s-0.2,0.2-0.2,0.3s-0.1,0.2-0.1,0.3c0,0.2,0,0.3,0.1,0.4s0.1,0.2,0.2,0.3s0.2,0.2,0.4,0.2s0.3,0.1,0.5,0.2
				c0.3,0.1,0.5,0.2,0.7,0.3s0.4,0.2,0.5,0.4s0.3,0.3,0.3,0.5s0.1,0.4,0.1,0.6c0,0.3-0.1,0.6-0.2,0.8s-0.3,0.4-0.5,0.5
				s-0.5,0.3-0.8,0.3s-0.6,0.1-0.9,0.1C150,341.1,149.5,341,149,340.7z"/>
			<path d="M154.8,336.1c-0.2,0-0.3-0.1-0.5-0.2s-0.2-0.3-0.2-0.5s0.1-0.3,0.2-0.5s0.3-0.2,0.5-0.2c0.2,0,0.3,0.1,0.5,0.2
				s0.2,0.3,0.2,0.5s-0.1,0.3-0.2,0.5S155,336.1,154.8,336.1z M154.8,341.1c-0.2,0-0.3-0.1-0.5-0.2s-0.2-0.3-0.2-0.5
				s0.1-0.3,0.2-0.5s0.3-0.2,0.5-0.2c0.2,0,0.3,0.1,0.5,0.2s0.2,0.3,0.2,0.5s-0.1,0.3-0.2,0.5S155,341.1,154.8,341.1z"/>
			<path d="M160.9,332.5l-4,9.8h-0.9l4-9.8H160.9z"/>
			<path d="M165.5,332.5l-4,9.8h-0.9l4-9.8H165.5z"/>
			<path d="M171.5,340.5c0,2.2-1.1,3.3-3.2,3.3c-0.7,0-1.4-0.1-1.9-0.4v-1c0.7,0.4,1.3,0.6,1.9,0.6c1.5,0,2.2-0.8,2.2-2.4v-0.7h0
				c-0.5,0.8-1.1,1.1-2.1,1.1c-0.7,0-1.3-0.3-1.8-0.8s-0.7-1.2-0.7-2.1c0-1,0.2-1.8,0.7-2.4s1.2-0.9,2-0.9c0.8,0,1.4,0.3,1.8,1h0
				v-0.8h1V340.5z M170.6,338.2v-0.9c0-0.5-0.2-0.9-0.5-1.2s-0.7-0.5-1.2-0.5c-0.6,0-1.1,0.2-1.4,0.6s-0.5,1-0.5,1.8
				c0,0.7,0.2,1.2,0.5,1.6s0.7,0.6,1.3,0.6c0.5,0,1-0.2,1.3-0.6S170.6,338.8,170.6,338.2z"/>
			<path d="M174,333.4c-0.2,0-0.3-0.1-0.4-0.2s-0.2-0.3-0.2-0.4s0.1-0.3,0.2-0.4s0.3-0.2,0.4-0.2c0.2,0,0.3,0.1,0.4,0.2
				s0.2,0.3,0.2,0.4c0,0.2-0.1,0.3-0.2,0.4S174.2,333.4,174,333.4z M174.4,340.9h-1v-6h1V340.9z"/>
			<path d="M179.2,340.9c-0.2,0.1-0.5,0.2-0.9,0.2c-1.1,0-1.6-0.6-1.6-1.8v-3.6h-1v-0.8h1v-1.5l1-0.3v1.8h1.5v0.8h-1.5v3.4
				c0,0.4,0.1,0.7,0.2,0.9s0.4,0.3,0.7,0.3c0.2,0,0.5-0.1,0.6-0.2V340.9z"/>
			<path d="M185.4,340.9h-1v-3.5c0-1.2-0.5-1.9-1.4-1.9c-0.5,0-0.9,0.2-1.2,0.5s-0.5,0.8-0.5,1.4v3.4h-1v-8.9h1v3.9h0
				c0.5-0.8,1.1-1.1,2-1.1c1.4,0,2,0.8,2,2.4V340.9z"/>
			<path d="M192.1,340.9h-1V340h0c-0.4,0.7-1,1.1-1.9,1.1c-1.4,0-2.1-0.9-2.1-2.6v-3.6h1v3.4c0,1.3,0.5,1.9,1.5,1.9
				c0.5,0,0.9-0.2,1.2-0.5s0.5-0.8,0.5-1.4v-3.5h1V340.9z"/>
			<path d="M195,340.1L195,340.1l0,0.9h-1v-8.9h1v3.9h0c0.5-0.8,1.2-1.2,2.1-1.2c0.8,0,1.4,0.3,1.8,0.8s0.7,1.3,0.7,2.2
				c0,1-0.2,1.8-0.7,2.4s-1.2,0.9-2,0.9C196,341.1,195.4,340.7,195,340.1z M195,337.7v0.8c0,0.5,0.2,0.9,0.5,1.3s0.7,0.5,1.2,0.5
				c0.6,0,1-0.2,1.4-0.7s0.5-1.1,0.5-1.9c0-0.7-0.2-1.2-0.5-1.6s-0.7-0.6-1.3-0.6c-0.6,0-1,0.2-1.3,0.6S195,337.1,195,337.7z"/>
			<path d="M201.4,341.1c-0.2,0-0.3-0.1-0.5-0.2s-0.2-0.3-0.2-0.5s0.1-0.3,0.2-0.5s0.3-0.2,0.5-0.2c0.2,0,0.3,0.1,0.5,0.2
				s0.2,0.3,0.2,0.5s-0.1,0.3-0.2,0.5S201.6,341.1,201.4,341.1z"/>
			<path d="M207.8,340.7c-0.5,0.3-1,0.4-1.6,0.4c-0.9,0-1.5-0.3-2.1-0.8s-0.8-1.3-0.8-2.2c0-1,0.3-1.8,0.8-2.4s1.3-0.9,2.3-0.9
				c0.5,0,1,0.1,1.4,0.3v1c-0.4-0.3-0.9-0.5-1.4-0.5c-0.6,0-1.1,0.2-1.5,0.7s-0.6,1-0.6,1.7c0,0.7,0.2,1.3,0.6,1.7s0.9,0.6,1.5,0.6
				c0.5,0,1-0.2,1.5-0.5V340.7z"/>
			<path d="M211.7,341.1c-0.9,0-1.6-0.3-2.1-0.8s-0.8-1.3-0.8-2.2c0-1,0.3-1.8,0.8-2.4s1.3-0.8,2.2-0.8c0.9,0,1.6,0.3,2.1,0.8
				s0.8,1.3,0.8,2.3c0,1-0.3,1.7-0.8,2.3S212.7,341.1,211.7,341.1z M211.8,335.6c-0.6,0-1.1,0.2-1.5,0.6s-0.5,1-0.5,1.7
				c0,0.7,0.2,1.3,0.5,1.7s0.8,0.6,1.5,0.6c0.6,0,1.1-0.2,1.4-0.6s0.5-1,0.5-1.7c0-0.8-0.2-1.3-0.5-1.7S212.4,335.6,211.8,335.6z"/>
			<path d="M224.8,340.9h-1v-3.4c0-0.7-0.1-1.1-0.3-1.4s-0.5-0.4-1-0.4c-0.4,0-0.8,0.2-1,0.6s-0.4,0.8-0.4,1.3v3.4h-1v-3.6
				c0-1.2-0.5-1.8-1.4-1.8c-0.4,0-0.8,0.2-1,0.5s-0.4,0.8-0.4,1.4v3.4h-1v-6h1v0.9h0c0.4-0.7,1-1.1,1.9-1.1c0.4,0,0.8,0.1,1.1,0.3
				s0.5,0.5,0.6,0.9c0.4-0.8,1.1-1.2,2-1.2c1.3,0,2,0.8,2,2.4V340.9z"/>
			<path d="M230.4,332.5l-4,9.8h-0.9l4-9.8H230.4z"/>
			<path d="M237.9,340.9h-1.1l-0.9-2.4h-3.6l-0.8,2.4h-1.1l3.2-8.4h1L237.9,340.9z M235.6,337.7l-1.3-3.6c0-0.1-0.1-0.3-0.1-0.6h0
				c0,0.2-0.1,0.4-0.1,0.6l-1.3,3.6H235.6z"/>
			<path d="M243.1,340.7c-0.5,0.3-1,0.4-1.6,0.4c-0.9,0-1.5-0.3-2.1-0.8s-0.8-1.3-0.8-2.2c0-1,0.3-1.8,0.8-2.4s1.3-0.9,2.3-0.9
				c0.5,0,1,0.1,1.4,0.3v1c-0.4-0.3-0.9-0.5-1.4-0.5c-0.6,0-1.1,0.2-1.5,0.7s-0.6,1-0.6,1.7c0,0.7,0.2,1.3,0.6,1.7s0.9,0.6,1.5,0.6
				c0.5,0,1-0.2,1.5-0.5V340.7z"/>
			<path d="M249.4,338.2h-4.2c0,0.7,0.2,1.2,0.5,1.5s0.8,0.5,1.4,0.5c0.7,0,1.3-0.2,1.9-0.7v0.9c-0.5,0.4-1.2,0.6-2.1,0.6
				c-0.8,0-1.5-0.3-2-0.8s-0.7-1.3-0.7-2.3c0-0.9,0.3-1.7,0.8-2.3s1.2-0.9,2-0.9s1.4,0.3,1.8,0.8s0.6,1.2,0.6,2.1V338.2z
				 M248.4,337.4c0-0.6-0.1-1-0.4-1.3s-0.6-0.5-1.1-0.5c-0.5,0-0.8,0.2-1.2,0.5s-0.5,0.7-0.6,1.3H248.4z"/>
			<path d="M256.8,340.9h-1.4l-3.2-3.8c-0.1-0.1-0.2-0.2-0.2-0.3h0v4.1h-1v-8.4h1v3.9h0c0.1-0.1,0.1-0.2,0.2-0.3l3.1-3.7h1.2l-3.6,4
				L256.8,340.9z"/>
			<path d="M258.3,333.4c-0.2,0-0.3-0.1-0.4-0.2s-0.2-0.3-0.2-0.4s0.1-0.3,0.2-0.4s0.3-0.2,0.4-0.2c0.2,0,0.3,0.1,0.4,0.2
				s0.2,0.3,0.2,0.4c0,0.2-0.1,0.3-0.2,0.4S258.5,333.4,258.3,333.4z M258.8,340.9h-1v-6h1V340.9z"/>
			<path d="M263.8,335.9c-0.2-0.1-0.4-0.2-0.7-0.2c-0.4,0-0.8,0.2-1,0.6s-0.4,0.9-0.4,1.6v3.1h-1v-6h1v1.2h0c0.1-0.4,0.3-0.8,0.6-1
				s0.6-0.4,0.9-0.4c0.2,0,0.4,0,0.6,0.1V335.9z"/>
			<path d="M267.4,341.1c-0.9,0-1.6-0.3-2.1-0.8s-0.8-1.3-0.8-2.2c0-1,0.3-1.8,0.8-2.4s1.3-0.8,2.2-0.8c0.9,0,1.6,0.3,2.1,0.8
				s0.8,1.3,0.8,2.3c0,1-0.3,1.7-0.8,2.3S268.3,341.1,267.4,341.1z M267.5,335.6c-0.6,0-1.1,0.2-1.5,0.6s-0.5,1-0.5,1.7
				c0,0.7,0.2,1.3,0.5,1.7s0.8,0.6,1.5,0.6c0.6,0,1.1-0.2,1.4-0.6s0.5-1,0.5-1.7c0-0.8-0.2-1.3-0.5-1.7S268.1,335.6,267.5,335.6z"/>
			<path d="M276.9,340.9h-1v-3.4c0-1.3-0.5-1.9-1.4-1.9c-0.5,0-0.9,0.2-1.2,0.5s-0.5,0.8-0.5,1.4v3.4h-1v-6h1v1h0
				c0.5-0.8,1.1-1.1,2-1.1c0.7,0,1.2,0.2,1.5,0.6s0.5,1,0.5,1.8V340.9z"/>
			<path d="M282.5,332.5l-4,9.8h-0.9l4-9.8H282.5z"/>
			<path d="M287.7,340.9h-1V340h0c-0.4,0.7-1,1.1-1.8,1.1c-0.6,0-1.1-0.2-1.4-0.5s-0.5-0.7-0.5-1.3c0-1.1,0.7-1.8,2-2l1.8-0.3
				c0-1-0.4-1.5-1.2-1.5c-0.7,0-1.4,0.2-2,0.7v-1c0.6-0.4,1.3-0.6,2-0.6c1.4,0,2.1,0.7,2.1,2.2V340.9z M286.7,337.9l-1.4,0.2
				c-0.4,0.1-0.8,0.2-1,0.3s-0.3,0.4-0.3,0.8c0,0.3,0.1,0.5,0.3,0.7s0.5,0.3,0.8,0.3c0.5,0,0.9-0.2,1.2-0.5s0.5-0.8,0.5-1.3V337.9z"
				/>
			<path d="M292.6,335.9c-0.2-0.1-0.4-0.2-0.7-0.2c-0.4,0-0.8,0.2-1,0.6s-0.4,0.9-0.4,1.6v3.1h-1v-6h1v1.2h0c0.1-0.4,0.3-0.8,0.6-1
				s0.6-0.4,0.9-0.4c0.2,0,0.4,0,0.6,0.1V335.9z"/>
			<path d="M296.4,340.9c-0.2,0.1-0.5,0.2-0.9,0.2c-1.1,0-1.6-0.6-1.6-1.8v-3.6h-1v-0.8h1v-1.5l1-0.3v1.8h1.5v0.8h-1.5v3.4
				c0,0.4,0.1,0.7,0.2,0.9s0.4,0.3,0.7,0.3c0.2,0,0.5-0.1,0.6-0.2V340.9z"/>
			<path d="M298.2,333.4c-0.2,0-0.3-0.1-0.4-0.2s-0.2-0.3-0.2-0.4s0.1-0.3,0.2-0.4s0.3-0.2,0.4-0.2c0.2,0,0.3,0.1,0.4,0.2
				s0.2,0.3,0.2,0.4c0,0.2-0.1,0.3-0.2,0.4S298.4,333.4,298.2,333.4z M298.7,340.9h-1v-6h1V340.9z"/>
			<path d="M303.6,332.9c-0.2-0.1-0.4-0.2-0.6-0.2c-0.7,0-1,0.4-1,1.3v0.9h1.4v0.8h-1.4v5.2h-1v-5.2h-1v-0.8h1v-1
				c0-0.6,0.2-1.1,0.5-1.5s0.8-0.5,1.4-0.5c0.3,0,0.5,0,0.7,0.1V332.9z"/>
			<path d="M308.7,340.9h-1V340h0c-0.4,0.7-1,1.1-1.8,1.1c-0.6,0-1.1-0.2-1.4-0.5s-0.5-0.7-0.5-1.3c0-1.1,0.7-1.8,2-2l1.8-0.3
				c0-1-0.4-1.5-1.2-1.5c-0.7,0-1.4,0.2-2,0.7v-1c0.6-0.4,1.3-0.6,2-0.6c1.4,0,2.1,0.7,2.1,2.2V340.9z M307.7,337.9l-1.4,0.2
				c-0.4,0.1-0.8,0.2-1,0.3s-0.3,0.4-0.3,0.8c0,0.3,0.1,0.5,0.3,0.7s0.5,0.3,0.8,0.3c0.5,0,0.9-0.2,1.2-0.5s0.5-0.8,0.5-1.3V337.9z"
				/>
			<path d="M314.6,340.7c-0.5,0.3-1,0.4-1.6,0.4c-0.9,0-1.5-0.3-2.1-0.8s-0.8-1.3-0.8-2.2c0-1,0.3-1.8,0.8-2.4s1.3-0.9,2.3-0.9
				c0.5,0,1,0.1,1.4,0.3v1c-0.4-0.3-0.9-0.5-1.4-0.5c-0.6,0-1.1,0.2-1.5,0.7s-0.6,1-0.6,1.7c0,0.7,0.2,1.3,0.6,1.7s0.9,0.6,1.5,0.6
				c0.5,0,1-0.2,1.5-0.5V340.7z"/>
			<path d="M318.8,340.9c-0.2,0.1-0.5,0.2-0.9,0.2c-1.1,0-1.6-0.6-1.6-1.8v-3.6h-1v-0.8h1v-1.5l1-0.3v1.8h1.5v0.8h-1.5v3.4
				c0,0.4,0.1,0.7,0.2,0.9s0.4,0.3,0.7,0.3c0.2,0,0.5-0.1,0.6-0.2V340.9z"/>
			<path d="M323.2,338H320v-0.8h3.2V338z"/>
			<path d="M328.4,334.7c0-0.3,0-0.5-0.1-0.7s-0.2-0.4-0.3-0.5s-0.3-0.2-0.5-0.3s-0.4-0.1-0.6-0.1c-0.2,0-0.4,0-0.6,0.1
				s-0.4,0.1-0.5,0.2s-0.3,0.2-0.5,0.3s-0.3,0.3-0.4,0.4v-1c0.3-0.3,0.6-0.5,0.9-0.6s0.7-0.2,1.2-0.2c0.3,0,0.7,0,1,0.1
				s0.5,0.2,0.8,0.4s0.4,0.4,0.5,0.7s0.2,0.6,0.2,1c0,0.3,0,0.6-0.1,0.9s-0.2,0.5-0.3,0.8s-0.3,0.5-0.6,0.7s-0.5,0.4-0.8,0.7
				c-0.4,0.3-0.7,0.5-1,0.7s-0.5,0.4-0.6,0.6s-0.3,0.3-0.3,0.5s-0.1,0.4-0.1,0.6h4.2v0.9h-5.2v-0.4c0-0.4,0-0.7,0.1-0.9
				s0.2-0.5,0.4-0.8s0.4-0.5,0.7-0.7s0.6-0.5,1.1-0.8c0.3-0.2,0.6-0.4,0.8-0.6s0.4-0.4,0.5-0.6s0.2-0.4,0.3-0.6
				S328.4,335,328.4,334.7z"/>
			<path d="M333.5,341.1c-0.8,0-1.5-0.4-1.9-1.1s-0.7-1.7-0.7-3.1c0-1.5,0.2-2.6,0.7-3.4s1.2-1.1,2.1-1.1c1.8,0,2.6,1.4,2.6,4.3
				c0,1.4-0.2,2.5-0.7,3.3S334.4,341.1,333.5,341.1z M333.7,333.2c-1.2,0-1.8,1.2-1.8,3.7c0,2.3,0.6,3.4,1.8,3.4
				c1.2,0,1.7-1.2,1.7-3.5C335.4,334.4,334.8,333.2,333.7,333.2z"/>
			<path d="M341.4,334.7c0-0.3,0-0.5-0.1-0.7s-0.2-0.4-0.3-0.5s-0.3-0.2-0.5-0.3s-0.4-0.1-0.6-0.1c-0.2,0-0.4,0-0.6,0.1
				s-0.4,0.1-0.5,0.2s-0.3,0.2-0.5,0.3s-0.3,0.3-0.4,0.4v-1c0.3-0.3,0.6-0.5,0.9-0.6s0.7-0.2,1.2-0.2c0.3,0,0.7,0,1,0.1
				s0.5,0.2,0.8,0.4s0.4,0.4,0.5,0.7s0.2,0.6,0.2,1c0,0.3,0,0.6-0.1,0.9s-0.2,0.5-0.3,0.8s-0.3,0.5-0.6,0.7s-0.5,0.4-0.8,0.7
				c-0.4,0.3-0.7,0.5-1,0.7s-0.5,0.4-0.6,0.6s-0.3,0.3-0.3,0.5s-0.1,0.4-0.1,0.6h4.2v0.9h-5.2v-0.4c0-0.4,0-0.7,0.1-0.9
				s0.2-0.5,0.4-0.8s0.4-0.5,0.7-0.7s0.6-0.5,1.1-0.8c0.3-0.2,0.6-0.4,0.8-0.6s0.4-0.4,0.5-0.6s0.2-0.4,0.3-0.6
				S341.4,335,341.4,334.7z"/>
			<path d="M344.1,340.6v-1c0.6,0.5,1.2,0.7,1.9,0.7c0.6,0,1.1-0.1,1.4-0.4s0.5-0.7,0.5-1.2c0-1.1-0.8-1.6-2.3-1.6h-0.7v-0.8h0.7
				c1.4,0,2.1-0.5,2.1-1.5c0-1-0.5-1.4-1.6-1.4c-0.6,0-1.1,0.2-1.7,0.6v-0.9c0.5-0.3,1.2-0.5,1.9-0.5c0.7,0,1.3,0.2,1.7,0.6
				s0.6,0.9,0.6,1.4c0,1.1-0.6,1.8-1.7,2.1v0c0.6,0.1,1.1,0.3,1.4,0.6s0.5,0.8,0.5,1.4c0,0.8-0.3,1.4-0.8,1.8s-1.3,0.7-2.1,0.7
				C345.2,341.1,344.6,340.9,344.1,340.6z"/>
		</g>
	</g>
</g>
</svg>
