<?xml version="1.0" encoding="utf-8"?>
<!-- Generator: Adobe Illustrator 26.3.1, SVG Export Plug-In . SVG Version: 6.00 Build 0)  -->
<svg version="1.1" id="Laag_1" xmlns="http://www.w3.org/2000/svg" xmlns:xlink="http://www.w3.org/1999/xlink" x="0px" y="0px"
	 viewBox="0 0 1261.4 592.4" style="enable-background:new 0 0 1261.4 592.4;" xml:space="preserve">
<style type="text/css">
	.st0{fill:none;stroke:#FF0000;stroke-width:0.2835;stroke-linecap:round;stroke-miterlimit:11.3386;}
	.st1{fill:none;stroke:#FF0000;stroke-width:0.2835;stroke-miterlimit:11.3386;}
	.st2{font-family:'ArialMT';}
	.st3{font-size:25.0116px;}
</style>
<g id="Laag_1_00000132789905195320894250000004035809202076472478_">
	<g id="svgGroup">
		<path id="front_outsideCutPath" vector-effect="non-scaling-stroke" class="st0" d="M0,413.9v38.3h11.3v34H0v34h11.3v34H0v34v4.3
			h51v-11.3h34v11.3h34v-11.3h34v11.3h34v-11.3h34v11.3h34v-11.3h34v11.3h34v-11.3h34v11.3h34v-11.3h34v11.3h34h17v-38.3h-11.3v-34
			H476v-34h-11.3v-34H476v-34v-4.3h-51v11.3h-34v-11.3h-34v11.3h-34v-11.3h-34v11.3h-34v-11.3h-34v11.3h-34v-11.3h-34v11.3h-34
			v-11.3H85v11.3H51v-11.3H17L0,413.9L0,413.9z"/>
		<path id="left_outsideCutPath" vector-effect="non-scaling-stroke" class="st0" d="M496.1,413.9v38.3h-11.3v34h11.3v34h-11.3v34
			h11.3v34v4.3h15.6v-11.3h34v11.3h34v-11.3h34v11.3h34v-11.3h34v11.3h34v-11.3h34v11.3h15.6v-38.3h11.3v-34h-11.3v-34h11.3v-34
			h-11.3v-34v-4.3h-15.6v11.3h-34v-11.3h-34v11.3h-34v-11.3h-34v11.3h-34v-11.3h-34v11.3h-34v-11.3L496.1,413.9L496.1,413.9z"/>
		<path id="top_outsideCutPath" vector-effect="non-scaling-stroke" class="st0" d="M796.5,311.8v15.6h-11.3v34h11.3v34h-11.3v34
			h11.3v34h-11.3v34h11.3v34h-11.3v34h11.3V581h39.7v11.3h34V581h34v11.3h34V581h34v11.3h34V581h34v11.3h34V581h34v11.3h34V581h34
			v11.3h34V581h34h5.7v-15.6h11.3v-34h-11.3v-34h11.3v-34h-11.3v-34h11.3v-34h-11.3v-34h11.3v-34h-11.3v-15.6h-39.7v-11.3h-34v11.3
			h-34v-11.3h-34v11.3h-34v-11.3h-34v11.3h-34v-11.3h-34v11.3h-34v-11.3h-34v11.3h-34v-11.3h-34v11.3h-34L796.5,311.8L796.5,311.8z"
			/>
		<path id="back_outsideCutPath" vector-effect="non-scaling-stroke" class="st0" d="M0,226.8V265h11.3v34H0v34h11.3v34H0v34v4.3h51
			V394h34v11.3h34V394h34v11.3h34V394h34v11.3h34V394h34v11.3h34V394h34v11.3h34V394h34v11.3h34h17V367h-11.3v-34H476v-34h-11.3v-34
			H476v-34v-4.3h-51V238h-34v-11.3h-34V238h-34v-11.3h-34V238h-34v-11.3h-34V238h-34v-11.3h-34V238h-34v-11.3H85V238H51v-11.3H17H0
			V226.8z"/>
		<path id="right_outsideCutPath" vector-effect="non-scaling-stroke" class="st0" d="M496.1,226.8V265h-11.3v34h11.3v34h-11.3v34
			h11.3v34v4.3h15.6V394h34v11.3h34V394h34v11.3h34V394h34v11.3h34V394h34v11.3h15.6V367h11.3v-34h-11.3v-34h11.3v-34h-11.3v-34
			v-4.3h-15.6V238h-34v-11.3h-34V238h-34v-11.3h-34V238h-34v-11.3h-34V238h-34v-11.3h-15.6V226.8z"/>
		<path id="bottom_outsideCutPath" vector-effect="non-scaling-stroke" class="st0" d="M796.5,11.3v15.6h-11.3v34h11.3v34h-11.3v34
			h11.3v34h-11.3v34h11.3v34h-11.3v34h11.3v15.6h39.7V292h34v-11.3h34V292h34v-11.3h34V292h34v-11.3h34V292h34v-11.3h34V292h34
			v-11.3h34V292h34v-11.3h34h5.7V265h11.3v-34h-11.3v-34h11.3v-34h-11.3v-34h11.3V95h-11.3V61h11.3V27h-11.3V11.3h-39.7V0h-34v11.3
			h-34V0h-34v11.3h-34V0h-34v11.3h-34V0h-34v11.3h-34V0h-34v11.3h-34V0h-34v11.3h-34H796.5z"/>
	</g>
</g>
<g id="Laag_2_00000145022321310810369160000017561904705444384191_">
	<rect x="894.9" y="113.1" class="st1" width="76.5" height="76.5"/>
	<rect x="1035.4" y="42.2" class="st1" width="195.6" height="215.4"/>
	<text transform="matrix(1 0 0 1 105.772 299.1745)" class="st2 st3">Informatica artifact 2023</text>
	<text transform="matrix(1 0 0 1 12.187 329.1891)" class="st2 st3">https://github.com/AceKiron/artifact-2023</text>
</g>
</svg>
