<?xml version="1.0" encoding="utf-8"?>
<!-- Generator: Adobe Illustrator 27.6.1, SVG Export Plug-In . SVG Version: 6.00 Build 0)  -->
<svg version="1.1" id="Layer_1" xmlns="http://www.w3.org/2000/svg" xmlns:xlink="http://www.w3.org/1999/xlink" x="0px" y="0px"
	 viewBox="0 0 2211 1471.2" style="enable-background:new 0 0 2211 1471.2;" xml:space="preserve">
<style type="text/css">
	.st0{fill:none;stroke:#FF0000;stroke-width:0.2835;stroke-linecap:round;stroke-miterlimit:11.3386;}
	.st1{font-family:'MyriadPro-Regular';}
	.st2{font-size:40px;}
	.st3{fill:none;stroke:#00FF00;stroke-miterlimit:10;}
</style>
<g id="svgGroup">
	<path id="front_outsideCutPath" vector-effect="non-scaling-stroke" class="st0" d="M0,952.4v60.9h11.3v56.7H0v56.7h11.3v56.7H0
		v56.7h11.3v56.7H0v56.7h11.3v56.7H0v60.9h53.9v-11.3h56.7v11.3h56.7v-11.3h56.7v11.3h56.7v-11.3h56.7v11.3H394v-11.3h56.7v11.3
		h56.7v-11.3h56.7v11.3h56.7v-11.3h56.7v11.3h53.9v-60.9H720v-56.7h11.3v-56.7H720v-56.7h11.3v-56.7H720v-56.7h11.3v-56.7H720v-56.7
		h11.3v-60.9h-53.9v11.3h-56.7v-11.3h-56.7v11.3h-56.7v-11.3h-56.7v11.3H394v-11.3h-56.7v11.3h-56.7v-11.3h-56.7v11.3h-56.7v-11.3
		h-56.7v11.3H53.9v-11.3H0z"/>
	<path id="left_outsideCutPath" vector-effect="non-scaling-stroke" class="st0" d="M751.2,952.4v60.9h-11.3v56.7h11.3v56.7h-11.3
		v56.7h11.3v56.7h-11.3v56.7h11.3v56.7h-11.3v56.7h11.3v60.9h42.5v-11.3h56.7v11.3h56.7v-11.3h56.7v11.3h56.7v-11.3h56.7v11.3h56.7
		v-11.3h56.7v11.3h56.7v-11.3h56.7v11.3h56.7v-11.3h56.7v11.3h42.5v-60.9h11.3v-56.7h-11.3v-56.7h11.3v-56.7h-11.3v-56.7h11.3v-56.7
		h-11.3v-56.7h11.3v-56.7h-11.3v-60.9h-42.5v11.3h-56.7v-11.3h-56.7v11.3h-56.7v-11.3h-56.7v11.3h-56.7v-11.3h-56.7v11.3h-56.7
		v-11.3h-56.7v11.3h-56.7v-11.3h-56.7v11.3h-56.7v-11.3H751.2z"/>
	<path id="top_outsideCutPath" vector-effect="non-scaling-stroke" class="st0" d="M1491,751.2v42.5h-11.3v56.7h11.3v56.7h-11.3
		v56.7h11.3v56.7h-11.3v56.7h11.3v56.7h-11.3v56.7h11.3v56.7h-11.3v56.7h11.3v56.7h-11.3v56.7h11.3v42.5h42.5v11.3h56.7v-11.3h56.7
		v11.3h56.7v-11.3h56.7v11.3h56.7v-11.3h56.7v11.3h56.7v-11.3h56.7v11.3h56.7v-11.3h56.7v11.3h56.7v-11.3h42.5v-42.5h11.3v-56.7
		h-11.3v-56.7h11.3v-56.7h-11.3v-56.7h11.3v-56.7h-11.3v-56.7h11.3v-56.7h-11.3v-56.7h11.3v-56.7h-11.3v-56.7h11.3v-56.7h-11.3
		v-42.5h-42.5v-11.3h-56.7v11.3h-56.7v-11.3h-56.7v11.3h-56.7v-11.3h-56.7v11.3H1817v-11.3h-56.7v11.3h-56.7v-11.3h-56.7v11.3h-56.7
		v-11.3h-56.7v11.3H1491z"/>
	<path id="back_outsideCutPath" vector-effect="non-scaling-stroke" class="st0" d="M0,425.2v60.9h11.3v56.7H0v56.7h11.3v56.7H0
		v56.7h11.3v56.7H0v56.7h11.3V883H0v60.9h53.9v-11.3h56.7v11.3h56.7v-11.3h56.7v11.3h56.7v-11.3h56.7v11.3H394v-11.3h56.7v11.3h56.7
		v-11.3h56.7v11.3h56.7v-11.3h56.7v11.3h53.9V883H720v-56.7h11.3v-56.7H720v-56.7h11.3v-56.7H720v-56.7h11.3v-56.7H720v-56.7h11.3
		v-60.9h-53.9v11.3h-56.7v-11.3h-56.7v11.3h-56.7v-11.3h-56.7v11.3H394v-11.3h-56.7v11.3h-56.7v-11.3h-56.7v11.3h-56.7v-11.3h-56.7
		v11.3H53.9v-11.3H0z"/>
	<path id="right_outsideCutPath" vector-effect="non-scaling-stroke" class="st0" d="M751.2,425.2v60.9h-11.3v56.7h11.3v56.7h-11.3
		v56.7h11.3v56.7h-11.3v56.7h11.3v56.7h-11.3V883h11.3v60.9h42.5v-11.3h56.7v11.3h56.7v-11.3h56.7v11.3h56.7v-11.3h56.7v11.3h56.7
		v-11.3h56.7v11.3h56.7v-11.3h56.7v11.3h56.7v-11.3h56.7v11.3h42.5V883h11.3v-56.7h-11.3v-56.7h11.3v-56.7h-11.3v-56.7h11.3v-56.7
		h-11.3v-56.7h11.3v-56.7h-11.3v-60.9h-42.5v11.3h-56.7v-11.3h-56.7v11.3h-56.7v-11.3h-56.7v11.3h-56.7v-11.3h-56.7v11.3h-56.7
		v-11.3h-56.7v11.3h-56.7v-11.3h-56.7v11.3h-56.7v-11.3H751.2z"/>
	<path id="bottom_outsideCutPath" vector-effect="non-scaling-stroke" class="st0" d="M1491,11.3v42.5h-11.3v56.7h11.3v56.7h-11.3
		v56.7h11.3v56.7h-11.3v56.7h11.3V394h-11.3v56.7h11.3v56.7h-11.3v56.7h11.3v56.7h-11.3v56.7h11.3V720h42.5v11.3h56.7V720h56.7v11.3
		h56.7V720h56.7v11.3h56.7V720h56.7v11.3h56.7V720h56.7v11.3h56.7V720h56.7v11.3h56.7V720h42.5v-42.5h11.3v-56.7h-11.3v-56.7h11.3
		v-56.7h-11.3v-56.7h11.3V394h-11.3v-56.7h11.3v-56.7h-11.3v-56.7h11.3v-56.7h-11.3v-56.7h11.3V53.9h-11.3V11.3h-42.5V0h-56.7v11.3
		h-56.7V0h-56.7v11.3h-56.7V0h-56.7v11.3H1817V0h-56.7v11.3h-56.7V0h-56.7v11.3h-56.7V0h-56.7v11.3H1491z"/>
</g>
<text transform="matrix(1 0 0 1 116.0531 1186.8412)"><tspan x="0" y="0" class="st1 st2">Informatica artifact VWO 2023</tspan><tspan x="-103.4" y="48" class="st1 st2">https://github.com/AceKiron/artifact-2023</tspan></text>
<rect x="1964" y="1067.2" class="st3" width="76.5" height="76.5"/>
<rect x="1581.3" y="1006.3" class="st3" width="218.3" height="198.4"/>
</svg>
