<svg width="445mm" height="209mm" viewBox="0 0 445 209" xmlns="http://www.w3.org/2000/svg" version="1.1" preserveAspectRatio="xMidYMid meet"><g id="svgGroup" stroke-linecap="round" fill-rule="evenodd" font-size="9pt" stroke="#000" stroke-width="0.25mm" fill="none" style="stroke:#000;stroke-width:0.25mm;fill:none"><path d="M 0 146 L 0 159.5 L 4 159.5 L 4 171.5 L 0 171.5 L 0 183.5 L 4 183.5 L 4 195.5 L 0 195.5 L 0 207.5 L 0 209 L 18 209 L 18 205 L 30 205 L 30 209 L 42 209 L 42 205 L 54 205 L 54 209 L 66 209 L 66 205 L 78 205 L 78 209 L 90 209 L 90 205 L 102 205 L 102 209 L 114 209 L 114 205 L 126 205 L 126 209 L 138 209 L 138 205 L 150 205 L 150 209 L 162 209 L 168 209 L 168 195.5 L 164 195.5 L 164 183.5 L 168 183.5 L 168 171.5 L 164 171.5 L 164 159.5 L 168 159.5 L 168 147.5 L 168 146 L 150 146 L 150 150 L 138 150 L 138 146 L 126 146 L 126 150 L 114 150 L 114 146 L 102 146 L 102 150 L 90 150 L 90 146 L 78 146 L 78 150 L 66 150 L 66 146 L 54 146 L 54 150 L 42 150 L 42 146 L 30 146 L 30 150 L 18 150 L 18 146 L 6 146 L 0 146 Z" id="front_outsideCutPath" stroke="#FF0000" stroke-width="0.1" style="stroke:#FF0000;stroke-width:0.1" vector-effect="non-scaling-stroke"/><path d="M 175 146 L 175 159.5 L 171 159.5 L 171 171.5 L 175 171.5 L 175 183.5 L 171 183.5 L 171 195.5 L 175 195.5 L 175 207.5 L 175 209 L 180.5 209 L 180.5 205 L 192.5 205 L 192.5 209 L 204.5 209 L 204.5 205 L 216.5 205 L 216.5 209 L 228.5 209 L 228.5 205 L 240.5 205 L 240.5 209 L 252.5 209 L 252.5 205 L 264.5 205 L 264.5 209 L 270 209 L 270 195.5 L 274 195.5 L 274 183.5 L 270 183.5 L 270 171.5 L 274 171.5 L 274 159.5 L 270 159.5 L 270 147.5 L 270 146 L 264.5 146 L 264.5 150 L 252.5 150 L 252.5 146 L 240.5 146 L 240.5 150 L 228.5 150 L 228.5 146 L 216.5 146 L 216.5 150 L 204.5 150 L 204.5 146 L 192.5 146 L 192.5 150 L 180.5 150 L 180.5 146 L 175 146 Z" id="left_outsideCutPath" stroke="#FF0000" stroke-width="0.1" style="stroke:#FF0000;stroke-width:0.1" vector-effect="non-scaling-stroke"/><path d="M 281 110 L 281 115.5 L 277 115.5 L 277 127.5 L 281 127.5 L 281 139.5 L 277 139.5 L 277 151.5 L 281 151.5 L 281 163.5 L 277 163.5 L 277 175.5 L 281 175.5 L 281 187.5 L 277 187.5 L 277 199.5 L 281 199.5 L 281 205 L 295 205 L 295 209 L 307 209 L 307 205 L 319 205 L 319 209 L 331 209 L 331 205 L 343 205 L 343 209 L 355 209 L 355 205 L 367 205 L 367 209 L 379 209 L 379 205 L 391 205 L 391 209 L 403 209 L 403 205 L 415 205 L 415 209 L 427 209 L 427 205 L 439 205 L 441 205 L 441 199.5 L 445 199.5 L 445 187.5 L 441 187.5 L 441 175.5 L 445 175.5 L 445 163.5 L 441 163.5 L 441 151.5 L 445 151.5 L 445 139.5 L 441 139.5 L 441 127.5 L 445 127.5 L 445 115.5 L 441 115.5 L 441 110 L 427 110 L 427 106 L 415 106 L 415 110 L 403 110 L 403 106 L 391 106 L 391 110 L 379 110 L 379 106 L 367 106 L 367 110 L 355 110 L 355 106 L 343 106 L 343 110 L 331 110 L 331 106 L 319 106 L 319 110 L 307 110 L 307 106 L 295 106 L 295 110 L 283 110 L 281 110 Z" id="top_outsideCutPath" stroke="#FF0000" stroke-width="0.1" style="stroke:#FF0000;stroke-width:0.1" vector-effect="non-scaling-stroke"/><path d="M 0 80 L 0 93.5 L 4 93.5 L 4 105.5 L 0 105.5 L 0 117.5 L 4 117.5 L 4 129.5 L 0 129.5 L 0 141.5 L 0 143 L 18 143 L 18 139 L 30 139 L 30 143 L 42 143 L 42 139 L 54 139 L 54 143 L 66 143 L 66 139 L 78 139 L 78 143 L 90 143 L 90 139 L 102 139 L 102 143 L 114 143 L 114 139 L 126 139 L 126 143 L 138 143 L 138 139 L 150 139 L 150 143 L 162 143 L 168 143 L 168 129.5 L 164 129.5 L 164 117.5 L 168 117.5 L 168 105.5 L 164 105.5 L 164 93.5 L 168 93.5 L 168 81.5 L 168 80 L 150 80 L 150 84 L 138 84 L 138 80 L 126 80 L 126 84 L 114 84 L 114 80 L 102 80 L 102 84 L 90 84 L 90 80 L 78 80 L 78 84 L 66 84 L 66 80 L 54 80 L 54 84 L 42 84 L 42 80 L 30 80 L 30 84 L 18 84 L 18 80 L 6 80 L 0 80 Z" id="back_outsideCutPath" stroke="#FF0000" stroke-width="0.1" style="stroke:#FF0000;stroke-width:0.1" vector-effect="non-scaling-stroke"/><path d="M 175 80 L 175 93.5 L 171 93.5 L 171 105.5 L 175 105.5 L 175 117.5 L 171 117.5 L 171 129.5 L 175 129.5 L 175 141.5 L 175 143 L 180.5 143 L 180.5 139 L 192.5 139 L 192.5 143 L 204.5 143 L 204.5 139 L 216.5 139 L 216.5 143 L 228.5 143 L 228.5 139 L 240.5 139 L 240.5 143 L 252.5 143 L 252.5 139 L 264.5 139 L 264.5 143 L 270 143 L 270 129.5 L 274 129.5 L 274 117.5 L 270 117.5 L 270 105.5 L 274 105.5 L 274 93.5 L 270 93.5 L 270 81.5 L 270 80 L 264.5 80 L 264.5 84 L 252.5 84 L 252.5 80 L 240.5 80 L 240.5 84 L 228.5 84 L 228.5 80 L 216.5 80 L 216.5 84 L 204.5 84 L 204.5 80 L 192.5 80 L 192.5 84 L 180.5 84 L 180.5 80 L 175 80 Z" id="right_outsideCutPath" stroke="#FF0000" stroke-width="0.1" style="stroke:#FF0000;stroke-width:0.1" vector-effect="non-scaling-stroke"/><path d="M 281 4 L 281 9.5 L 277 9.5 L 277 21.5 L 281 21.5 L 281 33.5 L 277 33.5 L 277 45.5 L 281 45.5 L 281 57.5 L 277 57.5 L 277 69.5 L 281 69.5 L 281 81.5 L 277 81.5 L 277 93.5 L 281 93.5 L 281 99 L 295 99 L 295 103 L 307 103 L 307 99 L 319 99 L 319 103 L 331 103 L 331 99 L 343 99 L 343 103 L 355 103 L 355 99 L 367 99 L 367 103 L 379 103 L 379 99 L 391 99 L 391 103 L 403 103 L 403 99 L 415 99 L 415 103 L 427 103 L 427 99 L 439 99 L 441 99 L 441 93.5 L 445 93.5 L 445 81.5 L 441 81.5 L 441 69.5 L 445 69.5 L 445 57.5 L 441 57.5 L 441 45.5 L 445 45.5 L 445 33.5 L 441 33.5 L 441 21.5 L 445 21.5 L 445 9.5 L 441 9.5 L 441 4 L 427 4 L 427 0 L 415 0 L 415 4 L 403 4 L 403 0 L 391 0 L 391 4 L 379 4 L 379 0 L 367 0 L 367 4 L 355 4 L 355 0 L 343 0 L 343 4 L 331 4 L 331 0 L 319 0 L 319 4 L 307 4 L 307 0 L 295 0 L 295 4 L 283 4 L 281 4 Z" id="bottom_outsideCutPath" stroke="#FF0000" stroke-width="0.1" style="stroke:#FF0000;stroke-width:0.1" vector-effect="non-scaling-stroke"/></g></svg>