<svg width="780mm" height="519mm" viewBox="0 0 780 519" xmlns="http://www.w3.org/2000/svg" version="1.1" preserveAspectRatio="xMidYMid meet"><g id="svgGroup" stroke-linecap="round" fill-rule="evenodd" font-size="9pt" stroke="#000" stroke-width="0.25mm" fill="none" style="stroke:#000;stroke-width:0.25mm;fill:none"><path d="M 0 336 L 0 357.5 L 4 357.5 L 4 377.5 L 0 377.5 L 0 397.5 L 4 397.5 L 4 417.5 L 0 417.5 L 0 437.5 L 4 437.5 L 4 457.5 L 0 457.5 L 0 477.5 L 4 477.5 L 4 497.5 L 0 497.5 L 0 519 L 19 519 L 19 515 L 39 515 L 39 519 L 59 519 L 59 515 L 79 515 L 79 519 L 99 519 L 99 515 L 119 515 L 119 519 L 139 519 L 139 515 L 159 515 L 159 519 L 179 519 L 179 515 L 199 515 L 199 519 L 219 519 L 219 515 L 239 515 L 239 519 L 258 519 L 258 497.5 L 254 497.5 L 254 477.5 L 258 477.5 L 258 457.5 L 254 457.5 L 254 437.5 L 258 437.5 L 258 417.5 L 254 417.5 L 254 397.5 L 258 397.5 L 258 377.5 L 254 377.5 L 254 357.5 L 258 357.5 L 258 336 L 239 336 L 239 340 L 219 340 L 219 336 L 199 336 L 199 340 L 179 340 L 179 336 L 159 336 L 159 340 L 139 340 L 139 336 L 119 336 L 119 340 L 99 340 L 99 336 L 79 336 L 79 340 L 59 340 L 59 336 L 39 336 L 39 340 L 19 340 L 19 336 L 0 336 Z" id="front_outsideCutPath" stroke="#FF0000" stroke-width="0.1" style="stroke:#FF0000;stroke-width:0.1" vector-effect="non-scaling-stroke"/><path d="M 155.673 441.323 L 152.706 441.323 L 152.706 428.652 A 8.386 8.386 0 0 0 152.61 427.338 Q 152.382 425.907 151.616 425.078 A 3.345 3.345 0 0 0 150.244 424.203 Q 149.705 424.013 149.043 423.941 A 7.865 7.865 0 0 0 148.202 423.899 Q 146.178 423.899 144.866 424.62 A 4.183 4.183 0 0 0 143.699 425.561 Q 142.393 427.079 142.28 430.403 A 19.005 19.005 0 0 0 142.269 431.047 L 142.269 441.323 L 139.303 441.323 L 139.303 421.736 L 141.715 421.736 L 142.198 424.417 L 142.341 424.417 A 6.007 6.007 0 0 1 144.694 422.276 A 7.224 7.224 0 0 1 144.896 422.174 A 8.033 8.033 0 0 1 147.755 421.412 A 9.714 9.714 0 0 1 148.56 421.379 A 11.713 11.713 0 0 1 150.554 421.537 Q 152.643 421.899 153.885 423.085 Q 155.673 424.792 155.673 428.545 L 155.673 441.323 Z M 98.682 421.736 L 98.682 424.042 L 93.696 424.042 L 93.696 441.323 L 90.729 441.323 L 90.729 424.042 L 87.226 424.042 L 87.226 422.701 L 90.729 421.629 L 90.729 420.539 Q 90.729 414.306 95.43 413.454 A 9.017 9.017 0 0 1 97.038 413.319 A 9.553 9.553 0 0 1 98.389 413.422 Q 99.047 413.516 99.779 413.697 A 19.204 19.204 0 0 1 100.683 413.944 L 99.915 416.321 Q 98.696 415.928 97.73 415.814 A 6.38 6.38 0 0 0 96.984 415.767 A 4.001 4.001 0 0 0 96.02 415.876 A 2.569 2.569 0 0 0 94.5 416.884 A 3.433 3.433 0 0 0 94.046 417.799 Q 93.745 418.693 93.703 420.021 A 14.006 14.006 0 0 0 93.696 420.467 L 93.696 421.736 L 98.682 421.736 Z M 170.774 438.875 L 170.774 441.144 Q 170.291 441.377 169.353 441.528 A 12.858 12.858 0 0 1 168.515 441.637 Q 168.119 441.675 167.765 441.68 A 7.603 7.603 0 0 1 167.664 441.68 Q 161.981 441.68 161.981 435.694 L 161.981 424.042 L 159.175 424.042 L 159.175 422.612 L 161.981 421.379 L 163.232 417.197 L 164.948 417.197 L 164.948 421.736 L 170.631 421.736 L 170.631 424.042 L 164.948 424.042 L 164.948 435.568 A 5.974 5.974 0 0 0 165.034 436.617 Q 165.137 437.193 165.362 437.649 A 2.878 2.878 0 0 0 165.788 438.285 A 2.756 2.756 0 0 0 167.482 439.187 A 3.965 3.965 0 0 0 168.093 439.232 A 9.743 9.743 0 0 0 169.52 439.13 A 8.982 8.982 0 0 0 169.612 439.116 A 16.048 16.048 0 0 0 170.04 439.042 Q 170.45 438.966 170.734 438.886 A 4.451 4.451 0 0 0 170.774 438.875 Z M 113.533 421.593 L 113.122 424.345 A 13.075 13.075 0 0 0 112.181 424.172 Q 111.529 424.077 110.977 424.077 A 5.14 5.14 0 0 0 107.179 425.718 A 7.032 7.032 0 0 0 106.911 426.007 A 6.774 6.774 0 0 0 105.277 429.811 A 9.005 9.005 0 0 0 105.223 430.815 L 105.223 441.323 L 102.256 441.323 L 102.256 421.736 L 104.704 421.736 L 105.044 425.364 L 105.187 425.364 A 10.018 10.018 0 0 1 106.307 423.764 A 7.653 7.653 0 0 1 107.814 422.415 A 5.914 5.914 0 0 1 111.191 421.379 Q 112.496 421.379 113.533 421.593 Z M 133.83 434.493 A 15.324 15.324 0 0 0 134.102 431.512 A 17.411 17.411 0 0 0 134.096 431.041 Q 134.052 429.41 133.699 428.025 A 9.238 9.238 0 0 0 131.681 424.113 A 7.766 7.766 0 0 0 128.075 421.788 A 9.969 9.969 0 0 0 125.149 421.379 A 11.522 11.522 0 0 0 123.079 421.556 A 7.847 7.847 0 0 0 118.501 424.05 A 8.196 8.196 0 0 0 117.494 425.446 Q 116.106 427.865 116.106 431.512 A 14.841 14.841 0 0 0 116.292 433.916 A 10.974 10.974 0 0 0 117.214 436.909 A 9.751 9.751 0 0 0 117.43 437.332 A 8.031 8.031 0 0 0 120.359 440.447 Q 122.397 441.68 125.024 441.68 Q 129.277 441.68 131.69 438.991 A 8.276 8.276 0 0 0 132.675 437.637 Q 133.479 436.262 133.83 434.493 Z M 119.18 431.512 A 15.023 15.023 0 0 0 119.323 433.658 Q 119.643 435.871 120.681 437.23 A 4.862 4.862 0 0 0 123.848 439.095 A 7.368 7.368 0 0 0 125.095 439.196 Q 128.008 439.196 129.518 437.239 A 6.368 6.368 0 0 0 130.51 435.308 Q 131.028 433.721 131.028 431.512 A 14.802 14.802 0 0 0 130.888 429.402 Q 130.733 428.329 130.407 427.459 A 6.108 6.108 0 0 0 129.518 425.838 A 4.88 4.88 0 0 0 126.484 424.027 A 7.482 7.482 0 0 0 125.059 423.899 A 7.06 7.06 0 0 0 123.302 424.104 A 4.725 4.725 0 0 0 120.663 425.811 Q 119.595 427.187 119.296 429.536 A 15.676 15.676 0 0 0 119.18 431.512 Z" id="front_labelLayer" stroke="#777777" fill="#777777" style="stroke:#777777;fill:#777777" vector-effect="non-scaling-stroke"/><path d="M 265 336 L 265 357.5 L 261 357.5 L 261 377.5 L 265 377.5 L 265 397.5 L 261 397.5 L 261 417.5 L 265 417.5 L 265 437.5 L 261 437.5 L 261 457.5 L 265 457.5 L 265 477.5 L 261 477.5 L 261 497.5 L 265 497.5 L 265 519 L 280 519 L 280 515 L 300 515 L 300 519 L 320 519 L 320 515 L 340 515 L 340 519 L 360 519 L 360 515 L 380 515 L 380 519 L 400 519 L 400 515 L 420 515 L 420 519 L 440 519 L 440 515 L 460 515 L 460 519 L 480 519 L 480 515 L 500 515 L 500 519 L 515 519 L 515 497.5 L 519 497.5 L 519 477.5 L 515 477.5 L 515 457.5 L 519 457.5 L 519 437.5 L 515 437.5 L 515 417.5 L 519 417.5 L 519 397.5 L 515 397.5 L 515 377.5 L 519 377.5 L 519 357.5 L 515 357.5 L 515 336 L 500 336 L 500 340 L 480 340 L 480 336 L 460 336 L 460 340 L 440 340 L 440 336 L 420 336 L 420 340 L 400 340 L 400 336 L 380 336 L 380 340 L 360 340 L 360 336 L 340 336 L 340 340 L 320 340 L 320 336 L 300 336 L 300 340 L 280 340 L 280 336 L 265 336 Z" id="left_outsideCutPath" stroke="#FF0000" stroke-width="0.1" style="stroke:#FF0000;stroke-width:0.1" vector-effect="non-scaling-stroke"/><path d="M 403.019 421.736 L 403.019 424.042 L 398.033 424.042 L 398.033 441.323 L 395.066 441.323 L 395.066 424.042 L 391.564 424.042 L 391.564 422.701 L 395.066 421.629 L 395.066 420.539 Q 395.066 414.306 399.768 413.454 A 9.017 9.017 0 0 1 401.375 413.319 A 9.553 9.553 0 0 1 402.727 413.422 Q 403.384 413.516 404.116 413.697 A 19.204 19.204 0 0 1 405.021 413.944 L 404.252 416.321 Q 403.034 415.928 402.067 415.814 A 6.38 6.38 0 0 0 401.321 415.767 A 4.001 4.001 0 0 0 400.357 415.876 A 2.569 2.569 0 0 0 398.837 416.884 A 3.433 3.433 0 0 0 398.384 417.799 Q 398.082 418.693 398.04 420.021 A 14.006 14.006 0 0 0 398.033 420.467 L 398.033 421.736 L 403.019 421.736 Z M 389.133 430.189 L 389.133 432.066 L 375.641 432.066 A 11.907 11.907 0 0 0 375.849 434.059 Q 376.247 436.073 377.383 437.302 A 5.391 5.391 0 0 0 380.213 438.897 A 8.168 8.168 0 0 0 382.038 439.089 A 15.668 15.668 0 0 0 387.907 437.927 A 17.954 17.954 0 0 0 388.293 437.767 L 388.293 440.411 A 17.81 17.81 0 0 1 386.67 441.025 A 13.619 13.619 0 0 1 385.318 441.385 Q 384.227 441.615 382.786 441.666 A 24.169 24.169 0 0 1 381.931 441.68 A 11.528 11.528 0 0 1 379.046 441.339 A 8.163 8.163 0 0 1 375.078 439.035 Q 372.712 436.543 372.575 432.226 A 16.945 16.945 0 0 1 372.567 431.69 A 15.578 15.578 0 0 1 372.855 428.601 Q 373.235 426.723 374.116 425.264 A 8.785 8.785 0 0 1 374.899 424.167 A 7.602 7.602 0 0 1 380.44 421.403 A 10.487 10.487 0 0 1 381.163 421.379 A 9.038 9.038 0 0 1 383.708 421.719 A 6.877 6.877 0 0 1 386.989 423.8 A 8.295 8.295 0 0 1 388.868 427.591 A 12.074 12.074 0 0 1 389.133 430.189 Z M 415.6 438.875 L 415.6 441.144 Q 415.118 441.377 414.18 441.528 A 12.858 12.858 0 0 1 413.341 441.637 Q 412.946 441.675 412.591 441.68 A 7.603 7.603 0 0 1 412.491 441.68 Q 406.808 441.68 406.808 435.694 L 406.808 424.042 L 404.002 424.042 L 404.002 422.612 L 406.808 421.379 L 408.059 417.197 L 409.774 417.197 L 409.774 421.736 L 415.457 421.736 L 415.457 424.042 L 409.774 424.042 L 409.774 435.568 A 5.974 5.974 0 0 0 409.861 436.617 Q 409.963 437.193 410.189 437.649 A 2.878 2.878 0 0 0 410.614 438.285 A 2.756 2.756 0 0 0 412.308 439.187 A 3.965 3.965 0 0 0 412.92 439.232 A 9.743 9.743 0 0 0 414.347 439.13 A 8.982 8.982 0 0 0 414.439 439.116 A 16.048 16.048 0 0 0 414.867 439.042 Q 415.276 438.966 415.561 438.886 A 4.451 4.451 0 0 0 415.6 438.875 Z M 367.366 413.515 L 367.366 441.323 L 364.4 441.323 L 364.4 413.515 L 367.366 413.515 Z M 375.712 429.653 L 385.952 429.653 Q 385.952 427.755 385.38 426.458 A 4.59 4.59 0 0 0 384.701 425.355 A 4.064 4.064 0 0 0 382.254 423.962 A 6.097 6.097 0 0 0 381.127 423.863 A 5.848 5.848 0 0 0 379.438 424.095 A 4.518 4.518 0 0 0 377.365 425.4 A 5.86 5.86 0 0 0 376.2 427.366 Q 375.905 428.174 375.77 429.146 A 11.208 11.208 0 0 0 375.712 429.653 Z" id="left_labelLayer" stroke="#777777" fill="#777777" style="stroke:#777777;fill:#777777" vector-effect="non-scaling-stroke"/><path d="M 526 265 L 526 280 L 522 280 L 522 300 L 526 300 L 526 320 L 522 320 L 522 340 L 526 340 L 526 360 L 522 360 L 522 380 L 526 380 L 526 400 L 522 400 L 522 420 L 526 420 L 526 440 L 522 440 L 522 460 L 526 460 L 526 480 L 522 480 L 522 500 L 526 500 L 526 515 L 541 515 L 541 519 L 561 519 L 561 515 L 581 515 L 581 519 L 601 519 L 601 515 L 621 515 L 621 519 L 641 519 L 641 515 L 661 515 L 661 519 L 681 519 L 681 515 L 701 515 L 701 519 L 721 519 L 721 515 L 741 515 L 741 519 L 761 519 L 761 515 L 776 515 L 776 500 L 780 500 L 780 480 L 776 480 L 776 460 L 780 460 L 780 440 L 776 440 L 776 420 L 780 420 L 780 400 L 776 400 L 776 380 L 780 380 L 780 360 L 776 360 L 776 340 L 780 340 L 780 320 L 776 320 L 776 300 L 780 300 L 780 280 L 776 280 L 776 265 L 761 265 L 761 261 L 741 261 L 741 265 L 721 265 L 721 261 L 701 261 L 701 265 L 681 265 L 681 261 L 661 261 L 661 265 L 641 265 L 641 261 L 621 261 L 621 265 L 601 265 L 601 261 L 581 261 L 581 265 L 561 265 L 561 261 L 541 261 L 541 265 L 526 265 Z" id="top_outsideCutPath" stroke="#FF0000" stroke-width="0.1" style="stroke:#FF0000;stroke-width:0.1" vector-effect="non-scaling-stroke"/><path d="M 669.544 397.256 L 669.241 397.256 A 39.581 39.581 0 0 1 669.501 400.181 A 33.167 33.167 0 0 1 669.544 401.842 L 669.544 413.205 L 665.361 413.205 L 665.361 373.195 L 668.762 373.195 L 669.342 376.974 L 669.544 376.974 A 11.258 11.258 0 0 1 671.172 375.125 A 8.706 8.706 0 0 1 673.298 373.699 A 10.474 10.474 0 0 1 676.3 372.821 A 13.557 13.557 0 0 1 678.211 372.691 A 12.82 12.82 0 0 1 681.833 373.175 A 9.476 9.476 0 0 1 686.689 376.445 A 12.558 12.558 0 0 1 688.832 380.629 Q 689.385 382.432 689.575 384.602 A 27.235 27.235 0 0 1 689.675 386.977 Q 689.675 393.779 686.639 397.546 A 9.901 9.901 0 0 1 679.601 401.246 A 14.185 14.185 0 0 1 678.211 401.313 A 12.686 12.686 0 0 1 675.023 400.924 A 11.038 11.038 0 0 1 673.285 400.317 A 9.263 9.263 0 0 1 669.544 397.256 Z M 628.677 397.357 L 628.677 400.557 Q 627.996 400.884 626.674 401.099 Q 625.439 401.298 624.434 401.312 A 10.721 10.721 0 0 1 624.293 401.313 Q 616.281 401.313 616.281 392.872 L 616.281 376.445 L 612.325 376.445 L 612.325 374.429 L 616.281 372.691 L 618.044 366.795 L 620.463 366.795 L 620.463 373.195 L 628.475 373.195 L 628.475 376.445 L 620.463 376.445 L 620.463 392.696 Q 620.463 394.449 621.048 395.629 A 4.057 4.057 0 0 0 621.647 396.526 A 3.885 3.885 0 0 0 624.036 397.797 A 5.59 5.59 0 0 0 624.897 397.861 A 13.736 13.736 0 0 0 626.91 397.717 A 12.662 12.662 0 0 0 627.039 397.697 Q 628.025 397.541 628.621 397.373 A 6.277 6.277 0 0 0 628.677 397.357 Z M 657.645 391.179 A 21.604 21.604 0 0 0 658.029 386.977 Q 658.029 384.292 657.46 382.061 A 13.023 13.023 0 0 0 654.615 376.546 A 10.949 10.949 0 0 0 649.532 373.267 A 14.054 14.054 0 0 0 645.406 372.691 A 16.244 16.244 0 0 0 642.489 372.941 A 11.063 11.063 0 0 0 636.034 376.458 A 11.555 11.555 0 0 0 634.615 378.425 Q 633.521 380.331 633.039 382.777 A 21.716 21.716 0 0 0 632.658 386.977 A 20.923 20.923 0 0 0 632.92 390.366 A 15.472 15.472 0 0 0 634.22 394.586 A 13.747 13.747 0 0 0 634.524 395.182 A 11.323 11.323 0 0 0 638.654 399.574 A 11.646 11.646 0 0 0 641.327 400.763 A 13.431 13.431 0 0 0 645.23 401.313 A 16.241 16.241 0 0 0 648.066 401.076 A 11.15 11.15 0 0 0 654.628 397.521 A 11.667 11.667 0 0 0 656.017 395.612 Q 657.15 393.673 657.645 391.179 Z M 637.882 392.782 A 8.774 8.774 0 0 0 639.108 395.039 A 6.855 6.855 0 0 0 643.572 397.668 A 10.387 10.387 0 0 0 645.331 397.811 A 9.715 9.715 0 0 0 647.894 397.492 A 6.761 6.761 0 0 0 651.567 395.052 Q 653.696 392.293 653.696 386.977 A 20.868 20.868 0 0 0 653.498 384.003 Q 653.047 380.878 651.567 378.977 Q 649.438 376.243 645.28 376.243 A 9.954 9.954 0 0 0 642.802 376.534 A 6.661 6.661 0 0 0 639.082 378.939 A 8.648 8.648 0 0 0 637.738 381.537 Q 636.991 383.784 636.991 386.977 Q 636.991 390.41 637.882 392.782 Z M 669.544 386.044 L 669.544 386.977 Q 669.544 392.797 671.484 395.304 A 6.068 6.068 0 0 0 674.562 397.381 Q 675.933 397.811 677.707 397.811 Q 681.285 397.811 683.313 394.913 Q 685.341 392.016 685.341 386.926 Q 685.341 383.537 684.468 381.183 A 8.867 8.867 0 0 0 683.313 379.002 A 6.506 6.506 0 0 0 678.554 376.292 A 8.998 8.998 0 0 0 677.606 376.243 A 12.051 12.051 0 0 0 675.355 376.439 Q 672.827 376.921 671.484 378.587 Q 669.715 380.78 669.557 385.403 A 26.62 26.62 0 0 0 669.544 386.044 Z" id="top_labelLayer" stroke="#777777" fill="#777777" style="stroke:#777777;fill:#777777" vector-effect="non-scaling-stroke"/><path d="M 0 150 L 0 171.5 L 4 171.5 L 4 191.5 L 0 191.5 L 0 211.5 L 4 211.5 L 4 231.5 L 0 231.5 L 0 251.5 L 4 251.5 L 4 271.5 L 0 271.5 L 0 291.5 L 4 291.5 L 4 311.5 L 0 311.5 L 0 333 L 19 333 L 19 329 L 39 329 L 39 333 L 59 333 L 59 329 L 79 329 L 79 333 L 99 333 L 99 329 L 119 329 L 119 333 L 139 333 L 139 329 L 159 329 L 159 333 L 179 333 L 179 329 L 199 329 L 199 333 L 219 333 L 219 329 L 239 329 L 239 333 L 258 333 L 258 311.5 L 254 311.5 L 254 291.5 L 258 291.5 L 258 271.5 L 254 271.5 L 254 251.5 L 258 251.5 L 258 231.5 L 254 231.5 L 254 211.5 L 258 211.5 L 258 191.5 L 254 191.5 L 254 171.5 L 258 171.5 L 258 150 L 239 150 L 239 154 L 219 154 L 219 150 L 199 150 L 199 154 L 179 154 L 179 150 L 159 150 L 159 154 L 139 154 L 139 150 L 119 150 L 119 154 L 99 154 L 99 150 L 79 150 L 79 154 L 59 154 L 59 150 L 39 150 L 39 154 L 19 154 L 19 150 L 0 150 Z" id="back_outsideCutPath" stroke="#FF0000" stroke-width="0.1" style="stroke:#FF0000;stroke-width:0.1" vector-effect="non-scaling-stroke"/><path d="M 154.055 245.199 L 154.198 245.199 A 17.562 17.562 0 0 1 154.633 244.612 Q 155.133 243.962 155.846 243.132 A 63.744 63.744 0 0 1 156.539 242.34 L 162.866 235.638 L 166.386 235.638 L 158.452 243.984 L 166.94 255.225 L 163.348 255.225 L 156.432 245.968 L 154.198 247.898 L 154.198 255.225 L 151.267 255.225 L 151.267 227.417 L 154.198 227.417 L 154.198 242.161 A 19.769 19.769 0 0 1 154.189 242.72 Q 154.163 243.658 154.055 245.199 Z M 94.026 252.705 L 93.812 252.705 L 93.186 255.225 L 91.06 255.225 L 91.06 227.417 L 94.026 227.417 L 94.026 234.173 Q 94.026 236.369 93.892 238.13 A 37.049 37.049 0 0 1 93.883 238.247 L 94.026 238.247 A 6.745 6.745 0 0 1 98.949 235.388 A 10.132 10.132 0 0 1 100.174 235.316 A 9.067 9.067 0 0 1 102.726 235.657 A 6.787 6.787 0 0 1 106.17 237.952 A 8.742 8.742 0 0 1 107.703 240.905 Q 108.079 242.121 108.221 243.578 A 19.042 19.042 0 0 1 108.305 245.414 A 17.394 17.394 0 0 1 108.075 248.34 Q 107.808 249.9 107.233 251.151 A 8.338 8.338 0 0 1 106.152 252.91 A 7.023 7.023 0 0 1 101.16 255.535 A 10.062 10.062 0 0 1 100.174 255.582 A 8.998 8.998 0 0 1 97.913 255.306 A 7.829 7.829 0 0 1 96.68 254.876 A 6.57 6.57 0 0 1 94.026 252.705 Z M 127.731 255.225 L 125.533 255.225 L 124.943 252.437 L 124.8 252.437 A 12.298 12.298 0 0 1 123.805 253.551 Q 123.27 254.077 122.735 254.444 A 5.466 5.466 0 0 1 121.878 254.93 A 6.841 6.841 0 0 1 120.465 255.376 Q 119.78 255.518 118.986 255.562 A 13.351 13.351 0 0 1 118.242 255.582 A 9.104 9.104 0 0 1 116.389 255.405 Q 115.257 255.17 114.387 254.622 A 5.109 5.109 0 0 1 113.676 254.081 A 4.876 4.876 0 0 1 112.205 251.509 A 7.465 7.465 0 0 1 112.022 249.81 A 5.133 5.133 0 0 1 114.942 244.965 Q 117.116 243.808 120.909 243.615 A 28.978 28.978 0 0 1 121.512 243.591 L 124.836 243.483 L 124.836 242.268 A 8.521 8.521 0 0 0 124.753 241.036 Q 124.661 240.406 124.466 239.901 A 3.311 3.311 0 0 0 123.844 238.864 A 3.011 3.011 0 0 0 122.611 238.059 Q 122.117 237.88 121.505 237.81 A 7.33 7.33 0 0 0 120.672 237.765 Q 118.224 237.765 115.132 239.266 L 114.221 236.996 A 13.678 13.678 0 0 1 116.861 235.911 A 15.569 15.569 0 0 1 117.393 235.763 Q 119.117 235.316 120.851 235.316 A 12.529 12.529 0 0 1 122.759 235.452 Q 124.852 235.775 126.042 236.871 A 4.698 4.698 0 0 1 127.255 238.741 Q 127.731 240.034 127.731 241.857 L 127.731 255.225 Z M 146.907 236.299 L 145.995 238.819 A 13.197 13.197 0 0 0 144.564 238.343 A 15.762 15.762 0 0 0 143.851 238.167 A 12.254 12.254 0 0 0 142.918 237.994 Q 142.464 237.929 142.06 237.913 A 6.576 6.576 0 0 0 141.796 237.908 A 6.58 6.58 0 0 0 139.123 238.41 Q 136.323 239.644 135.901 243.914 A 16.392 16.392 0 0 0 135.827 245.521 A 14.367 14.367 0 0 0 135.969 247.613 Q 136.125 248.673 136.454 249.535 A 6.153 6.153 0 0 0 137.283 251.061 A 4.712 4.712 0 0 0 140.336 252.885 A 7.177 7.177 0 0 0 141.599 252.991 A 12.419 12.419 0 0 0 145.025 252.493 A 15.333 15.333 0 0 0 146.621 251.937 L 146.621 254.564 A 8.438 8.438 0 0 1 144.557 255.294 Q 143.603 255.506 142.493 255.562 A 16.269 16.269 0 0 1 141.671 255.582 A 11.087 11.087 0 0 1 138.973 255.273 A 7.518 7.518 0 0 1 135.085 252.964 Q 133.071 250.703 132.796 246.821 A 17.938 17.938 0 0 1 132.753 245.557 A 16.369 16.369 0 0 1 133.006 242.58 Q 133.528 239.765 135.121 237.961 A 7.681 7.681 0 0 1 139.327 235.542 A 11.645 11.645 0 0 1 141.867 235.281 Q 143.279 235.281 144.691 235.584 A 14.807 14.807 0 0 1 145.514 235.785 Q 146.34 236.013 146.889 236.29 A 4.411 4.411 0 0 1 146.907 236.299 Z M 99.745 237.8 A 8.336 8.336 0 0 0 98.13 237.946 Q 97.211 238.128 96.512 238.537 A 3.945 3.945 0 0 0 95.367 239.543 A 5.078 5.078 0 0 0 94.631 240.943 Q 94.136 242.333 94.046 244.447 A 22.856 22.856 0 0 0 94.026 245.414 Q 94.026 248.92 95.019 250.731 A 4.474 4.474 0 0 0 95.402 251.32 A 4.304 4.304 0 0 0 97.586 252.793 Q 98.315 253.022 99.205 253.079 A 9.539 9.539 0 0 0 99.817 253.098 A 5.914 5.914 0 0 0 101.496 252.873 A 4.266 4.266 0 0 0 103.891 251.106 Q 104.849 249.682 105.122 247.369 A 16.998 16.998 0 0 0 105.231 245.378 Q 105.231 241.553 103.891 239.677 A 4.326 4.326 0 0 0 101.137 237.934 A 6.861 6.861 0 0 0 99.745 237.8 Z M 124.765 247.362 L 124.765 245.592 L 121.798 245.717 Q 118.259 245.842 116.696 246.816 A 3.166 3.166 0 0 0 115.187 249.113 A 4.686 4.686 0 0 0 115.132 249.846 Q 115.132 251.26 115.885 252.08 A 2.642 2.642 0 0 0 116.106 252.294 Q 116.947 253.019 118.368 253.118 A 6.672 6.672 0 0 0 118.831 253.134 A 8.168 8.168 0 0 0 120.595 252.954 Q 122.145 252.612 123.183 251.615 A 4.968 4.968 0 0 0 124.569 249.134 Q 124.765 248.323 124.765 247.362 Z" id="back_labelLayer" stroke="#777777" fill="#777777" style="stroke:#777777;fill:#777777" vector-effect="non-scaling-stroke"/><path d="M 265 150 L 265 171.5 L 261 171.5 L 261 191.5 L 265 191.5 L 265 211.5 L 261 211.5 L 261 231.5 L 265 231.5 L 265 251.5 L 261 251.5 L 261 271.5 L 265 271.5 L 265 291.5 L 261 291.5 L 261 311.5 L 265 311.5 L 265 333 L 280 333 L 280 329 L 300 329 L 300 333 L 320 333 L 320 329 L 340 329 L 340 333 L 360 333 L 360 329 L 380 329 L 380 333 L 400 333 L 400 329 L 420 329 L 420 333 L 440 333 L 440 329 L 460 329 L 460 333 L 480 333 L 480 329 L 500 329 L 500 333 L 515 333 L 515 311.5 L 519 311.5 L 519 291.5 L 515 291.5 L 515 271.5 L 519 271.5 L 519 251.5 L 515 251.5 L 515 231.5 L 519 231.5 L 519 211.5 L 515 211.5 L 515 191.5 L 519 191.5 L 519 171.5 L 515 171.5 L 515 150 L 500 150 L 500 154 L 480 154 L 480 150 L 460 150 L 460 154 L 440 154 L 440 150 L 420 150 L 420 154 L 400 154 L 400 150 L 380 150 L 380 154 L 360 154 L 360 150 L 340 150 L 340 154 L 320 154 L 320 150 L 300 150 L 300 154 L 280 154 L 280 150 L 265 150 Z" id="right_outsideCutPath" stroke="#FF0000" stroke-width="0.1" style="stroke:#FF0000;stroke-width:0.1" vector-effect="non-scaling-stroke"/><path d="M 412.759 251.007 L 409.792 251.007 L 409.792 238.337 A 8.386 8.386 0 0 0 409.696 237.022 Q 409.469 235.592 408.702 234.762 A 3.345 3.345 0 0 0 407.33 233.887 Q 406.792 233.697 406.129 233.626 A 7.865 7.865 0 0 0 405.289 233.583 Q 403.27 233.583 401.964 234.299 A 4.153 4.153 0 0 0 400.776 235.263 Q 399.356 236.943 399.356 240.767 L 399.356 251.007 L 396.389 251.007 L 396.389 223.2 L 399.356 223.2 L 399.356 231.617 A 26.687 26.687 0 0 1 399.337 232.642 Q 399.304 233.496 399.213 234.137 L 399.391 234.137 A 5.927 5.927 0 0 1 401.468 232.139 A 7.241 7.241 0 0 1 401.884 231.912 A 7.616 7.616 0 0 1 404.384 231.171 A 9.628 9.628 0 0 1 405.575 231.099 A 12.036 12.036 0 0 1 407.597 231.257 Q 409.714 231.619 410.963 232.806 A 5.165 5.165 0 0 1 412.237 234.806 Q 412.543 235.638 412.669 236.67 A 12.828 12.828 0 0 1 412.759 238.229 L 412.759 251.007 Z M 385.595 231.421 L 392.368 231.421 L 392.368 233.297 L 388.74 233.726 A 4.821 4.821 0 0 1 389.157 234.347 Q 389.341 234.668 389.507 235.051 A 9.146 9.146 0 0 1 389.634 235.361 A 5.707 5.707 0 0 1 389.972 236.725 A 7.329 7.329 0 0 1 390.027 237.64 A 6.801 6.801 0 0 1 389.715 239.748 A 5.501 5.501 0 0 1 388.061 242.233 Q 386.095 243.948 382.664 243.948 A 9.534 9.534 0 0 1 381.561 243.887 A 8.051 8.051 0 0 1 381.02 243.805 A 5.279 5.279 0 0 0 380.169 244.356 Q 379.125 245.198 379.125 246.325 A 1.538 1.538 0 0 0 379.204 246.828 Q 379.346 247.241 379.747 247.489 A 1.646 1.646 0 0 0 379.787 247.514 A 2.081 2.081 0 0 0 380.248 247.704 Q 380.913 247.898 382.056 247.898 L 385.523 247.898 Q 387.645 247.898 389.111 248.494 A 5.361 5.361 0 0 1 390.411 249.238 A 4.34 4.34 0 0 1 392.024 252.003 A 6.518 6.518 0 0 1 392.118 253.134 A 6.423 6.423 0 0 1 391.751 255.356 Q 391.158 256.974 389.609 258.026 A 7.053 7.053 0 0 1 389.509 258.093 A 8.897 8.897 0 0 1 387.215 259.133 Q 386.085 259.477 384.706 259.643 A 23.514 23.514 0 0 1 381.895 259.8 A 16.621 16.621 0 0 1 379.666 259.66 Q 377.403 259.353 375.971 258.37 A 4.728 4.728 0 0 1 374.447 256.716 Q 373.959 255.811 373.898 254.664 A 6.264 6.264 0 0 1 373.889 254.331 A 4.536 4.536 0 0 1 375.033 251.24 A 5.18 5.18 0 0 1 376.812 249.943 A 7.342 7.342 0 0 1 378.25 249.47 A 3.079 3.079 0 0 1 377.054 248.504 A 3.655 3.655 0 0 1 376.99 248.416 A 2.75 2.75 0 0 1 376.485 246.93 A 3.407 3.407 0 0 1 376.481 246.754 A 3.392 3.392 0 0 1 376.652 245.661 A 3.006 3.006 0 0 1 377.052 244.878 Q 377.485 244.27 378.294 243.693 A 9.319 9.319 0 0 1 378.857 243.323 Q 377.338 242.697 376.382 241.196 A 6.133 6.133 0 0 1 375.441 238.241 A 7.485 7.485 0 0 1 375.426 237.765 A 8.571 8.571 0 0 1 375.652 235.738 A 5.639 5.639 0 0 1 377.356 232.806 Q 379.023 231.301 381.891 231.096 A 13.102 13.102 0 0 1 382.825 231.063 A 11.371 11.371 0 0 1 384.329 231.158 A 8.66 8.66 0 0 1 385.595 231.421 Z M 427.86 248.559 L 427.86 250.829 Q 427.377 251.061 426.439 251.213 A 12.858 12.858 0 0 1 425.601 251.322 Q 425.206 251.359 424.851 251.364 A 7.603 7.603 0 0 1 424.75 251.365 Q 419.067 251.365 419.067 245.378 L 419.067 233.726 L 416.262 233.726 L 416.262 232.296 L 419.067 231.063 L 420.318 226.881 L 422.034 226.881 L 422.034 231.421 L 427.717 231.421 L 427.717 233.726 L 422.034 233.726 L 422.034 245.253 A 5.974 5.974 0 0 0 422.12 246.302 Q 422.223 246.878 422.449 247.333 A 2.878 2.878 0 0 0 422.874 247.969 A 2.756 2.756 0 0 0 424.568 248.871 A 3.965 3.965 0 0 0 425.179 248.916 A 9.743 9.743 0 0 0 426.606 248.814 A 8.982 8.982 0 0 0 426.698 248.8 A 16.048 16.048 0 0 0 427.127 248.727 Q 427.536 248.65 427.82 248.57 A 4.451 4.451 0 0 0 427.86 248.559 Z M 363.417 231.278 L 363.006 234.03 A 13.075 13.075 0 0 0 362.066 233.856 Q 361.413 233.762 360.861 233.762 A 5.14 5.14 0 0 0 357.064 235.402 A 7.032 7.032 0 0 0 356.796 235.692 A 6.774 6.774 0 0 0 355.161 239.496 A 9.005 9.005 0 0 0 355.107 240.499 L 355.107 251.007 L 352.14 251.007 L 352.14 231.421 L 354.588 231.421 L 354.928 235.048 L 355.071 235.048 A 10.018 10.018 0 0 1 356.191 233.448 A 7.653 7.653 0 0 1 357.698 232.1 A 5.914 5.914 0 0 1 361.076 231.063 Q 362.38 231.063 363.417 231.278 Z M 370.047 231.421 L 370.047 251.007 L 367.08 251.007 L 367.08 231.421 L 370.047 231.421 Z M 384.576 250.561 L 381.02 250.561 A 6.819 6.819 0 0 0 379.791 250.664 Q 379.093 250.792 378.541 251.078 A 3.475 3.475 0 0 0 377.874 251.526 A 3.126 3.126 0 0 0 376.848 253.298 A 4.747 4.747 0 0 0 376.749 254.296 A 2.979 2.979 0 0 0 376.945 255.401 Q 377.262 256.201 378.089 256.708 A 4.751 4.751 0 0 0 379.258 257.209 Q 380.359 257.528 381.907 257.53 A 15.178 15.178 0 0 0 381.931 257.53 Q 385.268 257.53 387.057 256.639 A 4.927 4.927 0 0 0 387.462 256.413 A 4.327 4.327 0 0 0 388.466 255.573 A 3.243 3.243 0 0 0 389.258 253.384 A 4.014 4.014 0 0 0 389.185 252.587 Q 388.99 251.625 388.275 251.177 Q 387.527 250.708 385.773 250.596 A 18.876 18.876 0 0 0 384.576 250.561 Z M 379.018 240.225 A 3.174 3.174 0 0 0 379.519 240.803 Q 380.68 241.857 382.753 241.857 A 6.463 6.463 0 0 0 384.445 241.655 Q 387.096 240.935 387.096 237.64 Q 387.096 234.137 384.328 233.414 A 6.452 6.452 0 0 0 382.7 233.226 A 6.225 6.225 0 0 0 381.431 233.347 Q 380.654 233.509 380.061 233.887 A 3.415 3.415 0 0 0 379.483 234.351 Q 378.357 235.477 378.357 237.693 Q 378.357 239.244 379.018 240.225 Z M 367.331 224.621 A 1.388 1.388 0 0 0 367.024 225.056 Q 366.83 225.479 366.83 226.113 Q 366.83 226.617 366.957 226.992 A 1.532 1.532 0 0 0 367.331 227.605 A 1.664 1.664 0 0 0 367.933 227.989 A 1.884 1.884 0 0 0 368.581 228.097 A 1.731 1.731 0 0 0 369.815 227.605 A 1.448 1.448 0 0 0 370.097 227.231 Q 370.226 226.988 370.285 226.675 A 3.069 3.069 0 0 0 370.333 226.113 A 3.394 3.394 0 0 0 370.318 225.792 Q 370.29 225.499 370.209 225.259 A 1.498 1.498 0 0 0 369.815 224.63 A 1.748 1.748 0 0 0 368.581 224.147 A 2.264 2.264 0 0 0 368.432 224.152 A 1.716 1.716 0 0 0 367.331 224.621 Z" id="right_labelLayer" stroke="#777777" fill="#777777" style="stroke:#777777;fill:#777777" vector-effect="non-scaling-stroke"/><path d="M 526 4 L 526 19 L 522 19 L 522 39 L 526 39 L 526 59 L 522 59 L 522 79 L 526 79 L 526 99 L 522 99 L 522 119 L 526 119 L 526 139 L 522 139 L 522 159 L 526 159 L 526 179 L 522 179 L 522 199 L 526 199 L 526 219 L 522 219 L 522 239 L 526 239 L 526 254 L 541 254 L 541 258 L 561 258 L 561 254 L 581 254 L 581 258 L 601 258 L 601 254 L 621 254 L 621 258 L 641 258 L 641 254 L 661 254 L 661 258 L 681 258 L 681 254 L 701 254 L 701 258 L 721 258 L 721 254 L 741 254 L 741 258 L 761 258 L 761 254 L 776 254 L 776 239 L 780 239 L 780 219 L 776 219 L 776 199 L 780 199 L 780 179 L 776 179 L 776 159 L 780 159 L 780 139 L 776 139 L 776 119 L 780 119 L 780 99 L 776 99 L 776 79 L 780 79 L 780 59 L 776 59 L 776 39 L 780 39 L 780 19 L 776 19 L 776 4 L 761 4 L 761 0 L 741 0 L 741 4 L 721 4 L 721 0 L 701 0 L 701 4 L 681 4 L 681 0 L 661 0 L 661 4 L 641 4 L 641 0 L 621 0 L 621 4 L 601 4 L 601 0 L 581 0 L 581 4 L 561 4 L 561 0 L 541 0 L 541 4 L 526 4 Z" id="bottom_outsideCutPath" stroke="#FF0000" stroke-width="0.1" style="stroke:#FF0000;stroke-width:0.1" vector-effect="non-scaling-stroke"/><path d="M 735.883 148.349 L 731.7 148.349 L 731.7 130.385 Q 731.7 128.317 731.147 126.897 A 5.054 5.054 0 0 0 730.29 125.434 A 4.401 4.401 0 0 0 728.244 124.111 Q 727.229 123.784 725.906 123.784 Q 722 123.784 720.136 126.026 A 6.911 6.911 0 0 0 718.964 128.147 Q 718.277 130.075 718.271 132.887 A 23.256 23.256 0 0 0 718.271 132.93 L 718.271 148.349 L 714.089 148.349 L 714.089 130.385 Q 714.089 128.317 713.535 126.897 A 5.054 5.054 0 0 0 712.678 125.434 A 4.387 4.387 0 0 0 710.66 124.123 Q 709.934 123.885 709.047 123.814 A 9.794 9.794 0 0 0 708.269 123.784 A 10.388 10.388 0 0 0 706.121 123.992 Q 703.796 124.483 702.512 126.14 Q 700.856 128.275 700.701 132.883 A 29.12 29.12 0 0 0 700.685 133.862 L 700.685 148.349 L 696.503 148.349 L 696.503 120.735 L 699.904 120.735 L 700.584 124.515 L 700.786 124.515 A 8.22 8.22 0 0 1 704.124 121.365 A 9.93 9.93 0 0 1 708.046 120.265 A 11.993 11.993 0 0 1 708.949 120.231 A 13.693 13.693 0 0 1 712.031 120.552 Q 715.945 121.458 717.415 124.918 L 717.616 124.918 A 8.733 8.733 0 0 1 720.905 121.652 A 10.492 10.492 0 0 1 721.194 121.491 A 10.586 10.586 0 0 1 725.077 120.31 A 13.199 13.199 0 0 1 726.535 120.231 A 14.538 14.538 0 0 1 729.172 120.455 Q 730.638 120.726 731.783 121.325 A 6.893 6.893 0 0 1 733.552 122.638 A 7.202 7.202 0 0 1 735.099 125.167 Q 735.883 127.265 735.883 130.335 L 735.883 148.349 Z M 570.299 144.797 L 569.997 144.797 L 569.115 148.349 L 566.117 148.349 L 566.117 109.145 L 570.299 109.145 L 570.299 118.669 Q 570.299 121.869 570.098 124.414 L 570.299 124.414 A 9.509 9.509 0 0 1 577.24 120.383 A 14.285 14.285 0 0 1 578.966 120.282 A 12.783 12.783 0 0 1 582.564 120.762 A 9.569 9.569 0 0 1 587.42 123.998 Q 590.43 127.714 590.43 134.517 Q 590.43 141.32 587.394 145.087 A 9.901 9.901 0 0 1 580.357 148.787 A 14.185 14.185 0 0 1 578.966 148.853 A 12.686 12.686 0 0 1 575.779 148.464 A 11.038 11.038 0 0 1 574.041 147.858 A 9.263 9.263 0 0 1 570.299 144.797 Z M 641.602 144.898 L 641.602 148.097 Q 640.922 148.425 639.599 148.639 Q 638.364 148.839 637.36 148.852 A 10.721 10.721 0 0 1 637.218 148.853 Q 629.206 148.853 629.206 140.413 L 629.206 123.985 L 625.25 123.985 L 625.25 121.97 L 629.206 120.231 L 630.97 114.336 L 633.388 114.336 L 633.388 120.735 L 641.4 120.735 L 641.4 123.985 L 633.388 123.985 L 633.388 140.236 Q 633.388 141.989 633.973 143.169 A 4.057 4.057 0 0 0 634.573 144.066 A 3.885 3.885 0 0 0 636.961 145.338 A 5.59 5.59 0 0 0 637.823 145.401 A 13.736 13.736 0 0 0 639.835 145.258 A 12.662 12.662 0 0 0 639.964 145.238 Q 640.95 145.081 641.546 144.914 A 6.277 6.277 0 0 0 641.602 144.898 Z M 659.818 144.898 L 659.818 148.097 Q 659.138 148.425 657.815 148.639 Q 656.58 148.839 655.576 148.852 A 10.721 10.721 0 0 1 655.434 148.853 Q 647.422 148.853 647.422 140.413 L 647.422 123.985 L 643.466 123.985 L 643.466 121.97 L 647.422 120.231 L 649.186 114.336 L 651.605 114.336 L 651.605 120.735 L 659.617 120.735 L 659.617 123.985 L 651.605 123.985 L 651.605 140.236 Q 651.605 141.989 652.189 143.169 A 4.057 4.057 0 0 0 652.789 144.066 A 3.885 3.885 0 0 0 655.177 145.338 A 5.59 5.59 0 0 0 656.039 145.401 A 13.736 13.736 0 0 0 658.051 145.258 A 12.662 12.662 0 0 0 658.181 145.238 Q 659.166 145.081 659.762 144.914 A 6.277 6.277 0 0 0 659.818 144.898 Z M 621.188 138.72 A 21.604 21.604 0 0 0 621.572 134.517 Q 621.572 131.833 621.003 129.602 A 13.023 13.023 0 0 0 618.158 124.086 A 10.949 10.949 0 0 0 613.075 120.808 A 14.054 14.054 0 0 0 608.949 120.231 A 16.244 16.244 0 0 0 606.031 120.482 A 11.063 11.063 0 0 0 599.576 123.998 A 11.555 11.555 0 0 0 598.157 125.966 Q 597.064 127.871 596.581 130.317 A 21.716 21.716 0 0 0 596.2 134.517 A 20.923 20.923 0 0 0 596.463 137.906 A 15.472 15.472 0 0 0 597.762 142.126 A 13.747 13.747 0 0 0 598.067 142.722 A 11.323 11.323 0 0 0 602.197 147.115 A 11.646 11.646 0 0 0 604.87 148.303 A 13.431 13.431 0 0 0 608.773 148.853 A 16.241 16.241 0 0 0 611.609 148.616 A 11.15 11.15 0 0 0 618.17 145.061 A 11.667 11.667 0 0 0 619.56 143.153 Q 620.693 141.214 621.188 138.72 Z M 688.787 138.72 A 21.604 21.604 0 0 0 689.171 134.517 Q 689.171 131.833 688.602 129.602 A 13.023 13.023 0 0 0 685.757 124.086 A 10.949 10.949 0 0 0 680.674 120.808 A 14.054 14.054 0 0 0 676.548 120.231 A 16.244 16.244 0 0 0 673.63 120.482 A 11.063 11.063 0 0 0 667.175 123.998 A 11.555 11.555 0 0 0 665.756 125.966 Q 664.663 127.871 664.18 130.317 A 21.716 21.716 0 0 0 663.799 134.517 A 20.923 20.923 0 0 0 664.062 137.906 A 15.472 15.472 0 0 0 665.361 142.126 A 13.747 13.747 0 0 0 665.666 142.722 A 11.323 11.323 0 0 0 669.796 147.115 A 11.646 11.646 0 0 0 672.469 148.303 A 13.431 13.431 0 0 0 676.372 148.853 A 16.241 16.241 0 0 0 679.208 148.616 A 11.15 11.15 0 0 0 685.769 145.061 A 11.667 11.667 0 0 0 687.159 143.153 Q 688.292 141.214 688.787 138.72 Z M 601.425 140.323 A 8.774 8.774 0 0 0 602.65 142.58 A 6.855 6.855 0 0 0 607.115 145.209 A 10.387 10.387 0 0 0 608.873 145.351 A 9.715 9.715 0 0 0 611.436 145.032 A 6.761 6.761 0 0 0 615.109 142.592 Q 617.238 139.833 617.238 134.517 A 20.868 20.868 0 0 0 617.041 131.543 Q 616.589 128.418 615.109 126.518 Q 612.98 123.784 608.823 123.784 A 9.954 9.954 0 0 0 606.345 124.074 A 6.661 6.661 0 0 0 602.625 126.48 A 8.648 8.648 0 0 0 601.281 129.077 Q 600.534 131.325 600.534 134.517 Q 600.534 137.95 601.425 140.323 Z M 669.024 140.323 A 8.774 8.774 0 0 0 670.249 142.58 A 6.855 6.855 0 0 0 674.714 145.209 A 10.387 10.387 0 0 0 676.472 145.351 A 9.715 9.715 0 0 0 679.035 145.032 A 6.761 6.761 0 0 0 682.708 142.592 Q 684.837 139.833 684.837 134.517 A 20.868 20.868 0 0 0 684.64 131.543 Q 684.189 128.418 682.708 126.518 Q 680.579 123.784 676.422 123.784 A 9.954 9.954 0 0 0 673.944 124.074 A 6.661 6.661 0 0 0 670.224 126.48 A 8.648 8.648 0 0 0 668.88 129.077 Q 668.133 131.325 668.133 134.517 Q 668.133 137.95 669.024 140.323 Z M 578.362 123.784 A 11.753 11.753 0 0 0 576.086 123.989 Q 574.789 124.246 573.804 124.822 A 5.562 5.562 0 0 0 572.189 126.24 A 7.16 7.16 0 0 0 571.152 128.215 Q 570.453 130.175 570.327 133.154 A 32.224 32.224 0 0 0 570.299 134.517 Q 570.299 140.337 572.239 142.844 A 6.068 6.068 0 0 0 575.317 144.921 Q 576.689 145.351 578.463 145.351 A 8.338 8.338 0 0 0 580.831 145.034 A 6.015 6.015 0 0 0 584.207 142.542 Q 585.557 140.535 585.943 137.275 A 23.965 23.965 0 0 0 586.097 134.467 Q 586.097 129.075 584.207 126.429 A 6.099 6.099 0 0 0 580.324 123.972 A 9.673 9.673 0 0 0 578.362 123.784 Z" id="bottom_labelLayer" stroke="#777777" fill="#777777" style="stroke:#777777;fill:#777777" vector-effect="non-scaling-stroke"/></g></svg>